<svg xmlns="http://www.w3.org/2000/svg" fill="none" viewBox="0 0 64 64" height="64" width="64">
<circle fill="url(#paint0_linear_431_13653)" r="28.4444" cy="32.0001" cx="32.0001"></circle>
<circle stroke-width="2" stroke="url(#paint1_linear_431_13653)" r="31" cy="32" cx="32"></circle>
<path fill="black" d="M18.4859 43.7594L46.1098 41.3426L46.2196 37.7181L19.3148 38.8886L18.4859 43.7594Z" clip-rule="evenodd" fill-rule="evenodd"></path>
<mask height="30" width="54" y="17" x="5" maskUnits="userSpaceOnUse" style="mask-type:alpha" id="mask0_431_13653">
<path fill="white" d="M5.83203 22.166L56.0545 17.7721L58.1668 41.9153L7.94429 46.3092L5.83203 22.166Z" clip-rule="evenodd" fill-rule="evenodd"></path>
</mask>
<g mask="url(#mask0_431_13653)">
<path fill="black" d="M26.2506 38.7278C26.1772 38.5853 26.1038 38.4425 26.0308 38.301L25.737 37.7307C25.6498 37.5611 25.5645 37.3958 25.4852 37.2419C25.483 37.2373 25.4798 37.2341 25.4774 37.2299C25.4291 37.1379 25.3733 37.0543 25.313 36.9758C25.297 36.9548 25.2808 36.9343 25.2641 36.9144C25.1975 36.8357 25.1269 36.7616 25.0477 36.6969C25.0471 36.6965 25.0466 36.6958 25.046 36.6951C25.0431 36.6928 25.0395 36.6912 25.0365 36.6889C24.9806 36.6441 24.9225 36.6017 24.8607 36.5633C24.8373 36.5487 24.8107 36.5371 24.7864 36.5236C24.7634 36.5107 24.7399 36.4981 24.716 36.486C24.621 36.4379 24.5219 36.3938 24.4147 36.3585C24.4142 36.3583 24.4136 36.3578 24.4131 36.3576C24.41 36.3566 24.4068 36.3562 24.4037 36.3552C24.2988 36.3211 24.1863 36.2944 24.0699 36.2715C24.0398 36.2655 24.0095 36.2599 23.9787 36.2547C23.9492 36.2498 23.9215 36.243 23.8911 36.2387C23.7961 36.2251 23.6975 36.2149 23.596 36.2078C23.5957 36.2079 23.5952 36.2077 23.595 36.2077C23.5935 36.2076 23.5915 36.2077 23.59 36.2076C23.4567 36.1987 23.3161 36.1965 23.1715 36.198C23.1347 36.1982 23.0977 36.199 23.06 36.2C22.9115 36.2041 22.7592 36.2112 22.5993 36.2252C22.3812 36.2443 22.1541 36.2746 21.9215 36.3153C21.8214 36.3328 21.7197 36.3531 21.6179 36.3742C22.343 36.08 22.9461 35.7133 23.4305 35.2716C24.0009 34.7516 24.407 34.1306 24.6598 33.4084C24.7992 33.0098 24.8872 32.5782 24.9349 32.1196L24.9645 32.8057L26.3269 35.9739L26.1155 35.9924L26.2506 38.7278ZM20.4034 38.1851L20.6382 38.4528C20.5157 38.4988 20.3972 38.5489 20.2879 38.6062C20.2694 38.616 20.2527 38.6272 20.2347 38.6372C19.758 38.1166 19.2811 37.5962 18.8045 37.0755C19.1932 37.0229 19.561 36.9586 19.9112 36.8842C19.8648 36.9022 19.8166 36.9166 19.7705 36.9353L20.4034 38.1851ZM28.3757 36.2647C28.3133 36.3189 28.2553 36.3739 28.2001 36.4285L28.0985 36.1226L28.6179 36.0772C28.5312 36.138 28.4494 36.2003 28.3757 36.2647V36.2647ZM56.7092 25.9773C56.7121 25.9278 56.7155 25.8785 56.717 25.8282C56.7187 25.7703 56.7183 25.7115 56.7181 25.653C56.7181 25.6021 56.719 25.5518 56.7177 25.5002C56.7162 25.4402 56.7123 25.3791 56.7089 25.318C56.7062 25.2663 56.7041 25.2147 56.7001 25.1624C56.6995 25.1535 56.6993 25.1453 56.6988 25.1366C56.6942 25.0816 56.687 25.025 56.6809 24.9694C56.6757 24.9181 56.6713 24.8675 56.6648 24.8159C56.6563 24.747 56.6449 24.6769 56.6341 24.6073C56.6266 24.5582 56.6203 24.5098 56.612 24.46C56.5984 24.3809 56.5819 24.3003 56.5659 24.2197C56.5575 24.1779 56.5507 24.1367 56.5415 24.0945C56.515 23.9708 56.4859 23.8458 56.4537 23.7191C56.195 22.7005 55.816 21.8382 55.3052 21.1261C54.7995 20.421 54.1628 19.8609 53.383 19.4416C52.6082 19.0251 51.6895 18.7462 50.6134 18.6027C49.5408 18.4593 48.3083 18.4498 46.9012 18.5729C46.6523 18.5947 46.4129 18.6206 46.1779 18.6484C46.1257 18.6547 46.0738 18.6607 46.0224 18.6672C45.7949 18.6956 45.5729 18.7267 45.3584 18.7611C45.3255 18.7665 45.2942 18.7722 45.2616 18.7778C45.0685 18.8098 44.8811 18.8446 44.6986 18.8815C44.6598 18.8894 44.6199 18.8968 44.5814 18.9049C44.3841 18.9465 44.1936 18.9913 44.0088 19.0388C43.9933 19.0429 43.9762 19.0461 43.9609 19.0502C43.937 19.0563 43.9158 19.0638 43.8922 19.0701C43.7195 19.1163 43.5512 19.1651 43.3897 19.2165C43.3727 19.222 43.355 19.227 43.3384 19.2324C43.3318 19.2345 43.3248 19.2364 43.3182 19.2384C43.1534 19.2926 42.9964 19.3506 42.843 19.4103C42.807 19.4244 42.7712 19.4387 42.7359 19.453C42.5791 19.5167 42.4268 19.5827 42.2825 19.6527C42.2694 19.6591 42.2573 19.6659 42.2442 19.6723C42.11 19.7384 41.982 19.8078 41.8585 19.8793C41.8415 19.8892 41.8224 19.8979 41.8056 19.9078C41.7942 19.9145 41.7847 19.922 41.7736 19.9287C41.6454 20.0061 41.5228 20.0862 41.4063 20.1697C41.3846 20.1853 41.3639 20.2018 41.3424 20.2176C41.2376 20.2953 41.1375 20.3757 41.0425 20.4586C41.0264 20.4727 41.0094 20.4864 40.9935 20.5004C40.9857 20.5076 40.9768 20.5143 40.9687 20.5215C40.8753 20.607 40.7884 20.6964 40.7046 20.7872C40.6839 20.8097 40.664 20.8326 40.6439 20.8552C40.5562 20.9549 40.4721 21.0569 40.3954 21.1633C40.3936 21.1657 40.3913 21.1679 40.3896 21.1706C40.3891 21.1711 40.3887 21.1719 40.3882 21.1724C40.3098 21.282 40.2395 21.396 40.1726 21.5125C40.1578 21.5389 40.1426 21.5651 40.1283 21.5915C40.0651 21.7079 40.0064 21.8269 39.9546 21.9502C39.9467 21.9686 39.9402 21.9875 39.9326 22.0061C39.8866 22.1198 39.8456 22.2365 39.8086 22.3561C39.8008 22.3811 39.7926 22.406 39.7851 22.4315C39.7805 22.447 39.7749 22.4622 39.7705 22.478C39.7382 22.5949 39.7112 22.7154 39.6874 22.8378C39.6852 22.8492 39.6816 22.8597 39.6794 22.8711C39.6471 23.0422 39.6039 23.2705 39.5714 23.4416C39.5558 23.525 39.5347 23.636 39.5191 23.7192C39.4883 23.881 39.4475 24.0971 39.4169 24.2589C39.3873 24.4151 39.3481 24.6234 39.3185 24.7797C39.304 24.8555 39.2851 24.9569 39.2706 25.033C39.2425 25.1811 39.2054 25.3785 39.1773 25.5267C39.0366 26.2709 38.8958 27.0149 38.7553 27.7591C38.7487 27.794 38.746 27.8315 38.7404 27.8668C38.7301 27.9284 38.7219 27.9915 38.714 28.0546C38.7073 28.1086 38.6967 28.1603 38.6916 28.2157C38.6862 28.2736 38.6864 28.3355 38.6826 28.395C38.6787 28.4604 38.6747 28.5262 38.6729 28.5935C38.6719 28.6298 38.6677 28.6643 38.6674 28.7013C38.6667 28.7919 38.6728 28.8873 38.6757 28.9806C38.6778 29.0413 38.6775 29.1002 38.6811 29.1621C38.6823 29.1809 38.6816 29.1983 38.6828 29.2174C38.6943 29.3946 38.7125 29.5767 38.7373 29.764C38.8188 30.3829 38.9555 30.9457 39.1522 31.4514C39.3501 31.9606 39.6081 32.4112 39.9302 32.8026C40.2541 33.1964 40.642 33.5297 41.0982 33.8028C41.556 34.077 42.0821 34.2898 42.6793 34.4414L44.4369 30.626L44.7192 29.9263C44.7429 29.919 44.7641 29.9102 44.7901 29.904C44.859 29.8878 44.9343 29.875 45.0164 29.8678C45.0682 29.8632 45.1222 29.8608 45.1783 29.8598C45.2344 29.8591 45.2925 29.8605 45.3522 29.8638C45.4119 29.867 45.473 29.8721 45.5356 29.8795C45.5981 29.887 45.6618 29.8963 45.7265 29.9081C45.8995 29.9387 46.0624 29.9821 46.2089 30.0344C46.3555 30.0867 46.4859 30.1479 46.5933 30.2141C46.7011 30.2803 46.7859 30.3517 46.8414 30.4239C46.8972 30.4963 46.9235 30.5698 46.9143 30.6407C46.9131 30.6744 46.9057 30.86 46.8951 31.1394C46.8845 31.4198 46.8709 31.7949 46.8569 32.2061C46.8428 32.6193 46.8285 33.0695 46.817 33.4956C46.8058 33.918 46.7971 34.3158 46.7943 34.6311C46.7932 34.6322 46.7918 34.6333 46.7909 34.6343C46.7867 34.6384 46.7835 34.6434 46.7796 34.6475C46.7632 34.6646 46.7492 34.6837 46.7336 34.7015C46.7002 34.74 46.6678 34.7791 46.6384 34.8207C46.6326 34.8287 46.6255 34.8355 46.6197 34.8437L45.8237 36.0125C45.7487 35.6777 45.6331 35.4047 45.483 35.19C45.3092 34.942 45.0931 34.7657 44.8525 34.6436C44.6123 34.5216 44.3476 34.4533 44.077 34.4215C43.8065 34.3895 43.5294 34.3939 43.2647 34.417C43.0174 34.4387 42.7899 34.4775 42.5795 34.5304C42.369 34.5831 42.1755 34.6498 41.997 34.7271C41.8183 34.8044 41.6544 34.8923 41.5034 34.9875C41.3519 35.0828 41.2132 35.1855 41.0848 35.2919L40.9996 34.69L39.1148 34.8549L38.7322 36.2212L38.5656 34.903L38.4526 34.9129L38.5279 34.6054L38.378 33.4178L36.5127 33.5809L36.1631 36.2339C36.1257 36.1445 36.0857 36.0597 36.0398 35.9844C35.8938 35.7443 35.707 35.5727 35.5 35.4524C35.2936 35.3322 35.0665 35.263 34.8398 35.2284C34.6132 35.1938 34.3865 35.1938 34.1805 35.2118C33.894 35.2368 33.6363 35.283 33.4036 35.3459C33.171 35.409 32.9631 35.4886 32.777 35.5807C32.5907 35.6731 32.4258 35.7778 32.279 35.8905C32.1321 36.0036 32.0029 36.1248 31.8885 36.2494C31.7817 36.0909 31.6544 35.9656 31.5138 35.868C31.3738 35.7706 31.2204 35.7002 31.0623 35.6514C30.9527 35.6177 30.8407 35.5972 30.7288 35.5819L30.528 33.0029L37.3527 32.4059L38.0335 28.2608L37.8912 27.1515L38.5092 23.0848L38.0232 19.5103L24.4419 20.6985L24.6557 25.6481L23.0585 20.8195L18.2871 21.2369L18.2966 27.0574C18.2971 27.3783 18.2655 27.6958 18.1714 27.9959C18.0769 28.2973 17.92 28.581 17.6703 28.8329C17.4199 29.0855 17.0767 29.3057 16.6106 29.479C16.2054 29.6298 15.7013 29.7423 15.0926 29.8124L15.1497 26.7731L11.6801 21.815L6.90864 22.2324L6.47306 28.0918C6.46315 28.223 6.4563 28.3521 6.4515 28.4791C6.44987 28.523 6.45033 28.5652 6.44915 28.6086C6.44737 28.6905 6.44514 28.773 6.44545 28.8533C6.44568 28.9042 6.44773 28.9533 6.44889 29.0034C6.45037 29.0744 6.45139 29.1456 6.45496 29.2149C6.4573 29.2672 6.46172 29.3177 6.46545 29.3689C6.46934 29.4247 6.47184 29.4817 6.47688 29.5364C6.4777 29.5458 6.47921 29.5546 6.48001 29.5638C6.48513 29.6165 6.49208 29.6676 6.4981 29.7193C6.50542 29.7803 6.51228 29.8416 6.52123 29.9013C6.52865 29.9521 6.53822 30.0017 6.54682 30.0517C6.55713 30.1099 6.56698 30.1685 6.57867 30.2254C6.58871 30.2747 6.60059 30.3224 6.61177 30.3707C6.62485 30.4265 6.63769 30.4823 6.6524 30.5367C6.66524 30.584 6.67946 30.63 6.6932 30.6763C6.70471 30.7141 6.71458 30.753 6.72654 30.7902C6.7316 30.8055 6.73758 30.8199 6.74287 30.8348C6.7476 30.8491 6.75142 30.8644 6.7564 30.8786C6.7673 30.9095 6.78003 30.9385 6.79139 30.9688C6.81056 31.0203 6.82999 31.0718 6.85078 31.122C6.86902 31.1656 6.88816 31.2082 6.90757 31.251C6.92969 31.2993 6.95208 31.3478 6.9756 31.395C6.99669 31.4371 7.01893 31.4782 7.04117 31.5192C7.06604 31.5648 7.09114 31.6101 7.11765 31.6545C7.14155 31.6947 7.16664 31.7343 7.19193 31.7733C7.20719 31.7971 7.22078 31.8218 7.23649 31.845C7.24934 31.864 7.26408 31.8819 7.27716 31.9006C7.30414 31.939 7.33206 31.9769 7.36018 32.0142C7.39106 32.0545 7.4224 32.0945 7.45467 32.1337C7.48444 32.1699 7.5149 32.2055 7.54609 32.2408C7.57999 32.2789 7.61485 32.3163 7.6504 32.3532C7.68271 32.3872 7.71569 32.4204 7.74964 32.4532C7.78685 32.4892 7.82525 32.5247 7.86435 32.5595C7.8994 32.5908 7.93468 32.6217 7.97115 32.6521C7.9875 32.6656 8.00247 32.6804 8.01904 32.6937C8.2175 32.8536 8.42828 33.0236 8.64387 33.1974L9.34201 33.7603C9.61162 33.9776 9.8847 34.1976 10.1597 34.4192L10.9771 35.0781C11.2154 35.2701 11.4489 35.4585 11.6752 35.6411L12.3003 36.1448C12.3193 36.1603 12.3404 36.1741 12.3601 36.1893C12.3817 36.2063 12.4022 36.2241 12.4243 36.2403C12.4407 36.2526 12.4586 36.2632 12.475 36.2752C12.5103 36.3002 12.5462 36.3244 12.5824 36.3486C12.6228 36.3751 12.6636 36.4014 12.7053 36.4268C12.7431 36.4496 12.7814 36.4721 12.8204 36.4941C12.8638 36.5186 12.9077 36.5426 12.9524 36.5658C12.9926 36.5867 13.0331 36.607 13.0741 36.6268C13.1206 36.649 13.168 36.6708 13.2161 36.6919C13.2393 36.7021 13.2612 36.7133 13.285 36.7234C13.2976 36.7288 13.3114 36.7333 13.3243 36.7386C13.2055 36.8127 13.092 36.8907 12.9894 36.977C12.6919 37.228 12.4621 37.5313 12.3027 37.8888C12.1424 38.2479 12.0526 38.662 12.0357 39.1331C12.0311 39.2601 12.033 39.3815 12.0393 39.499C12.0415 39.5376 12.0469 39.5737 12.0502 39.6115C12.0569 39.6882 12.0643 39.7646 12.0759 39.8372C12.0776 39.8487 12.0778 39.8616 12.0798 39.8731C12.0849 39.9033 12.0942 39.9301 12.1 39.9596C12.1133 40.0238 12.1271 40.0875 12.1444 40.1482C12.1559 40.1889 12.1692 40.2278 12.1823 40.2669C12.1931 40.2986 12.2013 40.3324 12.2131 40.3632C12.2225 40.3872 12.2347 40.4083 12.245 40.4317C12.2529 40.4504 12.2584 40.4713 12.267 40.4895C12.2753 40.5079 12.2868 40.5235 12.2959 40.5414C12.3212 40.5926 12.3489 40.6414 12.3779 40.6891C12.3979 40.7222 12.418 40.755 12.4399 40.7864C12.4723 40.8333 12.508 40.8771 12.5441 40.9205C12.5607 40.9401 12.5744 40.9626 12.5919 40.9817C12.5986 40.989 12.6068 40.9948 12.6136 41.0021C12.6564 41.0474 12.7028 41.0888 12.7498 41.1297C12.7724 41.1493 12.7932 41.1709 12.817 41.1897C12.8215 41.1933 12.8251 41.1974 12.8297 41.201C12.8987 41.2544 12.9719 41.3037 13.0492 41.3489C13.4216 41.5669 13.8379 41.8107 14.2663 42.0613L15.255 42.6399C15.3181 42.6769 15.3805 42.7134 15.4431 42.75L16.6603 43.4624C16.7213 43.4981 16.7858 43.5302 16.8528 43.5599C16.8748 43.5697 16.8983 43.5776 16.921 43.5868C16.9573 43.6012 16.9928 43.617 17.0307 43.6299C17.0409 43.6335 17.0526 43.6359 17.0631 43.6392C17.0912 43.6485 17.1205 43.6563 17.1496 43.6645C17.1957 43.6776 17.2428 43.6899 17.291 43.7008C17.3049 43.7038 17.3175 43.7082 17.3314 43.7112C17.3494 43.7149 17.3692 43.7169 17.3874 43.7202C17.4119 43.7248 17.435 43.7307 17.46 43.7348C17.4852 43.7388 17.512 43.7409 17.5374 43.7444C17.5711 43.7489 17.6053 43.7534 17.6397 43.7568C17.6932 43.7626 17.7482 43.7665 17.8034 43.7696C17.8379 43.7718 17.8717 43.7743 17.9068 43.7752C17.9201 43.7758 17.9326 43.7772 17.9458 43.7775C17.9949 43.7785 18.0462 43.777 18.0966 43.7765C18.1274 43.7761 18.1573 43.7767 18.1886 43.776C18.2852 43.7727 18.3837 43.7673 18.4851 43.7585C18.7301 43.737 18.9524 43.6999 19.1538 43.6487C19.3549 43.5973 19.5353 43.5318 19.6973 43.4535C19.859 43.3752 20.0022 43.2844 20.129 43.1821C20.136 43.1765 20.1416 43.17 20.1486 43.1644L20.5998 43.5053L21.5991 43.4179L21.5781 42.4086C21.789 42.5995 22.0001 42.7906 22.211 42.9815C22.2132 42.9833 22.2155 42.9846 22.2176 42.9864C22.2546 43.0192 22.2938 43.0493 22.3359 43.0767C22.3454 43.0831 22.3561 43.0884 22.3661 43.0945C22.391 43.1097 22.4155 43.1252 22.4421 43.1388C22.4478 43.1418 22.4546 43.1432 22.4606 43.1459C22.4707 43.151 22.4792 43.1572 22.4896 43.1617C22.5512 43.1902 22.6174 43.2132 22.6858 43.2336C22.7019 43.2384 22.7186 43.2419 22.7351 43.2464C22.7677 43.255 22.7994 43.2649 22.8333 43.2719C22.8769 43.281 22.9224 43.2872 22.9677 43.2934C22.9771 43.2949 22.985 43.2976 22.9943 43.2991C22.9983 43.2995 23.0026 43.2993 23.0066 43.2997C23.0777 43.3087 23.1509 43.3152 23.2257 43.3181C23.2387 43.3187 23.2524 43.3168 23.2652 43.3171C23.3905 43.3203 23.5186 43.3183 23.6503 43.3068C23.8236 43.2917 23.9967 43.27 24.1684 43.2384C24.3402 43.2067 24.5101 43.165 24.6775 43.109C24.8446 43.0534 25.0088 42.9836 25.169 42.896C25.2501 42.8516 25.3304 42.8023 25.4094 42.7484L25.6562 43.063L27.256 42.923L27.2132 42.1324L27.6549 42.8881L29.2564 42.748L29.1158 40.6122C29.1946 40.5236 29.274 40.4448 29.3547 40.3758C29.4357 40.3071 29.518 40.2479 29.6032 40.1989C29.6884 40.1497 29.7763 40.1107 29.8679 40.0815C29.9594 40.0527 30.0547 40.0336 30.1549 40.0249C30.221 40.0191 30.2808 40.0186 30.3373 40.0213C30.355 40.0223 30.3709 40.0249 30.388 40.0266C30.4253 40.0303 30.4611 40.0359 30.4944 40.0439C30.5005 40.0453 30.5061 40.0473 30.512 40.0491L30.5294 40.282L31.1118 42.5856L32.7133 42.4455L32.5293 40.3136C32.6058 40.2251 32.6835 40.1465 32.763 40.0776C32.8422 40.009 32.9233 39.95 33.0078 39.9011C33.0918 39.8519 33.1791 39.813 33.27 39.7839C33.3612 39.755 33.4563 39.736 33.5565 39.7273C33.7008 39.7146 33.822 39.7219 33.9237 39.7506C34.0251 39.779 34.1073 39.8287 34.1733 39.901C34.2393 39.9733 34.2894 40.0681 34.3271 40.1867C34.3648 40.3054 34.39 40.4482 34.4064 40.6163L34.5687 42.2832L36.1682 42.1433L36.4729 40.6247L36.635 42.1024L38.2345 41.9625L38.5909 41.0152L38.7013 41.9217L40.3031 41.7815L41.6532 39.3088L41.6187 39.0644C41.6393 39.0673 41.6635 39.0675 41.683 39.0717C41.8111 39.0978 41.9162 39.1455 42.0021 39.2161C42.0881 39.2866 42.155 39.38 42.2065 39.4973C42.2581 39.6149 42.2941 39.7566 42.3184 39.9241L42.5591 41.5841L44.1606 41.444L44.8918 40.5835C44.9433 40.6262 44.9965 40.6663 45.0522 40.703C45.1796 40.7861 45.3195 40.8514 45.468 40.9033L44.9884 41.4263L45.1961 42.7288C45.2961 42.7459 45.4346 42.7666 45.6047 42.7867C45.7748 42.8069 45.9761 42.8261 46.2011 42.8402C46.4261 42.8544 46.675 42.8632 46.9391 42.8619C47.2036 42.8609 47.4838 42.8501 47.7717 42.8249C47.9052 42.8132 48.0343 42.7947 48.1609 42.7722C48.1744 42.7698 48.189 42.769 48.2024 42.7666C48.2103 42.7651 48.2172 42.7623 48.2251 42.7609C48.3451 42.7374 48.4609 42.7087 48.5723 42.6745C48.5822 42.6717 48.5933 42.67 48.6029 42.6669C48.6146 42.6634 48.6245 42.6578 48.6361 42.6538C48.669 42.6432 48.703 42.6338 48.7348 42.622C48.8118 42.5934 48.8858 42.5616 48.9574 42.5272C48.9603 42.5257 48.9634 42.525 48.9658 42.5238C48.9727 42.5204 48.978 42.5157 48.985 42.5124C49.0815 42.4644 49.1717 42.4103 49.2562 42.3509C49.2649 42.3449 49.2753 42.3408 49.2837 42.3346C49.4807 42.1913 49.6929 42.0368 49.911 41.8782L50.2125 41.6589C50.4996 41.4501 50.7938 41.2359 51.0876 41.0222L51.6243 40.6317C51.7264 40.5574 51.8265 40.4847 51.9258 40.4124L52.5532 39.956C52.559 39.9517 52.5638 39.9466 52.5696 39.9421C52.6298 39.8973 52.6863 39.8491 52.7403 39.7991C52.7523 39.7881 52.7659 39.7785 52.7775 39.767C52.7789 39.7657 52.7806 39.7645 52.7819 39.7632C52.8444 39.702 52.9016 39.6366 52.9548 39.5676C52.9575 39.5643 52.9607 39.5616 52.9632 39.5584C52.9761 39.5413 52.9855 39.5216 52.9979 39.5041C53.0344 39.4522 53.0698 39.3991 53.1009 39.343C53.117 39.3137 53.1307 39.2824 53.1452 39.2521C53.17 39.2002 53.1937 39.1476 53.214 39.0924C53.2194 39.0778 53.2272 39.0646 53.2324 39.0495C53.2393 39.0293 53.2425 39.0061 53.2486 38.9852C53.2575 38.9561 53.2691 38.929 53.2766 38.899C53.2835 38.872 53.2861 38.8422 53.2919 38.8144C53.2997 38.7759 53.3072 38.7372 53.3129 38.6972C53.3222 38.6352 53.3278 38.571 53.3317 38.5056C53.3335 38.4781 53.3391 38.453 53.3398 38.4246C53.3402 38.4116 53.3381 38.3969 53.3382 38.3837C53.3393 38.3105 53.3351 38.234 53.3298 38.1567C53.3272 38.1191 53.3269 38.0833 53.3227 38.0447C53.3105 37.9272 53.2921 37.8057 53.2651 37.6785L52.4148 33.6913L50.5301 33.8562L50.2142 34.2297C50.0859 34.1648 49.9475 34.1113 49.8002 34.0677C49.8171 34.062 49.8333 34.0562 49.8499 34.0505C49.8946 34.0351 49.9411 34.0206 49.9847 34.0049C49.9999 33.9993 50.0142 33.9931 50.0294 33.9875C50.0441 33.982 50.0596 33.9772 50.074 33.9717C50.1104 33.9581 50.1441 33.9432 50.1797 33.9291C50.2361 33.9068 50.2929 33.8844 50.3478 33.8612C50.396 33.8409 50.4428 33.8196 50.4895 33.7986C50.543 33.7743 50.5964 33.7502 50.6479 33.7253C50.6932 33.7032 50.737 33.6807 50.781 33.658C50.8309 33.6322 50.8809 33.6062 50.9292 33.5794C50.9714 33.5561 51.0126 33.5321 51.0535 33.5079C51.1005 33.4801 51.1471 33.4522 51.1921 33.4236C51.2088 33.4132 51.2268 33.4034 51.2433 33.3928C51.2657 33.3782 51.2862 33.3625 51.3082 33.3476C51.3516 33.3182 51.3943 33.2888 51.4359 33.2586C51.4729 33.232 51.5088 33.205 51.5442 33.1775C51.5843 33.1467 51.6233 33.1157 51.6616 33.084C51.6959 33.0556 51.7292 33.0268 51.7622 32.9979C51.7986 32.9653 51.8343 32.9326 51.8692 32.8995C51.9006 32.8694 51.9315 32.8391 51.9616 32.8084C51.9769 32.7926 51.994 32.7777 52.009 32.7617C52.0266 32.7433 52.042 32.7235 52.059 32.7046C52.0749 32.6873 52.0921 32.6709 52.1072 32.6534L52.8215 31.8351C53.1647 31.4416 53.5228 31.0312 53.8839 30.6175L55.0085 29.3285C55.2571 29.0439 55.4986 28.7667 55.7228 28.5102C55.7379 28.4927 55.7515 28.4741 55.7663 28.4564C55.7972 28.4199 55.8268 28.383 55.8561 28.3456C55.888 28.3048 55.9195 28.2635 55.9496 28.2218C55.9771 28.1836 56.0041 28.145 56.0305 28.1056C56.0586 28.0634 56.0862 28.0204 56.1127 27.9771C56.1373 27.9369 56.1614 27.8965 56.1846 27.8555C56.2093 27.8113 56.2333 27.7667 56.2564 27.7216C56.2779 27.68 56.2988 27.6379 56.3187 27.5954C56.3277 27.5759 56.3383 27.5573 56.347 27.5379C56.3591 27.511 56.369 27.4828 56.3803 27.4555C56.3985 27.4126 56.4165 27.3693 56.4331 27.3255C56.4513 27.2775 56.4684 27.2285 56.4847 27.1793C56.4997 27.135 56.5145 27.0909 56.528 27.0458C56.5429 26.9952 56.5566 26.9438 56.5697 26.8924C56.5814 26.8469 56.5934 26.8016 56.6038 26.7557C56.6155 26.7027 56.6255 26.6489 56.6355 26.5951C56.6416 26.5625 56.6495 26.5307 56.6548 26.4974C56.6573 26.4835 56.6582 26.469 56.6605 26.4549C56.6627 26.4403 56.6659 26.4263 56.6681 26.4115C56.6739 26.3719 56.677 26.3309 56.6817 26.2907C56.6874 26.243 56.6935 26.1952 56.6979 26.1466C56.703 26.0907 56.706 26.034 56.7092 25.9773V25.9773Z" clip-rule="evenodd" fill-rule="evenodd"></path>
</g>
<path fill="white" d="M15.5722 36.0855C16.1192 36.0377 16.6004 36.0416 17.0159 36.0967C17.4317 36.1518 17.7824 36.2586 18.0677 36.4162C18.3535 36.5741 18.5742 36.7836 18.729 37.044C18.8846 37.3056 18.9742 37.6187 18.9974 37.9839L16.8926 38.168C16.8735 38.1003 16.834 38.0359 16.7721 37.9787C16.7101 37.9212 16.6257 37.8709 16.5166 37.8315C16.4075 37.7921 16.2734 37.7635 16.1126 37.7495C15.9518 37.7355 15.7641 37.7362 15.547 37.7552C15.2431 37.7818 15.0017 37.834 14.8103 37.9074C14.6188 37.9811 14.4775 38.076 14.3736 38.1878C14.2696 38.2998 14.2031 38.4292 14.1615 38.5711C14.12 38.7132 14.1035 38.8683 14.0997 39.0319C14.0957 39.1973 14.1053 39.3576 14.1411 39.5031C14.1768 39.649 14.2387 39.78 14.3393 39.8871C14.4402 39.9944 14.58 40.0776 14.7708 40.1273C14.9621 40.1769 15.2044 40.193 15.5106 40.1662C15.7112 40.1487 15.8922 40.1259 16.0519 40.0957C16.2118 40.0658 16.3508 40.0283 16.467 39.9814C16.5835 39.9344 16.6772 39.8777 16.7471 39.8094C16.8166 39.7409 16.8626 39.6611 16.8827 39.5671L15.3812 39.6985L15.3986 38.6078L18.9993 38.2927L19.0166 41.2898L17.8072 41.3956L17.6543 40.6054C17.5356 40.7525 17.3998 40.888 17.2449 41.0099C17.0895 41.1322 16.9146 41.2412 16.7177 41.3348C16.5203 41.4286 16.3009 41.5072 16.0567 41.5689C15.8122 41.6305 15.5429 41.6752 15.2463 41.7012C14.725 41.7468 14.2588 41.7289 13.8535 41.6458C13.4487 41.5631 13.1056 41.4153 12.8298 41.2013C12.5549 40.9879 12.3475 40.7092 12.2133 40.3635C12.0795 40.0194 12.0186 39.6098 12.0359 39.1337C12.0528 38.6623 12.1426 38.2482 12.3029 37.8894C12.4623 37.5318 12.6919 37.2286 12.9896 36.9775C13.2864 36.7273 13.6512 36.5288 14.0823 36.3807C14.5128 36.2327 15.01 36.1347 15.5722 36.0855" clip-rule="evenodd" fill-rule="evenodd"></path>
<mask height="6" width="8" y="36" x="12" maskUnits="userSpaceOnUse" style="mask-type:alpha" id="mask1_431_13653">
<path fill="white" d="M14.0832 36.3807C13.6522 36.5288 13.2874 36.7273 12.9906 36.9775V36.9775C12.6928 37.2286 12.4633 37.5318 12.3039 37.8894V37.8894C12.1436 38.2485 12.0538 38.6623 12.0368 39.1337V39.1337C12.0196 39.6098 12.0805 40.0196 12.2143 40.3637V40.3637C12.3485 40.7092 12.5558 40.9879 12.8308 41.2013V41.2013C13.1066 41.4153 13.4497 41.5628 13.8545 41.6458V41.6458C14.2598 41.7289 14.726 41.7465 15.2471 41.7009V41.7009C15.5439 41.675 15.8132 41.6305 16.0577 41.5689V41.5689C16.3019 41.5072 16.5212 41.4286 16.7186 41.3348V41.3348C16.9158 41.2412 17.0905 41.1322 17.2456 41.01V41.01C17.4008 40.8877 17.5364 40.7526 17.6552 40.6054V40.6054L17.8082 41.3956L19.0176 41.2898L19.0003 38.293L15.3994 38.608L15.3821 39.6985L16.8839 39.5671C16.8633 39.6611 16.8176 39.7412 16.748 39.8094V39.8094C16.6782 39.8777 16.5844 39.9344 16.468 39.9814V39.9814C16.3515 40.0283 16.2128 40.0656 16.0531 40.0957V40.0957C15.8929 40.1259 15.7121 40.1487 15.5116 40.1662V40.1662C15.2054 40.193 14.9631 40.1769 14.7717 40.127V40.127C14.581 40.0776 14.4412 39.9944 14.3405 39.8871V39.8871C14.2399 39.78 14.1777 39.649 14.1419 39.5032V39.5032C14.1065 39.3576 14.0967 39.1973 14.1006 39.0319V39.0319C14.1045 38.8683 14.121 38.7134 14.1625 38.5713V38.5713C14.204 38.4289 14.2705 38.2998 14.3746 38.188V38.188C14.4784 38.076 14.6198 37.9809 14.8112 37.9074V37.9074C15.0027 37.834 15.244 37.7818 15.5482 37.7552V37.7552C15.7651 37.7362 15.9528 37.7355 16.1136 37.7495V37.7495C16.2744 37.7635 16.4085 37.7923 16.5173 37.8315V37.8315C16.6267 37.8709 16.7111 37.9212 16.7731 37.9784V37.9784C16.835 38.0359 16.8745 38.1003 16.8933 38.1681V38.1681L18.9984 37.9839C18.9751 37.6187 18.8856 37.3056 18.7302 37.044V37.044C18.5751 36.7836 18.3544 36.5741 18.0686 36.4162V36.4162C17.7834 36.2586 17.4329 36.1521 17.0169 36.0967V36.0967C16.6014 36.0418 16.1202 36.0377 15.5732 36.0855V36.0855C15.0109 36.1347 14.5136 36.2327 14.0832 36.3807" clip-rule="evenodd" fill-rule="evenodd"></path>
</mask>
<g mask="url(#mask1_431_13653)">
<path fill="white" d="M15.5732 36.0855C16.1202 36.0377 16.6014 36.0416 17.0169 36.0967C17.4327 36.1518 17.7834 36.2586 18.0686 36.4162C18.3544 36.5741 18.5751 36.7836 18.7299 37.044C18.8856 37.3056 18.9751 37.6187 18.9984 37.9839L16.8936 38.168C16.8745 38.1003 16.835 38.0359 16.7731 37.9787C16.7111 37.9212 16.6267 37.8709 16.5176 37.8315C16.4084 37.7921 16.2744 37.7635 16.1136 37.7495C15.9528 37.7355 15.7651 37.7362 15.548 37.7552C15.244 37.7818 15.0027 37.834 14.8112 37.9074C14.6198 37.9811 14.4784 38.076 14.3746 38.1878C14.2705 38.2998 14.204 38.4292 14.1625 38.5711C14.121 38.7132 14.1045 38.8683 14.1006 39.0319C14.0967 39.1973 14.1063 39.3576 14.1421 39.5031C14.1777 39.649 14.2397 39.78 14.3403 39.8871C14.4412 39.9944 14.581 40.0776 14.7718 40.1273C14.9631 40.1769 15.2054 40.193 15.5116 40.1662C15.7121 40.1487 15.8931 40.1259 16.0528 40.0957C16.2128 40.0658 16.3517 40.0283 16.468 39.9814C16.5844 39.9344 16.6782 39.8777 16.748 39.8094C16.8176 39.7409 16.8636 39.6611 16.8837 39.5671L15.3821 39.6985L15.3996 38.6078L19.0003 38.2927L19.0176 41.2898L17.8082 41.3956L17.6552 40.6054C17.5366 40.7525 17.4008 40.888 17.2459 41.0099C17.0905 41.1322 16.9156 41.2412 16.7186 41.3348C16.5212 41.4286 16.3019 41.5072 16.0577 41.5689C15.8132 41.6305 15.5439 41.6752 15.2473 41.7012C14.726 41.7468 14.2598 41.7289 13.8545 41.6458C13.4497 41.5631 13.1066 41.4153 12.8308 41.2013C12.5558 40.9879 12.3485 40.7092 12.2143 40.3635C12.0805 40.0194 12.0196 39.6098 12.0368 39.1337C12.0538 38.6623 12.1436 38.2482 12.3039 37.8894C12.4633 37.5318 12.6928 37.2286 12.9906 36.9775C13.2874 36.7273 13.6522 36.5288 14.0832 36.3807C14.5138 36.2327 15.0109 36.1347 15.5732 36.0855" clip-rule="evenodd" fill-rule="evenodd"></path>
</g>
<path fill="white" d="M23.8734 39.3093L23.8665 39.1137C23.7901 39.101 23.7064 39.0912 23.6154 39.0845C23.5245 39.0778 23.4262 39.074 23.3205 39.0733C23.2148 39.0726 23.1014 39.075 22.98 39.0804C22.8587 39.0861 22.7297 39.0949 22.5923 39.1069C22.3702 39.1263 22.1802 39.1479 22.0196 39.1739C21.8593 39.2001 21.7285 39.2309 21.6259 39.2685C21.5233 39.3061 21.4484 39.3507 21.3996 39.4044C21.3509 39.4581 21.328 39.5211 21.3296 39.5957C21.3308 39.6603 21.3458 39.7102 21.3752 39.7476C21.4046 39.7853 21.4484 39.8111 21.5075 39.8273C21.5666 39.8435 21.6407 39.8502 21.7307 39.8503C21.821 39.8503 21.9271 39.8436 22.0499 39.8328C22.2123 39.8186 22.3777 39.7942 22.5422 39.7619C22.7067 39.7294 22.8699 39.6887 23.0277 39.6423C23.1855 39.596 23.3378 39.5436 23.4801 39.4874C23.6226 39.4312 23.755 39.3711 23.8734 39.3093M22.6005 36.2258C23.0828 36.1836 23.5146 36.1853 23.8922 36.2391C24.2703 36.2927 24.5948 36.3984 24.8619 36.5639C25.1297 36.7297 25.3404 36.9557 25.4905 37.2501C25.6409 37.5457 25.7305 37.9105 25.7551 38.3534L25.8639 40.691L23.9278 40.8604L23.9076 40.2802C23.7247 40.4314 23.5353 40.5571 23.3409 40.6617C23.1462 40.7665 22.9466 40.85 22.7439 40.9168C22.5409 40.9837 22.3345 41.0339 22.1265 41.072C21.9185 41.11 21.709 41.1361 21.499 41.1545C21.2222 41.1787 20.9536 41.1776 20.7062 41.146C20.4588 41.1144 20.2328 41.0527 20.0411 40.9553C19.8499 40.8582 19.6928 40.7257 19.5833 40.5531C19.474 40.3809 19.4117 40.1691 19.4096 39.9124C19.4071 39.6056 19.495 39.3486 19.6495 39.1334C19.8038 38.9188 20.0246 38.7458 20.2891 38.6071C20.5532 38.4686 20.8611 38.3641 21.1897 38.2867C21.518 38.2094 21.8674 38.159 22.2148 38.1286C22.3811 38.114 22.538 38.1055 22.6864 38.1028C22.8351 38.0999 22.9753 38.1031 23.1086 38.1116C23.2418 38.1198 23.3681 38.1339 23.4888 38.1529C23.6096 38.1719 23.7248 38.1964 23.8358 38.2254C23.8308 38.0862 23.7895 37.9839 23.7201 37.9094C23.651 37.8351 23.5539 37.7887 23.4377 37.7613C23.3214 37.7339 23.1859 37.7257 23.0399 37.7277C22.8939 37.7296 22.7374 37.742 22.5787 37.7559C22.4262 37.7692 22.2686 37.7863 22.1043 37.8086C21.9399 37.8309 21.7685 37.8584 21.5893 37.8924C21.41 37.9265 21.2226 37.967 21.0257 38.0156C20.8288 38.0639 20.6222 38.1203 20.4047 38.186L19.7717 36.9359C20.0066 36.8415 20.2466 36.7544 20.4876 36.6761C20.7289 36.5979 20.9712 36.5279 21.2115 36.4676C21.4519 36.4073 21.6901 36.3564 21.9227 36.3157C22.1553 36.2752 22.3824 36.2449 22.6005 36.2258" clip-rule="evenodd" fill-rule="evenodd"></path>
<mask height="6" width="7" y="36" x="19" maskUnits="userSpaceOnUse" style="mask-type:alpha" id="mask2_431_13653">
<path fill="white" d="M21.9227 36.3152C21.6901 36.3559 21.4516 36.4068 21.2115 36.4671V36.4671C20.9712 36.5277 20.7287 36.5974 20.4877 36.6757V36.6757C20.2467 36.7542 20.0066 36.8408 19.7715 36.9355V36.9355L20.4047 38.1855C20.6222 38.12 20.8289 38.0636 21.0257 38.0151V38.0151C21.2226 37.9668 21.4098 37.9261 21.5893 37.892V37.892C21.7688 37.8581 21.9397 37.8305 22.1043 37.8081V37.8081C22.2684 37.7858 22.4263 37.7688 22.5785 37.7554V37.7554C22.7371 37.7416 22.8939 37.7291 23.0399 37.727V37.727C23.1859 37.7252 23.3214 37.7337 23.4377 37.7608V37.7608C23.5539 37.7882 23.6507 37.8347 23.7202 37.9091V37.9091C23.7893 37.9834 23.8308 38.0857 23.8358 38.225V38.225C23.7249 38.1959 23.6096 38.1717 23.4888 38.1524V38.1524C23.3681 38.1334 23.2416 38.1193 23.1086 38.1108V38.1108C22.9753 38.1026 22.8348 38.0995 22.6864 38.1025V38.1025C22.5377 38.1051 22.3811 38.1136 22.2148 38.1281V38.1281C21.8674 38.1585 21.5181 38.209 21.1897 38.2864V38.2864C20.8611 38.3636 20.5532 38.4681 20.2891 38.6066V38.6066C20.0246 38.7454 19.8035 38.9186 19.6495 39.1329V39.1329C19.4948 39.3481 19.4069 39.6052 19.4096 39.912V39.912C19.4117 40.1683 19.4737 40.3805 19.5833 40.5529V40.5529C19.6926 40.7253 19.8496 40.8577 20.0411 40.9548V40.9548C20.2329 41.0522 20.4588 41.114 20.7062 41.1455V41.1455C20.9536 41.1768 21.2222 41.1779 21.499 41.1537V41.1537C21.7087 41.1354 21.9185 41.1098 22.1265 41.0715V41.0715C22.3345 41.0334 22.5409 40.9832 22.7437 40.9165V40.9165C22.9467 40.8496 23.1462 40.766 23.3406 40.6612V40.6612C23.5351 40.5567 23.7247 40.4309 23.9074 40.2797V40.2797L23.9278 40.8599L25.8639 40.6905L25.7551 38.3529C25.7305 37.91 25.6409 37.5452 25.4903 37.2496V37.2496C25.3404 36.9552 25.1297 36.7292 24.8616 36.5632V36.5632C24.5946 36.3981 24.2704 36.2925 23.8922 36.2386V36.2386C23.5146 36.1848 23.0829 36.1831 22.6005 36.2253V36.2253C22.3824 36.2444 22.1553 36.2744 21.9227 36.3152M21.7307 39.8498C21.6405 39.8497 21.5663 39.8431 21.5072 39.8268V39.8268C21.4484 39.8106 21.4044 39.7851 21.375 39.7474V39.7474C21.3458 39.7097 21.3308 39.66 21.3296 39.5953V39.5953C21.3278 39.5208 21.3509 39.4577 21.3996 39.4037V39.4037C21.4483 39.3499 21.5233 39.3056 21.6256 39.268V39.268C21.7285 39.2304 21.8591 39.1999 22.0196 39.1734V39.1734C22.1799 39.1472 22.3702 39.1258 22.592 39.1064V39.1064C22.7295 39.0944 22.8587 39.0856 22.98 39.0799V39.0799C23.1011 39.0746 23.2148 39.0721 23.3203 39.0728V39.0728C23.4262 39.0735 23.5243 39.0773 23.6154 39.084V39.084C23.7064 39.0907 23.7901 39.1006 23.8665 39.1133V39.1133L23.8735 39.3088C23.755 39.3706 23.6223 39.4305 23.4801 39.4869V39.4869C23.3375 39.5429 23.1853 39.5955 23.0277 39.6419V39.6419C22.8699 39.6885 22.7064 39.7289 22.5422 39.7614V39.7614C22.3777 39.7937 22.2123 39.8181 22.0499 39.8323V39.8323C21.9271 39.8431 21.821 39.8499 21.7307 39.8498" clip-rule="evenodd" fill-rule="evenodd"></path>
</mask>
<g mask="url(#mask2_431_13653)">
<path fill="white" d="M23.8734 39.3088L23.8665 39.1133C23.7901 39.1006 23.7064 39.0907 23.6154 39.084C23.5245 39.0773 23.4262 39.0735 23.3205 39.0728C23.2148 39.0721 23.1014 39.0745 22.98 39.0799C22.8587 39.0856 22.7297 39.0944 22.5923 39.1064C22.3702 39.1258 22.1802 39.1474 22.0196 39.1734C21.8593 39.1996 21.7285 39.2304 21.6259 39.268C21.5233 39.3056 21.4484 39.3502 21.3996 39.4039C21.3509 39.4577 21.328 39.5206 21.3296 39.5953C21.3308 39.6598 21.3458 39.7097 21.3752 39.7472C21.4046 39.7849 21.4484 39.8106 21.5075 39.8268C21.5666 39.843 21.6407 39.8497 21.7307 39.8498C21.821 39.8499 21.9271 39.8431 22.0499 39.8323C22.2123 39.8181 22.3777 39.7937 22.5422 39.7614C22.7067 39.7289 22.8699 39.6882 23.0277 39.6419C23.1855 39.5955 23.3378 39.5431 23.4801 39.4869C23.6226 39.4307 23.755 39.3706 23.8734 39.3088M22.6005 36.2253C23.0828 36.1831 23.5146 36.1848 23.8922 36.2386C24.2703 36.2923 24.5948 36.3979 24.8619 36.5635C25.1297 36.7292 25.3404 36.9552 25.4905 37.2496C25.6409 37.5452 25.7305 37.91 25.7551 38.3529L25.8639 40.6905L23.9278 40.8599L23.9076 40.2797C23.7247 40.4309 23.5353 40.5566 23.3409 40.6612C23.1462 40.766 22.9466 40.8496 22.7439 40.9163C22.5409 40.9833 22.3345 41.0334 22.1265 41.0715C21.9185 41.1096 21.709 41.1356 21.499 41.154C21.2222 41.1782 20.9536 41.1771 20.7062 41.1455C20.4588 41.114 20.2328 41.0522 20.0411 40.9548C19.8499 40.8577 19.6928 40.7253 19.5833 40.5526C19.474 40.3804 19.4117 40.1686 19.4096 39.912C19.4071 39.6051 19.495 39.3481 19.6495 39.1329C19.8038 38.9183 20.0246 38.7454 20.2891 38.6066C20.5532 38.4681 20.8611 38.3636 21.1897 38.2862C21.518 38.209 21.8674 38.1585 22.2148 38.1281C22.3811 38.1136 22.538 38.1051 22.6864 38.1023C22.8351 38.0995 22.9753 38.1026 23.1086 38.1111C23.2418 38.1193 23.3681 38.1334 23.4888 38.1524C23.6096 38.1714 23.7248 38.1959 23.8358 38.225C23.8308 38.0857 23.7895 37.9834 23.7201 37.9089C23.651 37.8346 23.5539 37.7882 23.4377 37.7608C23.3214 37.7335 23.1859 37.7252 23.0399 37.7273C22.8939 37.7291 22.7374 37.7415 22.5787 37.7554C22.4262 37.7688 22.2686 37.7858 22.1043 37.8081C21.9399 37.8305 21.7685 37.8579 21.5893 37.892C21.41 37.926 21.2226 37.9665 21.0257 38.0151C20.8288 38.0634 20.6222 38.1198 20.4047 38.1855L19.7717 36.9354C20.0066 36.8411 20.2466 36.7539 20.4876 36.6757C20.7289 36.5974 20.9712 36.5274 21.2115 36.4671C21.4519 36.4068 21.6901 36.3559 21.9227 36.3152C22.1553 36.2747 22.3824 36.2444 22.6005 36.2253" clip-rule="evenodd" fill-rule="evenodd"></path>
</g>
<path fill="white" d="M34.1814 35.2125C34.3876 35.1945 34.6141 35.1946 34.8409 35.2292C35.0677 35.2638 35.2945 35.3329 35.5009 35.4531C35.7079 35.5735 35.8947 35.7451 36.0407 35.9852C36.1871 36.2257 36.2927 36.5354 36.3368 36.9313L36.6501 39.7473L34.714 39.9167L34.5165 37.9316C34.4965 37.732 34.466 37.5624 34.4204 37.4214C34.375 37.2805 34.3144 37.1682 34.2346 37.0824C34.155 36.9969 34.0559 36.938 33.9334 36.9044C33.8108 36.8706 33.6646 36.8621 33.4904 36.8773C33.3695 36.8879 33.2549 36.9106 33.1448 36.9451C33.035 36.9798 32.9299 37.0263 32.8283 37.0844C32.7265 37.1428 32.6285 37.2128 32.5325 37.2947C32.4365 37.3765 32.343 37.4699 32.2502 37.575L32.4688 40.1131L30.5303 40.2827L30.3823 38.2933C30.3673 38.0933 30.3413 37.9233 30.2996 37.782C30.2579 37.6407 30.2005 37.5281 30.1234 37.4421C30.0463 37.3564 29.9491 37.2973 29.8278 37.2636C29.7065 37.2297 29.5611 37.2211 29.3869 37.2363C29.266 37.2469 29.1511 37.2696 29.0405 37.3041C28.93 37.3389 28.8237 37.3855 28.7209 37.4437C28.6178 37.5022 28.5178 37.5724 28.4198 37.6546C28.3218 37.7365 28.2254 37.8302 28.1299 37.9355L28.2848 40.4792L26.3466 40.6488L26.1167 35.9929L28.0015 35.828L28.0477 36.5862C28.1465 36.4821 28.2537 36.3728 28.3769 36.2656C28.4998 36.1584 28.6385 36.0535 28.8007 35.9585C28.9627 35.8635 29.1482 35.7784 29.3648 35.711C29.5812 35.6433 29.8289 35.5933 30.1153 35.5683C30.2626 35.5554 30.4207 35.552 30.5814 35.564C30.742 35.5761 30.9053 35.6036 31.0632 35.6522C31.2216 35.701 31.3747 35.7713 31.515 35.8687C31.6553 35.9663 31.7828 36.0917 31.8894 36.2501C32.0038 36.1253 32.133 36.0043 32.2799 35.8913C32.4269 35.7785 32.5916 35.6738 32.7779 35.5815C32.9643 35.4893 33.1719 35.4098 33.4045 35.3466C33.6372 35.2838 33.8949 35.2376 34.1814 35.2125" clip-rule="evenodd" fill-rule="evenodd"></path>
<mask height="6" width="11" y="35" x="26" maskUnits="userSpaceOnUse" style="mask-type:alpha" id="mask3_431_13653">
<path fill="white" d="M33.405 35.3466C33.1721 35.4095 32.9645 35.4893 32.7784 35.5815V35.5815C32.5921 35.6738 32.4272 35.7785 32.2804 35.8913V35.8913C32.1334 36.0041 32.0043 36.1253 31.8897 36.2502V36.2502C31.7831 36.0914 31.6555 35.9663 31.5152 35.8687V35.8687C31.3751 35.7711 31.2218 35.701 31.0637 35.6522V35.6522C30.9055 35.6034 30.7423 35.5761 30.5816 35.5641V35.5641C30.4209 35.5518 30.2631 35.5554 30.1158 35.5683V35.5683C29.8294 35.5933 29.5817 35.6433 29.3653 35.7108V35.7108C29.1487 35.7784 28.963 35.8635 28.801 35.9585V35.9585C28.639 36.0535 28.5002 36.1581 28.3771 36.2654V36.2654C28.254 36.3726 28.1467 36.4822 28.0482 36.5862V36.5862L28.0017 35.8278L26.117 35.9927L26.3471 40.6488L28.2853 40.4792L28.1304 37.9355C28.2259 37.8302 28.3221 37.7365 28.4203 37.6543V37.6543C28.5183 37.5724 28.6181 37.5023 28.7211 37.4438V37.4438C28.8241 37.3853 28.9304 37.3387 29.0408 37.3042V37.3042C29.1514 37.2696 29.2665 37.2469 29.3871 37.2363V37.2363C29.5613 37.2211 29.707 37.2295 29.8281 37.2636V37.2636C29.9494 37.2973 30.0465 37.3562 30.1236 37.4421V37.4421C30.2008 37.5281 30.2581 37.6407 30.2998 37.7817V37.7817C30.3418 37.9233 30.3678 38.0933 30.3828 38.2933V38.2933L30.5305 40.2828L32.4693 40.1131L32.2507 37.575C32.3432 37.47 32.437 37.3765 32.533 37.2945V37.2945C32.6287 37.2128 32.7268 37.1428 32.8286 37.0844V37.0844C32.9304 37.026 33.0355 36.9795 33.1453 36.9451V36.9451C33.2552 36.9106 33.37 36.8879 33.4907 36.8773V36.8773C33.6649 36.8621 33.8113 36.8704 33.9336 36.9044V36.9044C34.0564 36.938 34.1552 36.9967 34.2351 37.0824V37.0824C34.3149 37.1682 34.3752 37.2805 34.4208 37.4212V37.4212C34.4663 37.5624 34.497 37.732 34.5167 37.9317V37.9317L34.7145 39.9167L36.6506 39.7473L36.3371 36.9313C36.2932 36.5352 36.1876 36.2257 36.0412 35.9849V35.9849C35.8952 35.7451 35.7084 35.5735 35.5014 35.4531V35.4531C35.295 35.3329 35.0679 35.2636 34.8412 35.2292V35.2292C34.6144 35.1946 34.3879 35.1945 34.1819 35.2125V35.2125C33.8954 35.2376 33.6374 35.2835 33.405 35.3466" clip-rule="evenodd" fill-rule="evenodd"></path>
</mask>
<g mask="url(#mask3_431_13653)">
<path fill="white" d="M34.1819 35.2125C34.3881 35.1945 34.6146 35.1946 34.8414 35.2292C35.0682 35.2638 35.295 35.3329 35.5014 35.4531C35.7084 35.5735 35.8952 35.7451 36.0412 35.9852C36.1876 36.2257 36.2932 36.5354 36.3373 36.9313L36.6506 39.7473L34.7145 39.9167L34.517 37.9316C34.497 37.732 34.4665 37.5624 34.4209 37.4214C34.3755 37.2805 34.3149 37.1682 34.2351 37.0824C34.1555 36.9969 34.0564 36.938 33.9338 36.9044C33.8113 36.8706 33.6651 36.8621 33.4909 36.8773C33.37 36.8879 33.2554 36.9106 33.1453 36.9451C33.0355 36.9798 32.9304 37.0263 32.8288 37.0844C32.727 37.1428 32.629 37.2128 32.533 37.2947C32.437 37.3765 32.3435 37.4699 32.2507 37.575L32.4693 40.1131L30.5308 40.2827L30.3828 38.2933C30.3678 38.0933 30.3418 37.9233 30.3001 37.782C30.2584 37.6407 30.201 37.5281 30.1239 37.4421C30.0468 37.3564 29.9496 37.2973 29.8283 37.2636C29.707 37.2297 29.5616 37.2211 29.3874 37.2363C29.2665 37.2469 29.1516 37.2696 29.041 37.3041C28.9305 37.3389 28.8242 37.3855 28.7213 37.4437C28.6183 37.5022 28.5183 37.5724 28.4203 37.6546C28.3223 37.7365 28.2259 37.8302 28.1304 37.9355L28.2853 40.4792L26.3471 40.6488L26.1172 35.9929L28.002 35.828L28.0482 36.5862C28.147 36.4821 28.2542 36.3728 28.3774 36.2656C28.5002 36.1584 28.639 36.0535 28.8012 35.9585C28.9632 35.8635 29.1487 35.7784 29.3653 35.711C29.5817 35.6433 29.8294 35.5933 30.1158 35.5683C30.2631 35.5554 30.4212 35.552 30.5819 35.564C30.7425 35.5761 30.9058 35.6036 31.0637 35.6522C31.2221 35.701 31.3752 35.7713 31.5155 35.8687C31.6558 35.9663 31.7833 36.0917 31.8899 36.2501C32.0043 36.1253 32.1334 36.0043 32.2804 35.8913C32.4274 35.7785 32.5921 35.6738 32.7784 35.5815C32.9647 35.4893 33.1723 35.4098 33.405 35.3466C33.6377 35.2838 33.8954 35.2376 34.1819 35.2125" clip-rule="evenodd" fill-rule="evenodd"></path>
</g>
<path fill="white" d="M43.2657 34.4181C43.5304 34.3949 43.8075 34.3906 44.0781 34.4226C44.3486 34.4544 44.6134 34.5227 44.8535 34.6447C45.0939 34.7666 45.3102 34.9428 45.4839 35.1912C45.658 35.4402 45.7896 35.7618 45.8598 36.1751L46.3233 38.9014L44.3848 39.071L44.0725 37.0959C44.0412 36.8973 43.9957 36.729 43.932 36.5896C43.8684 36.4503 43.7864 36.3398 43.6816 36.2563C43.5771 36.1729 43.4496 36.1165 43.2948 36.0858C43.1399 36.0548 42.9579 36.0493 42.744 36.0681C42.6036 36.0803 42.4636 36.1078 42.3268 36.1476C42.1904 36.1873 42.0575 36.24 41.9319 36.3027C41.8064 36.3654 41.6882 36.4384 41.5812 36.5193C41.474 36.6006 41.3781 36.6895 41.2968 36.7839L41.6543 39.3098L39.716 39.4794L39.1159 34.856L41.0006 34.6911L41.0858 35.293C41.2143 35.1866 41.353 35.0839 41.5042 34.9886C41.6555 34.8934 41.8194 34.8054 41.9981 34.7282C42.1765 34.6509 42.3701 34.5842 42.5805 34.5313C42.7909 34.4785 43.0185 34.4397 43.2657 34.4181" clip-rule="evenodd" fill-rule="evenodd"></path>
<mask height="6" width="8" y="34" x="39" maskUnits="userSpaceOnUse" style="mask-type:alpha" id="mask4_431_13653">
<path fill="white" d="M42.5805 34.5308C42.3698 34.5838 42.1765 34.6504 41.9981 34.7277V34.7277C41.8193 34.8047 41.6555 34.8926 41.5042 34.9882V34.9882C41.3529 35.0832 41.214 35.1861 41.0858 35.2923V35.2923L41.0006 34.6904L39.1159 34.8553L39.716 39.4789L41.6543 39.3094L41.2968 36.7834C41.3781 36.689 41.4742 36.6001 41.5812 36.5188V36.5188C41.6883 36.4381 41.8064 36.3649 41.9319 36.3022V36.3022C42.0575 36.2393 42.1904 36.1869 42.3271 36.1471V36.1471C42.4633 36.107 42.6036 36.0798 42.744 36.0676V36.0676C42.9579 36.0489 43.1401 36.054 43.2948 36.0853V36.0853C43.4496 36.116 43.5771 36.1722 43.6816 36.2558V36.2558C43.7864 36.3393 43.8684 36.4498 43.932 36.5889V36.5889C43.9957 36.7285 44.0412 36.8968 44.0725 37.0955V37.0955L44.3848 39.0705L46.3231 38.9009L45.8601 36.1746C45.7896 35.7616 45.658 35.4397 45.4839 35.1907V35.1907C45.3102 34.9423 45.0939 34.7663 44.8535 34.6442V34.6442C44.6132 34.5222 44.3486 34.4539 44.0781 34.4219V34.4219C43.8073 34.3901 43.5304 34.3945 43.2657 34.4176V34.4176C43.0185 34.4392 42.7909 34.4781 42.5805 34.5308" clip-rule="evenodd" fill-rule="evenodd"></path>
</mask>
<g mask="url(#mask4_431_13653)">
<path fill="white" d="M43.2657 34.4176C43.5304 34.3945 43.8075 34.3901 44.0781 34.4221C44.3486 34.4539 44.6134 34.5222 44.8535 34.6442C45.0939 34.7661 45.3102 34.9423 45.4839 35.1907C45.658 35.4397 45.7896 35.7613 45.8598 36.1746L46.3233 38.9009L44.3848 39.0705L44.0725 37.0955C44.0412 36.8968 43.9957 36.7285 43.932 36.5891C43.8684 36.4498 43.7864 36.3393 43.6816 36.2558C43.5771 36.1724 43.4496 36.116 43.2948 36.0853C43.1399 36.0543 42.9579 36.0489 42.744 36.0676C42.6036 36.0798 42.4636 36.1073 42.3268 36.1471C42.1904 36.1869 42.0575 36.2395 41.9319 36.3022C41.8064 36.3649 41.6882 36.4379 41.5812 36.5188C41.474 36.6001 41.3781 36.689 41.2968 36.7834L41.6543 39.3094L39.716 39.4789L39.1159 34.8555L41.0006 34.6906L41.0858 35.2925C41.2143 35.1861 41.353 35.0834 41.5042 34.9882C41.6555 34.8929 41.8194 34.805 41.9981 34.7277C42.1765 34.6504 42.3701 34.5837 42.5805 34.5308C42.7909 34.4781 43.0185 34.4392 43.2657 34.4176" clip-rule="evenodd" fill-rule="evenodd"></path>
</g>
<path fill="white" d="M49.7529 36.7783C50.0068 36.756 50.2156 36.7271 50.3842 36.6877C50.553 36.6483 50.6814 36.5988 50.7749 36.5359C50.8683 36.4728 50.9268 36.3964 50.9554 36.3031C50.9838 36.2099 50.9824 36.1001 50.9563 35.9701C50.9301 35.8404 50.8883 35.7347 50.8242 35.65C50.7601 35.5659 50.6743 35.5028 50.56 35.4586C50.4458 35.4144 50.3036 35.3893 50.1269 35.3806C49.9501 35.372 49.7389 35.3798 49.4873 35.4018C49.2361 35.4238 49.0293 35.4526 48.8619 35.4913C48.6945 35.5301 48.5662 35.5788 48.4725 35.6412C48.3788 35.7036 48.3193 35.7794 48.2893 35.8718C48.2594 35.9647 48.2588 36.0741 48.2828 36.204C48.3066 36.3342 48.3473 36.4405 48.4104 36.5258C48.4736 36.611 48.5592 36.6748 48.6738 36.7198C48.7881 36.7645 48.9313 36.7902 49.1091 36.7993C49.2871 36.8083 49.4995 36.8004 49.7529 36.7783V36.7783ZM50.5308 33.8567L52.4155 33.6918L53.2658 37.6793C53.3659 38.1494 53.3638 38.5543 53.2774 38.8997C53.1906 39.2464 53.0195 39.5324 52.7827 39.7639C52.5454 39.996 52.2424 40.1729 51.8936 40.3009C51.5444 40.4292 51.1495 40.5084 50.7284 40.5453C50.3793 40.5758 50.0391 40.5892 49.718 40.5907C49.3969 40.5924 49.095 40.5823 48.8213 40.5657C48.5479 40.5491 48.303 40.5263 48.0963 40.5026C47.8896 40.4789 47.7209 40.4541 47.5995 40.4339L47.3257 38.8784C47.4691 38.892 47.646 38.9108 47.8471 38.9298C48.0484 38.949 48.2738 38.968 48.5143 38.9828C48.7547 38.9976 49.0102 39.0078 49.2715 39.0083C49.5326 39.0091 49.7996 39.0004 50.0627 38.9774C50.2995 38.9566 50.506 38.9244 50.6794 38.8689C50.8528 38.8133 50.9929 38.7346 51.0961 38.6212C51.1995 38.5077 51.2661 38.3597 51.2929 38.1654C51.3197 37.9719 51.3069 37.7323 51.2514 37.4361C51.1717 37.5679 51.0729 37.6887 50.9541 37.7968C50.835 37.9051 50.6962 38.0011 50.5366 38.0831C50.377 38.1652 50.197 38.2334 49.9958 38.2866C49.7943 38.3395 49.5719 38.3774 49.3278 38.3987C48.9553 38.4313 48.6006 38.4186 48.2742 38.3562C47.9483 38.2937 47.6506 38.1817 47.391 38.0167C47.1322 37.8519 46.9116 37.6346 46.7389 37.3605C46.5669 37.0874 46.4426 36.7587 46.3756 36.3708C46.3088 35.9848 46.3177 35.6489 46.3909 35.3603C46.4637 35.0727 46.601 34.8318 46.7914 34.6351C46.9818 34.4387 47.2252 34.2859 47.5121 34.1743C47.7984 34.0627 48.1281 33.9923 48.4911 33.9606C48.7284 33.9398 48.9515 33.9377 49.1604 33.953C49.3696 33.9685 49.5644 34.0012 49.7452 34.0503C49.9263 34.0993 50.0936 34.1645 50.2468 34.2448C50.4005 34.3251 50.5401 34.4205 50.6663 34.5298L50.5308 33.8567Z" clip-rule="evenodd" fill-rule="evenodd"></path>
<mask height="8" width="8" y="33" x="46" maskUnits="userSpaceOnUse" style="mask-type:alpha" id="mask5_431_13653">
<path fill="white" d="M47.5121 34.1743C47.2253 34.2859 46.9815 34.4385 46.7914 34.6351V34.6351C46.6008 34.8318 46.4637 35.0727 46.3907 35.3603V35.3603C46.3175 35.6486 46.3088 35.9848 46.3757 36.3708V36.3708C46.4427 36.7584 46.5669 37.0874 46.739 37.3605V37.3605C46.9116 37.6346 47.1323 37.8522 47.3911 38.0167V38.0167C47.6506 38.1817 47.9481 38.2937 48.2743 38.3562V38.3562C48.6007 38.4183 48.9553 38.4316 49.3279 38.399V38.399C49.5719 38.3776 49.7943 38.3395 49.9958 38.2866V38.2866C50.197 38.2334 50.3772 38.1652 50.5366 38.0829V38.0829C50.6963 38.0011 50.835 37.9051 50.9539 37.7968V37.7968C51.0729 37.6887 51.1718 37.5679 51.2512 37.4364V37.4364C51.307 37.7323 51.3197 37.9719 51.2929 38.1654V38.1654C51.2661 38.3594 51.1995 38.5077 51.0961 38.6212V38.6212C50.9929 38.7346 50.8526 38.8135 50.6795 38.8689V38.8689C50.5061 38.9244 50.2993 38.9564 50.0627 38.9771V38.9771C49.7994 39.0001 49.5327 39.0091 49.2716 39.0083V39.0083C49.0102 39.0078 48.7548 38.9976 48.5141 38.9828V38.9828C48.2738 38.968 48.0484 38.949 47.8471 38.9298V38.9298C47.6461 38.9111 47.4692 38.8922 47.3258 38.8787V38.8787L47.5996 40.4339C47.7207 40.4542 47.8896 40.4787 48.0961 40.5026V40.5026C48.303 40.5263 48.5479 40.5491 48.8213 40.5657V40.5657C49.0948 40.5823 49.397 40.5924 49.7181 40.5909V40.5909C50.0391 40.5892 50.3793 40.5758 50.7284 40.5453V40.5453C51.1496 40.5084 51.5444 40.4294 51.8937 40.3009V40.3009C52.2425 40.1729 52.5452 39.996 52.7827 39.7637V39.7637C53.0193 39.5324 53.1907 39.2464 53.2774 38.8995V38.8995C53.3636 38.5543 53.3659 38.1494 53.2659 37.6793V37.6793L52.4156 33.6918L50.5306 33.8567L50.6663 34.5298C50.5401 34.4205 50.4003 34.3251 50.2468 34.2448V34.2448C50.0936 34.1645 49.9263 34.0993 49.7452 34.0502V34.0502C49.5644 34.0012 49.3696 33.9683 49.1604 33.953V33.953C48.9515 33.9377 48.7284 33.9398 48.4908 33.9606V33.9606C48.1282 33.9923 47.7984 34.0627 47.5121 34.1743V34.1743ZM49.1092 36.7993C48.9314 36.7902 48.7882 36.7645 48.6737 36.7198V36.7198C48.5593 36.6748 48.4737 36.611 48.4103 36.5258V36.5258C48.3472 36.4406 48.3068 36.334 48.2827 36.204V36.204C48.2589 36.0741 48.2593 35.9644 48.2895 35.8721V35.8721C48.3194 35.7794 48.3786 35.7034 48.4726 35.6412V35.6412C48.5664 35.5791 48.6946 35.5301 48.8618 35.4911V35.4911C49.0294 35.4523 49.236 35.4238 49.4872 35.4018V35.4018C49.7391 35.3798 49.9502 35.3717 50.127 35.3804V35.3804C50.3035 35.3893 50.446 35.4146 50.5602 35.4586V35.4586C50.6744 35.5025 50.7603 35.5659 50.8243 35.6503V35.6503C50.8881 35.7344 50.9305 35.8404 50.9565 35.9701V35.9701C50.9825 36.0999 50.9839 36.2099 50.9553 36.3031V36.3031C50.9269 36.3963 50.8684 36.4728 50.775 36.5359V36.5359C50.6813 36.5988 50.5531 36.6483 50.3843 36.6877V36.6877C50.2157 36.7268 50.0069 36.756 49.7528 36.7783V36.7783C49.4996 36.8004 49.2873 36.8081 49.1092 36.7993V36.7993Z" clip-rule="evenodd" fill-rule="evenodd"></path>
</mask>
<g mask="url(#mask5_431_13653)">
<path fill="white" d="M49.7529 36.7783C50.0068 36.756 50.2156 36.7271 50.3842 36.6877C50.553 36.6483 50.6814 36.5988 50.7749 36.5359C50.8683 36.4728 50.9268 36.3964 50.9554 36.3031C50.9838 36.2099 50.9824 36.1001 50.9563 35.9701C50.9301 35.8404 50.8883 35.7347 50.8242 35.65C50.7601 35.5659 50.6743 35.5028 50.56 35.4586C50.4458 35.4144 50.3036 35.3893 50.1269 35.3806C49.9501 35.372 49.7389 35.3798 49.4873 35.4018C49.2361 35.4238 49.0293 35.4526 48.8619 35.4913C48.6945 35.5301 48.5662 35.5788 48.4725 35.6412C48.3788 35.7036 48.3193 35.7794 48.2893 35.8718C48.2594 35.9647 48.2588 36.0741 48.2828 36.204C48.3066 36.3342 48.3473 36.4405 48.4104 36.5258C48.4736 36.611 48.5592 36.6748 48.6738 36.7198C48.7881 36.7645 48.9313 36.7902 49.1091 36.7993C49.2871 36.8083 49.4995 36.8004 49.7529 36.7783V36.7783ZM50.5308 33.8567L52.4155 33.6918L53.2658 37.6793C53.3659 38.1494 53.3638 38.5543 53.2774 38.8997C53.1906 39.2464 53.0195 39.5324 52.7827 39.7639C52.5454 39.996 52.2424 40.1729 51.8936 40.3009C51.5444 40.4292 51.1495 40.5084 50.7284 40.5453C50.3793 40.5758 50.0391 40.5892 49.718 40.5907C49.3969 40.5924 49.095 40.5823 48.8213 40.5657C48.5479 40.5491 48.303 40.5263 48.0963 40.5026C47.8896 40.4789 47.7209 40.4541 47.5995 40.4339L47.3257 38.8784C47.4691 38.892 47.646 38.9108 47.8471 38.9298C48.0484 38.949 48.2738 38.968 48.5143 38.9828C48.7547 38.9976 49.0102 39.0078 49.2715 39.0083C49.5326 39.0091 49.7996 39.0004 50.0627 38.9774C50.2995 38.9566 50.506 38.9244 50.6794 38.8689C50.8528 38.8133 50.9929 38.7346 51.0961 38.6212C51.1995 38.5077 51.2661 38.3597 51.2929 38.1654C51.3197 37.9719 51.3069 37.7323 51.2514 37.4361C51.1717 37.5679 51.0729 37.6887 50.9541 37.7968C50.835 37.9051 50.6962 38.0011 50.5366 38.0831C50.377 38.1652 50.197 38.2334 49.9958 38.2866C49.7943 38.3395 49.5719 38.3774 49.3278 38.3987C48.9553 38.4313 48.6006 38.4186 48.2742 38.3562C47.9483 38.2937 47.6506 38.1817 47.391 38.0167C47.1322 37.8519 46.9116 37.6346 46.7389 37.3605C46.5669 37.0874 46.4426 36.7587 46.3756 36.3708C46.3088 35.9848 46.3177 35.6489 46.3909 35.3603C46.4637 35.0727 46.601 34.8318 46.7914 34.6351C46.9818 34.4387 47.2252 34.2859 47.5121 34.1743C47.7984 34.0627 48.1281 33.9923 48.4911 33.9606C48.7284 33.9398 48.9515 33.9377 49.1604 33.953C49.3696 33.9685 49.5644 34.0012 49.7452 34.0503C49.9263 34.0993 50.0936 34.1645 50.2468 34.2448C50.4005 34.3251 50.5401 34.4205 50.6663 34.5298L50.5308 33.8567Z" clip-rule="evenodd" fill-rule="evenodd"></path>
</g>
<path fill="white" d="M23.0593 20.8203L23.2556 26.6246C23.2914 27.6813 23.1624 28.6282 22.8536 29.4637C22.5416 30.3077 22.0474 31.0351 21.3567 31.6455C20.6614 32.2602 19.7698 32.7541 18.6698 33.1281C17.566 33.5033 16.2563 33.7566 14.7308 33.8901C13.2004 34.024 11.8937 34.0008 10.8003 33.8193C9.71067 33.6382 8.8366 33.3007 8.16537 32.8065C7.49869 32.3161 7.03421 31.6731 6.75745 30.8796C6.48337 30.0941 6.3943 29.1641 6.47386 28.0928L6.90942 22.2332L11.6808 21.8157L11.4321 27.6591C11.4181 27.9855 11.4367 28.3008 11.5189 28.5865C11.6012 28.8732 11.7469 29.1299 11.9874 29.3376C12.2281 29.5463 12.5638 29.7053 13.0247 29.7963C13.4861 29.8874 14.0726 29.91 14.8138 29.8451C15.5549 29.7803 16.1445 29.6536 16.6114 29.48C17.0775 29.3065 17.4207 29.0862 17.6713 28.8336C17.9208 28.5818 18.078 28.2981 18.1722 27.9967C18.2663 27.6966 18.2979 27.3791 18.2974 27.0584L18.2879 21.2377L23.0593 20.8203Z" clip-rule="evenodd" fill-rule="evenodd"></path>
<mask height="14" width="18" y="20" x="6" maskUnits="userSpaceOnUse" style="mask-type:alpha" id="mask6_431_13653">
<path fill="white" d="M18.2878 21.2377L18.2973 27.0584C18.2981 27.3793 18.2662 27.6966 18.1724 27.9969V27.9969C18.0779 28.2983 17.9207 28.5818 17.6713 28.8336V28.8336C17.4209 29.0862 17.0777 29.3064 16.6115 29.48V29.48C16.1444 29.6539 15.5551 29.7803 14.8137 29.8451V29.8451C14.0725 29.91 13.486 29.8874 13.0246 29.7963V29.7963C12.5637 29.7053 12.2283 29.5462 11.9873 29.3376V29.3376C11.7471 29.1299 11.6011 28.8732 11.5188 28.5863V28.5863C11.4369 28.3008 11.418 27.9855 11.432 27.6591V27.6591L11.681 21.8157L6.90932 22.2332L6.47376 28.0929C6.39447 29.1644 6.48327 30.0941 6.75735 30.8796V30.8796C7.03411 31.6731 7.4986 32.3161 8.16554 32.8067V32.8067C8.83673 33.3004 9.71082 33.6382 10.8004 33.8193V33.8193C11.8938 34.0008 13.2003 34.024 14.731 33.8901V33.8901C16.2565 33.7566 17.5659 33.5033 18.6697 33.1281V33.1281C19.7697 32.7541 20.6615 32.2602 21.3568 31.6457V31.6457C22.0473 31.0351 22.5418 30.3076 22.8535 29.4637V29.4637C23.1626 28.6281 23.2916 27.6816 23.2558 26.6246V26.6246L23.0592 20.8203L18.2878 21.2377Z" clip-rule="evenodd" fill-rule="evenodd"></path>
</mask>
<g mask="url(#mask6_431_13653)">
<path fill="white" d="M23.0593 20.8203L23.2556 26.6246C23.2914 27.6813 23.1624 28.6282 22.8536 29.4637C22.5416 30.3077 22.0474 31.0351 21.3567 31.6455C20.6614 32.2602 19.7698 32.7541 18.6698 33.1281C17.566 33.5033 16.2563 33.7566 14.7308 33.8901C13.2004 34.024 11.8937 34.0008 10.8003 33.8193C9.71067 33.6382 8.8366 33.3007 8.16537 32.8065C7.49869 32.3161 7.03421 31.6731 6.75745 30.8796C6.48337 30.0941 6.3943 29.1641 6.47386 28.0928L6.90942 22.2332L11.6808 21.8157L11.4321 27.6591C11.4181 27.9855 11.4367 28.3008 11.5189 28.5865C11.6012 28.8732 11.7469 29.1299 11.9874 29.3376C12.2281 29.5463 12.5638 29.7053 13.0247 29.7963C13.4861 29.8874 14.0726 29.91 14.8138 29.8451C15.5549 29.7803 16.1445 29.6536 16.6114 29.48C17.0775 29.3065 17.4207 29.0862 17.6713 28.8336C17.9208 28.5818 18.078 28.2981 18.1722 27.9967C18.2663 27.6966 18.2979 27.3791 18.2974 27.0584L18.2879 21.2377L23.0593 20.8203Z" clip-rule="evenodd" fill-rule="evenodd"></path>
</g>
<path fill="white" d="M38.0238 19.5108L38.5096 23.0856L29.4854 23.8752L29.5812 25.1407L37.5443 24.444L38.0341 28.2614L29.871 28.9756L30.1266 32.3547L24.9653 32.8063L24.4423 20.699L38.0238 19.5108Z" clip-rule="evenodd" fill-rule="evenodd"></path>
<mask height="14" width="15" y="19" x="24" maskUnits="userSpaceOnUse" style="mask-type:alpha" id="mask7_431_13653">
<path fill="white" d="M24.4423 20.6986L24.9653 32.8058L30.1266 32.3542L29.8712 28.9751L38.0341 28.2609L37.544 24.4438L29.5812 25.1404L29.4856 23.8747L38.5096 23.0852L38.0238 19.5103L24.4423 20.6986Z" clip-rule="evenodd" fill-rule="evenodd"></path>
</mask>
<g mask="url(#mask7_431_13653)">
<path fill="white" d="M38.0238 19.5103L38.5096 23.0852L29.4854 23.8747L29.5812 25.1402L37.5443 24.4435L38.0341 28.2609L29.871 28.9751L30.1266 32.3542L24.9653 32.8058L24.4423 20.6986L38.0238 19.5103Z" clip-rule="evenodd" fill-rule="evenodd"></path>
</g>
<mask height="15" width="19" y="17" x="39" maskUnits="userSpaceOnUse" style="mask-type:alpha" id="mask8_431_13653">
<path fill="white" d="M39.1392 19.2529L56.0554 17.773L57.1406 30.1774L40.2244 31.6574L39.1392 19.2529Z" clip-rule="evenodd" fill-rule="evenodd"></path>
</mask>
<g mask="url(#mask8_431_13653)">
<path fill="white" d="M46.7677 22.3363C46.7551 22.3458 46.7477 22.3579 46.7451 22.3706C46.7425 22.383 46.7446 22.3962 46.7504 22.4081C46.7562 22.4201 46.7656 22.4307 46.7782 22.4385C46.7908 22.4461 46.8064 22.451 46.824 22.4507C46.9534 22.4523 47.083 22.4561 47.2128 22.4621C47.3427 22.4684 47.4724 22.477 47.6024 22.488C47.7322 22.499 47.8624 22.5122 47.9923 22.528C48.1222 22.5437 48.2521 22.5619 48.3819 22.5824C48.5099 22.602 48.6379 22.6241 48.7655 22.6483C48.8932 22.6726 49.0206 22.6993 49.1474 22.7282C49.2746 22.7574 49.4013 22.7885 49.5274 22.8223C49.6536 22.856 49.7793 22.892 49.9045 22.9302C49.9073 22.9312 49.9104 22.932 49.9134 22.9324C49.9162 22.9332 49.9192 22.9334 49.922 22.9339C49.925 22.9342 49.9277 22.9344 49.9307 22.9344C49.9335 22.9344 49.9362 22.9342 49.9389 22.9339C49.9515 22.9328 49.9631 22.9288 49.9725 22.923C49.9819 22.917 49.9894 22.9089 49.9943 22.8995C49.9992 22.8901 50.0015 22.8797 50.0003 22.8686C49.9991 22.8576 49.9946 22.846 49.9859 22.8351C49.9059 22.7335 49.8141 22.6333 49.7104 22.5385C49.6068 22.4436 49.4914 22.3543 49.3635 22.274C49.2359 22.1939 49.0962 22.1231 48.9443 22.0653C48.7923 22.0077 48.628 21.9632 48.4509 21.9357C48.4007 21.9276 48.3512 21.9215 48.3023 21.9168C48.2534 21.9122 48.2051 21.9089 48.1577 21.9074C48.1101 21.9058 48.0634 21.9057 48.0172 21.9067C47.9711 21.908 47.9258 21.9107 47.8809 21.9147C47.7682 21.9245 47.6601 21.9424 47.5569 21.9674C47.4534 21.9924 47.3552 22.0241 47.262 22.0611C47.1688 22.0983 47.0808 22.1408 46.9983 22.1871C46.9158 22.2333 46.8389 22.2835 46.7677 22.3363M52.5261 25.3926C52.5469 25.1526 52.4422 24.9052 52.2359 24.6637C52.0303 24.4227 51.7236 24.1875 51.3389 23.9705C50.9557 23.7542 50.4949 23.5558 49.9795 23.3884C49.4654 23.2215 48.8968 23.0848 48.2957 22.991C48.0796 22.9571 47.8672 22.9302 47.6585 22.9095C47.4502 22.8889 47.246 22.8744 47.0472 22.8662C46.8483 22.858 46.6547 22.8561 46.4673 22.8598C46.2799 22.8635 46.099 22.8731 45.9254 22.8883C45.6152 22.9154 45.3288 22.9604 45.0719 23.0219C44.8147 23.0834 44.5873 23.1615 44.3956 23.2551C44.2042 23.3484 44.0484 23.4573 43.9351 23.5801C43.8215 23.7029 43.7502 23.8399 43.7282 23.9897C43.7034 24.1604 43.7441 24.3356 43.842 24.5108C43.9398 24.6862 44.0952 24.8616 44.2995 25.0316C44.5046 25.2022 44.7587 25.3674 45.0537 25.5226C45.3492 25.6779 45.6859 25.8233 46.055 25.9528C46.0578 25.9538 46.0606 25.9548 46.0632 25.9556C46.066 25.9563 46.0688 25.9568 46.0715 25.9571C46.0743 25.9576 46.0771 25.9579 46.0795 25.9579C46.0823 25.9579 46.085 25.9579 46.0875 25.9577C46.0976 25.9568 46.107 25.9537 46.1153 25.949C46.1234 25.9444 46.1303 25.938 46.1356 25.9306C46.1407 25.9232 46.1439 25.915 46.1449 25.9059C46.1458 25.8969 46.1445 25.8873 46.1402 25.878C46.1165 25.8266 46.0962 25.7762 46.0793 25.7277C46.0624 25.6794 46.0489 25.6326 46.0388 25.5888C46.029 25.5446 46.0224 25.5032 46.0195 25.4652C46.0167 25.4269 46.0171 25.392 46.0214 25.3611C46.0302 25.2944 46.0609 25.2333 46.1108 25.1782C46.1607 25.1234 46.2295 25.0746 46.3148 25.0328C46.4 24.9911 46.5013 24.9559 46.6162 24.9284C46.7309 24.9007 46.8592 24.8805 46.9981 24.8684C47.0765 24.8615 47.1582 24.8571 47.2431 24.8557C47.3277 24.854 47.4153 24.855 47.5052 24.8591C47.5953 24.8629 47.6876 24.8695 47.7816 24.8792C47.876 24.8888 47.972 24.9013 48.0696 24.9169C48.3392 24.9604 48.5943 25.0229 48.8242 25.0987C49.0543 25.1748 49.2598 25.264 49.4299 25.3612C49.6005 25.4584 49.736 25.5634 49.8261 25.6706C49.9163 25.7781 49.961 25.8878 49.9499 25.9937C49.9468 26.0243 49.9398 26.0577 49.9285 26.093C49.9171 26.1283 49.902 26.1657 49.8828 26.2044C49.8635 26.2431 49.8405 26.2834 49.8135 26.3243C49.7865 26.3655 49.7558 26.4072 49.7212 26.4493C49.7125 26.4602 49.7086 26.4725 49.7087 26.4849C49.709 26.4973 49.7131 26.5099 49.7205 26.5212C49.7277 26.5322 49.738 26.542 49.7503 26.5489C49.7629 26.5558 49.7771 26.5597 49.7925 26.5594C49.8382 26.5584 49.8833 26.5571 49.9282 26.5555C49.9728 26.5538 50.0171 26.5517 50.0611 26.5493C50.1052 26.5469 50.1487 26.5444 50.1919 26.5413C50.2349 26.5383 50.2776 26.5348 50.3201 26.5311C50.6386 26.5033 50.9326 26.4566 51.1952 26.3924C51.4577 26.3284 51.6887 26.247 51.8813 26.1499C52.074 26.0527 52.2284 25.94 52.3379 25.8133C52.4477 25.6864 52.5124 25.5457 52.5261 25.3926M46.9019 18.5733C48.309 18.4502 49.5415 18.4597 50.6143 18.603C51.6905 18.7468 52.6092 19.0257 53.384 19.4422C54.1637 19.8612 54.8002 20.4214 55.3059 21.1264C55.8167 21.8385 56.1957 22.7009 56.4544 23.7195C56.7171 24.7531 56.7892 25.6796 56.6557 26.4978C56.5207 27.3245 56.1761 28.0379 55.6083 28.6372C55.0363 29.2409 54.24 29.727 53.2071 30.0968C52.1707 30.4677 50.9 30.7198 49.3851 30.8556C49.3824 30.4837 49.3852 30.0101 49.3911 29.5088C49.3967 29.0104 49.4054 28.4848 49.4145 28.0027C49.4235 27.5233 49.4328 27.0864 49.4403 26.7603C49.4477 26.4355 49.4529 26.2197 49.454 26.1806C49.4637 26.0985 49.4306 26.0131 49.3626 25.929C49.2946 25.8452 49.1919 25.763 49.0619 25.6864C48.9322 25.6099 48.7753 25.5394 48.599 25.479C48.4229 25.4188 48.2274 25.369 48.0202 25.334C47.9427 25.3206 47.8665 25.3099 47.7916 25.3015C47.7168 25.2931 47.6434 25.2871 47.572 25.2837C47.5009 25.28 47.4314 25.2788 47.3644 25.2797C47.2973 25.2809 47.2327 25.284 47.171 25.2894C47.0677 25.2985 46.972 25.3135 46.8863 25.3342C46.8006 25.3551 46.7251 25.3814 46.6615 25.4131C46.5979 25.4445 46.5461 25.4813 46.5088 25.5229C46.4714 25.5644 46.4478 25.6108 46.4408 25.6616L44.4378 30.6264C43.7186 30.4504 43.085 30.2023 42.5325 29.8826C41.9828 29.5645 41.5142 29.1757 41.1228 28.7172C40.7339 28.2612 40.4215 27.7368 40.1808 27.1451C39.9419 26.5578 39.7744 25.905 39.6726 25.1877C39.5264 24.155 39.5562 23.2547 39.7712 22.4783C39.9844 21.7099 40.3803 21.0599 40.9697 20.5221C41.5554 19.9875 42.3343 19.5616 43.319 19.239C44.3007 18.9172 45.4902 18.6968 46.9019 18.5733" clip-rule="evenodd" fill-rule="evenodd"></path>
</g>
<mask height="13" width="18" y="18" x="39" maskUnits="userSpaceOnUse" style="mask-type:alpha" id="mask9_431_13653">
<path fill="white" d="M46.9017 18.5738C45.4897 18.6973 44.3004 18.9177 43.3187 19.2393V19.2393C42.3338 19.5621 41.5549 19.9878 40.9692 20.5223V20.5223C40.3798 21.0604 39.9842 21.7101 39.771 22.4786V22.4786C39.5557 23.2552 39.5259 24.1555 39.6721 25.1882V25.1882C39.7739 25.9055 39.9414 26.5581 40.1803 27.1455V27.1455C40.421 27.7373 40.7334 28.2614 41.1223 28.7174V28.7174C41.514 29.1761 41.9823 29.5648 42.5322 29.8829V29.8829C43.0845 30.2027 43.7183 30.4506 44.4373 30.6266V30.6266L46.4403 25.6618C46.4476 25.611 46.4709 25.5647 46.5083 25.5231V25.5231C46.5459 25.4815 46.5974 25.445 46.661 25.4133V25.4133C46.7246 25.3816 46.8001 25.3554 46.8858 25.3347V25.3347C46.9715 25.314 47.0672 25.299 47.1705 25.2899V25.2899C47.2325 25.2845 47.2971 25.2811 47.3639 25.2802V25.2802C47.4309 25.2791 47.5004 25.2804 47.5718 25.2839V25.2839C47.6432 25.2873 47.7163 25.2934 47.7911 25.3017V25.3017C47.8659 25.3099 47.9422 25.3211 48.0197 25.3342V25.3342C48.2269 25.3693 48.4224 25.4193 48.5985 25.4792V25.4792C48.7748 25.5396 48.9317 25.6104 49.0616 25.6866V25.6866C49.1912 25.7633 49.2944 25.8457 49.3621 25.9295V25.9295C49.4301 26.0133 49.4632 26.0987 49.4534 26.1808V26.1808C49.4527 26.2202 49.4469 26.436 49.4398 26.7608V26.7608C49.4323 27.0867 49.423 27.5235 49.414 28.0029V28.0029C49.4049 28.485 49.3965 29.0108 49.3906 29.5091V29.5091C49.3848 30.0105 49.3822 30.4839 49.3849 30.8558V30.8558C50.8995 30.7203 52.1702 30.4679 53.2066 30.0971V30.0971C54.2395 29.7275 55.0358 29.2412 55.6078 28.6377V28.6377C56.1759 28.0381 56.5202 27.325 56.6552 26.4982V26.4982C56.7247 26.0737 56.7385 25.6201 56.6993 25.1375V25.1375L56.692 25.0543C56.6522 24.6314 56.5726 24.1867 56.4542 23.7199V23.7199C56.1952 22.7014 55.8162 21.8388 55.3057 21.1267V21.1267C54.8 20.4218 54.1632 19.8615 53.3835 19.4424V19.4424C52.6086 19.0259 51.6897 18.7471 50.6138 18.6033V18.6033M49.9301 22.9349C49.9274 22.9349 49.9244 22.9349 49.9214 22.9344V22.9344C49.9189 22.9341 49.9159 22.9337 49.9128 22.9332V22.9332C49.91 22.9324 49.907 22.932 49.9039 22.9307V22.9307C49.779 22.8924 49.653 22.8565 49.5268 22.8228V22.8228C49.4008 22.789 49.2742 22.7578 49.1471 22.7289V22.7289C49.0201 22.7 48.8927 22.6734 48.765 22.649V22.649C48.6373 22.6246 48.5096 22.6025 48.3813 22.5829V22.5829C48.2515 22.5622 48.1219 22.5444 47.9917 22.5287V22.5287C47.8618 22.513 47.7318 22.4995 47.6019 22.4885V22.4885C47.4719 22.4777 47.3421 22.4692 47.2123 22.4629V22.4629C47.0827 22.4566 46.9528 22.4528 46.8234 22.4514V22.4514C46.8058 22.4515 46.7904 22.4466 46.7776 22.439V22.439C46.765 22.4314 46.7556 22.4206 46.7496 22.4086V22.4086C46.7441 22.3967 46.7422 22.3834 46.7445 22.3711V22.3711C46.7474 22.3584 46.7546 22.3466 46.7672 22.3368V22.3368C46.8384 22.2843 46.9153 22.2338 46.9977 22.1875V22.1875C47.0802 22.1413 47.1682 22.0988 47.2615 22.0618V22.0618C47.3547 22.0248 47.4531 21.9928 47.5563 21.9679V21.9679C47.6595 21.9429 47.7679 21.925 47.8806 21.9151V21.9151C47.9253 21.9112 47.9705 21.9088 48.0169 21.9072V21.9072C48.0628 21.9062 48.1096 21.9063 48.1572 21.9081V21.9081C48.2048 21.9097 48.2528 21.9127 48.3019 21.9173V21.9173C48.3506 21.9223 48.4001 21.9284 48.4505 21.9361V21.9361C48.6275 21.9637 48.7917 22.0082 48.9437 22.0658V22.0658C49.0959 22.1236 49.2354 22.1944 49.363 22.2747V22.2747C49.4908 22.355 49.6063 22.4444 49.7101 22.5392V22.5392C49.8138 22.6338 49.9056 22.7342 49.9854 22.8356V22.8356C49.994 22.8468 49.9985 22.8583 49.9997 22.8691V22.8691C50.0009 22.8802 49.9986 22.8906 49.994 22.9V22.9C49.9888 22.9094 49.9813 22.9175 49.9719 22.9235V22.9235C49.9625 22.9296 49.9509 22.9336 49.9383 22.9347V22.9347C49.9356 22.9349 49.9329 22.9349 49.9301 22.9349M46.0792 25.9582C46.0765 25.9579 46.0737 25.9577 46.0712 25.9571V25.9571C46.0684 25.9571 46.0656 25.9564 46.0628 25.9556V25.9556C46.06 25.9549 46.0572 25.9539 46.0546 25.9529V25.9529C45.6855 25.8233 45.3486 25.678 45.0531 25.5226V25.5226C44.7581 25.3677 44.504 25.2022 44.2991 25.0317V25.0317C44.0948 24.8616 43.9395 24.6865 43.8414 24.5109V24.5109C43.7435 24.3357 43.7031 24.1605 43.7277 23.9898V23.9898C43.7498 23.8399 43.8209 23.7032 43.9342 23.5801V23.5801C44.0478 23.4576 44.2036 23.3485 44.3953 23.2551V23.2551C44.5868 23.1618 44.8144 23.0837 45.0713 23.022V23.022C45.3282 22.9607 45.6149 22.9155 45.9248 22.8884V22.8884C46.0984 22.8732 46.2793 22.8636 46.4667 22.8599V22.8599C46.6541 22.8561 46.8477 22.8583 47.0468 22.8665V22.8665C47.2457 22.8745 47.4496 22.889 47.6582 22.9095V22.9095C47.8666 22.9303 48.0793 22.9574 48.2951 22.991V22.991C48.8965 23.0851 49.4651 23.2216 49.9792 23.3886V23.3886C50.4945 23.5561 50.9551 23.7542 51.3385 23.9706V23.9706C51.723 24.1875 52.0297 24.4227 52.2355 24.6638V24.6638C52.4419 24.9055 52.5463 25.153 52.5255 25.3927V25.3927C52.5118 25.5458 52.4468 25.6867 52.3376 25.8134V25.8134C52.2278 25.9401 52.0736 26.053 51.8807 26.15V26.15C51.6879 26.2471 51.4571 26.3285 51.1949 26.3924V26.3924C50.932 26.4567 50.6383 26.5035 50.3195 26.5314V26.5314C50.2773 26.5351 50.2343 26.5384 50.1913 26.5414V26.5414C50.1481 26.5444 50.1046 26.5473 50.0608 26.5496V26.5496C50.0165 26.5517 49.9722 26.5539 49.9276 26.5555V26.5555C49.8827 26.5572 49.8378 26.5584 49.7922 26.5597V26.5597C49.7768 26.5598 49.7623 26.5558 49.7497 26.549V26.549C49.7377 26.5423 49.7271 26.5323 49.72 26.5212V26.5212C49.7128 26.5102 49.7084 26.4976 49.7083 26.485V26.485C49.708 26.4728 49.7119 26.4603 49.7209 26.4496V26.4496C49.7552 26.4073 49.7859 26.3656 49.8129 26.3247V26.3247C49.8399 26.2835 49.8632 26.2432 49.8824 26.2045V26.2045C49.9014 26.1658 49.9166 26.1286 49.9279 26.0931V26.0931C49.9392 26.0578 49.9462 26.0246 49.9495 25.9937V25.9937C49.9604 25.8879 49.9158 25.7784 49.8253 25.671V25.671C49.7354 25.5637 49.6001 25.4585 49.4295 25.3613V25.3613C49.2592 25.264 49.0539 25.1746 48.8236 25.0988V25.0988C48.5937 25.0229 48.3388 24.9604 48.069 24.9169V24.9169C47.9717 24.9013 47.8754 24.8889 47.7813 24.8792V24.8792C47.687 24.8695 47.5947 24.863 47.5048 24.8591V24.8591C47.4147 24.8551 47.3271 24.854 47.2425 24.8557V24.8557C47.1578 24.8572 47.076 24.8618 46.9975 24.8687V24.8687C46.8586 24.8809 46.7306 24.901 46.6156 24.9285V24.9285C46.501 24.9562 46.3996 24.9911 46.3145 25.0329V25.0329C46.2289 25.0749 46.1601 25.1235 46.1102 25.1785V25.1785C46.0603 25.2334 46.0296 25.2945 46.021 25.3614V25.3614C46.0168 25.3921 46.0161 25.4272 46.0189 25.4652V25.4652C46.022 25.5032 46.0284 25.5447 46.0384 25.5888V25.5888C46.0483 25.633 46.0618 25.6795 46.0787 25.728V25.728C46.0956 25.7762 46.1159 25.8267 46.1396 25.8781V25.8781C46.1439 25.8876 46.1455 25.8969 46.1445 25.906V25.906C46.1436 25.915 46.1401 25.9235 46.135 25.9309V25.9309C46.1297 25.9383 46.123 25.9444 46.1147 25.9491V25.9491C46.1064 25.9538 46.0972 25.9568 46.0869 25.9578V25.9578C46.0847 25.9579 46.0819 25.9582 46.0792 25.9582" clip-rule="evenodd" fill-rule="evenodd"></path>
</mask>
<g mask="url(#mask9_431_13653)">
<path fill="white" d="M46.7672 22.3358C46.7547 22.3453 46.7473 22.3574 46.7446 22.3701C46.742 22.3825 46.7441 22.3957 46.7499 22.4076C46.7557 22.4196 46.7651 22.4302 46.7777 22.438C46.7903 22.4456 46.8059 22.4505 46.8235 22.4502C46.9529 22.4518 47.0825 22.4556 47.2123 22.4617C47.3422 22.468 47.4719 22.4765 47.6019 22.4875C47.7317 22.4985 47.8619 22.5117 47.9918 22.5275C48.1217 22.5432 48.2516 22.5614 48.3814 22.5819C48.5094 22.6015 48.6374 22.6236 48.7651 22.6478C48.8927 22.6721 49.0201 22.6988 49.147 22.7277C49.2741 22.7569 49.4009 22.7881 49.5269 22.8218C49.6531 22.8555 49.7788 22.8915 49.904 22.9297C49.9068 22.9307 49.9099 22.9315 49.9129 22.932C49.9157 22.9327 49.9187 22.9329 49.9215 22.9334C49.9245 22.9337 49.9272 22.9339 49.9302 22.9339C49.933 22.9339 49.9357 22.9337 49.9384 22.9334C49.951 22.9323 49.9626 22.9284 49.972 22.9226C49.9814 22.9165 49.9889 22.9084 49.9938 22.899C49.9987 22.8896 50.001 22.8792 49.9998 22.8682C49.9986 22.8571 49.9941 22.8455 49.9854 22.8346C49.9054 22.733 49.8136 22.6329 49.7099 22.538C49.6064 22.4431 49.4909 22.3538 49.363 22.2735C49.2355 22.1934 49.0958 22.1226 48.9438 22.0648C48.7918 22.0072 48.6275 21.9627 48.4504 21.9352C48.4002 21.9271 48.3507 21.921 48.3018 21.9164C48.2529 21.9117 48.2046 21.9084 48.1573 21.9069C48.1096 21.9053 48.0629 21.9052 48.0167 21.9062C47.9706 21.9075 47.9254 21.9103 47.8804 21.9142C47.7677 21.924 47.6596 21.942 47.5564 21.9669C47.4529 21.9919 47.3548 22.0236 47.2615 22.0606C47.1683 22.0978 47.0803 22.1403 46.9978 22.1866C46.9154 22.2328 46.8385 22.283 46.7672 22.3358M52.5256 25.3921C52.5464 25.1522 52.4417 24.9047 52.2354 24.6632C52.0298 24.4222 51.7231 24.187 51.3384 23.97C50.9552 23.7537 50.4944 23.5553 49.979 23.3879C49.4649 23.221 48.8963 23.0843 48.2952 22.9905C48.0792 22.9567 47.8667 22.9297 47.6581 22.909C47.4497 22.8884 47.2455 22.874 47.0467 22.8658C46.8478 22.8575 46.6542 22.8556 46.4668 22.8593C46.2795 22.863 46.0986 22.8726 45.9249 22.8878C45.6147 22.915 45.3283 22.9599 45.0714 23.0214C44.8142 23.0829 44.5869 23.161 44.3952 23.2546C44.2037 23.3479 44.0479 23.4568 43.9346 23.5796C43.821 23.7024 43.7497 23.8394 43.7278 23.9892C43.7029 24.16 43.7436 24.3352 43.8415 24.5103C43.9394 24.6857 44.0947 24.8611 44.299 25.0312C44.5041 25.2017 44.7582 25.3669 45.0532 25.5221C45.3487 25.6775 45.6854 25.8228 46.0545 25.9523C46.0573 25.9533 46.0601 25.9543 46.0627 25.9551C46.0655 25.9558 46.0683 25.9563 46.071 25.9566C46.0738 25.9571 46.0766 25.9574 46.0791 25.9574C46.0818 25.9574 46.0845 25.9574 46.087 25.9572C46.0971 25.9563 46.1065 25.9532 46.1148 25.9485C46.1229 25.9439 46.1298 25.9375 46.1351 25.9301C46.1402 25.9227 46.1434 25.9145 46.1444 25.9054C46.1453 25.8964 46.144 25.8868 46.1397 25.8775C46.116 25.8261 46.0957 25.7757 46.0788 25.7272C46.0619 25.679 46.0484 25.6322 46.0383 25.5883C46.0285 25.5441 46.0219 25.5027 46.019 25.4647C46.0162 25.4264 46.0166 25.3915 46.0209 25.3606C46.0297 25.2939 46.0604 25.2328 46.1103 25.1777C46.1602 25.1229 46.229 25.0741 46.3144 25.0323C46.3995 24.9906 46.5008 24.9554 46.6157 24.9279C46.7304 24.9002 46.8587 24.8801 46.9976 24.8679C47.076 24.861 47.1577 24.8566 47.2426 24.8552C47.3272 24.8535 47.4148 24.8545 47.5047 24.8586C47.5948 24.8624 47.6871 24.869 47.7812 24.8787C47.8755 24.8883 47.9715 24.9008 48.0691 24.9164C48.3387 24.9599 48.5938 25.0224 48.8237 25.0982C49.0538 25.1743 49.2593 25.2635 49.4294 25.3607C49.6 25.4579 49.7355 25.5629 49.8256 25.6701C49.9158 25.7776 49.9605 25.8873 49.9494 25.9932C49.9463 26.0238 49.9393 26.0572 49.928 26.0925C49.9167 26.1278 49.9015 26.1652 49.8823 26.2039C49.8631 26.2426 49.84 26.283 49.813 26.3239C49.786 26.365 49.7553 26.4067 49.7207 26.4488C49.712 26.4597 49.7081 26.472 49.7082 26.4844C49.7085 26.4968 49.7126 26.5094 49.7201 26.5207C49.7272 26.5317 49.7375 26.5415 49.7498 26.5484C49.7624 26.5553 49.7766 26.5592 49.792 26.5589C49.8377 26.5579 49.8828 26.5567 49.9277 26.555C49.9723 26.5533 50.0166 26.5512 50.0606 26.5488C50.1047 26.5464 50.1482 26.5439 50.1915 26.5408C50.2345 26.5378 50.2772 26.5343 50.3196 26.5306C50.6381 26.5028 50.9321 26.4562 51.1948 26.3919C51.4572 26.3279 51.6882 26.2466 51.8809 26.1494C52.0735 26.0522 52.228 25.9395 52.3374 25.8129C52.4472 25.6859 52.5119 25.5452 52.5256 25.3921M46.9014 18.5728C48.3085 18.4497 49.541 18.4592 50.6139 18.6025C51.69 18.7463 52.6087 19.0252 53.3835 19.4417C54.1633 19.8607 54.7997 20.4209 55.3054 21.126C55.8162 21.8381 56.1953 22.7004 56.4539 23.719C56.7166 24.7526 56.7887 25.6791 56.6552 26.4973C56.5202 27.324 56.1756 28.0374 55.6078 28.6367C55.0358 29.2404 54.2395 29.7265 53.2066 30.0964C52.1702 30.4672 50.8995 30.7193 49.3846 30.8551C49.3819 30.4832 49.3848 30.0096 49.3906 29.5083C49.3962 29.0099 49.405 28.4843 49.414 28.0022C49.423 27.5228 49.4323 27.0859 49.4398 26.7598C49.4472 26.435 49.4524 26.2192 49.4535 26.1801C49.4632 26.098 49.4301 26.0126 49.3621 25.9286C49.2941 25.8448 49.1914 25.7625 49.0614 25.6859C48.9317 25.6095 48.7748 25.5389 48.5985 25.4785C48.4224 25.4183 48.2269 25.3686 48.0197 25.3335C47.9422 25.3201 47.866 25.3094 47.7911 25.301C47.7163 25.2926 47.643 25.2866 47.5716 25.2832C47.5004 25.2795 47.4309 25.2783 47.3639 25.2792C47.2968 25.2804 47.2322 25.2835 47.1705 25.2889C47.0672 25.298 46.9715 25.3131 46.8858 25.3337C46.8001 25.3547 46.7246 25.3809 46.661 25.4126C46.5974 25.444 46.5457 25.4808 46.5083 25.5224C46.4709 25.564 46.4473 25.6103 46.4404 25.6611L44.4373 30.6259C43.7181 30.4499 43.0845 30.2018 42.532 29.8822C41.9823 29.564 41.5137 29.1752 41.1223 28.7167C40.7334 28.2607 40.421 27.7363 40.1803 27.1446C39.9414 26.5573 39.7739 25.9045 39.6721 25.1872C39.5259 24.1546 39.5557 23.2542 39.7707 22.4779C39.9839 21.7094 40.3798 21.0594 40.9692 20.5216C41.5549 19.987 42.3338 19.5611 43.3185 19.2386C44.3002 18.9167 45.4897 18.6963 46.9014 18.5728" clip-rule="evenodd" fill-rule="evenodd"></path>
</g>
<path fill="white" d="M36.5112 33.582L38.3787 33.4186L38.5288 34.6063L36.6476 34.7709L36.5112 33.582Z" clip-rule="evenodd" fill-rule="evenodd"></path>
<mask height="2" width="3" y="33" x="36" maskUnits="userSpaceOnUse" style="mask-type:alpha" id="mask10_431_13653">
<path fill="white" d="M36.5112 33.582L36.6476 34.7709L38.5288 34.6063L38.3787 33.4186L36.5112 33.582Z" clip-rule="evenodd" fill-rule="evenodd"></path>
</mask>
<g mask="url(#mask10_431_13653)">
<path fill="white" d="M36.5112 33.582L38.3787 33.4186L38.5288 34.6063L36.6476 34.7709L36.5112 33.582Z" clip-rule="evenodd" fill-rule="evenodd"></path>
</g>
<path fill="white" d="M37.2125 39.6981L36.6816 35.0684L38.5664 34.9035L39.1508 39.5285L37.2125 39.6981Z" clip-rule="evenodd" fill-rule="evenodd"></path>
<mask height="6" width="4" y="34" x="36" maskUnits="userSpaceOnUse" style="mask-type:alpha" id="mask11_431_13653">
<path fill="white" d="M36.6812 35.0688L37.212 39.6986L39.1505 39.529L38.5661 34.9039L36.6812 35.0688Z" clip-rule="evenodd" fill-rule="evenodd"></path>
</mask>
<g mask="url(#mask11_431_13653)">
<path fill="white" d="M37.212 39.6986L36.6812 35.0688L38.5659 34.904L39.1503 39.529L37.212 39.6986Z" clip-rule="evenodd" fill-rule="evenodd"></path>
</g>
<defs>
<linearGradient gradientUnits="userSpaceOnUse" y2="60.4446" x2="3.55566" y1="3.55566" x1="3.55566" id="paint0_linear_431_13653">
<stop stop-color="#FA866E"></stop>
<stop stop-color="#8924F4" offset="1"></stop>
</linearGradient>
<linearGradient gradientUnits="userSpaceOnUse" y2="64" x2="0" y1="0" x1="0" id="paint1_linear_431_13653">
<stop stop-color="#FA866E"></stop>
<stop stop-color="#8924F4" offset="1"></stop>
</linearGradient>
</defs>
</svg>
