<svg xmlns="http://www.w3.org/2000/svg" viewBox="0 0 334 66">
  <defs>
    <linearGradient id="arkane-gradient" x1="0%" y1="0%" x2="100%" y2="0%">
      <stop offset="-.4" stop-color="#f74989">
        <animate id="anim" attributeName="offset" from="-.4" to="1" dur="1000ms" fill="freeze" begin="2s;anim.end+5000ms"/>
        <animate id="anim2" attributeName="offset" from="-.8" to="-2" dur="220ms" fill="freeze" begin="anim.end+500ms"/>
      </stop>
      <stop offset="0" stop-color="#dd49f8">
        <animate attributeName="offset" from="0" to="1.4" dur="1000ms" fill="freeze" begin="2s;anim.end+5000ms"/>
        <animate attributeName="offset" from="-.4" to="0" dur="220ms" fill="freeze" begin="anim.end+500ms"/>
      </stop>
      <stop offset=".4" stop-color="#f74989">
        <animate attributeName="offset" from=".4" to="1.8998" dur="1000ms" fill="freeze" begin="2s;anim.end+5000ms"/>
        <animate attributeName="offset" from="0" to=".4" dur="220ms" fill="freeze" begin="anim.end+500ms"/>
      </stop>
      <stop offset=".4001" stop-color="#f74989">
        <animate attributeName="offset" from=".4001" to="1.8999" dur="1000ms" fill="freeze" begin="2s;anim.end+5000ms"/>
        <animate attributeName="offset" from=".0001" to=".4001" dur="220ms" fill="freeze" begin="anim.end+500ms"/>
      </stop>
      <stop offset="1" stop-color="#f74989"/>
    </linearGradient>

    <style>
      .path-a {
      clip-path: url(#clip-path-a);
      }

      .path-dash {
      clip-path: url(#clip-path-dash);
      }
      .st0 {
      fill: #000;
      stroke: #000;
      stroke-width: 0.2px;
      }
    </style>
    <clipPath id="clip-path-a" transform="translate(-1 0)">
      <path fill="none"
            d="M63.91,31.68C55.09,17.07,46.59,2.93,45.62,1.62A3.86,3.86,0,0,0,43.38,0S43.16,0,43,0H43c-.12,0-.34,0-.34,0a3.86,3.86,0,0,0-2.24,1.59c-1,1.31-9.47,15.45-18.29,30.06C12,48.46,1,66,1,66H12L39.41,21.05s1.88-3.17,3.58-3.12h0c1.69-.05,3.58,3.12,3.58,3.12L74,66H85S74.05,48.46,63.91,31.68Z"/>
    </clipPath>
    <clipPath id="clip-path-dash" transform="translate(-1 0)">
      <path fill="none" d="M47,30H39a3,3,0,0,0,0,6h8a3,3,0,0,0,0-6Z"/>
    </clipPath>
  </defs>
  <title>Arkane logo</title>
  <g>
    <path class="st0" d="M103.1,23h-1.4l-8.1,20.7H95l2.6-6.6h9.6l2.5,6.6h1.3L103.1,23z M97.9,36l4.5-11.7h0.1l4.3,11.7H97.9z"/>
    <path class="st0" d="M125.9,43.1c-0.1-0.2-0.1-0.5-0.2-0.8c0-0.3,0-0.6,0-0.9s0-0.7,0-1c0-0.6,0-1.2-0.1-1.8c-0.1-0.6-0.2-1.1-0.4-1.6
                c-0.2-0.5-0.6-0.9-1-1.2c-0.5-0.3-1.1-0.5-1.9-0.6v0c1.2-0.2,2.1-0.7,2.7-1.5c0.7-0.8,1-1.8,1-3c0-0.9-0.1-1.6-0.4-2.2
                c-0.3-0.6-0.7-1.1-1.2-1.4c-0.5-0.4-1.1-0.6-1.7-0.8c-0.7-0.2-1.4-0.2-2.1-0.2h-7.2v17.9h1.1v-8.1h6.2c1,0,1.8,0.1,2.4,0.4
                s1,0.7,1.2,1.1c0.3,0.5,0.4,1,0.5,1.6c0,0.6,0.1,1.2,0.1,1.8s0,1.2,0,1.7s0.1,1,0.4,1.5h1.2C126.1,43.5,126,43.3,125.9,43.1z
                 M120.5,34.6h-6.2v-7.8h6.2c0.6,0,1.1,0.1,1.7,0.2c0.5,0.1,1,0.4,1.4,0.7c0.4,0.3,0.7,0.7,1,1.2c0.2,0.5,0.4,1,0.4,1.7
                c0,0.7-0.1,1.3-0.3,1.8c-0.2,0.5-0.5,0.9-0.9,1.3s-0.9,0.6-1.4,0.7C121.7,34.5,121.1,34.6,120.5,34.6z"/>
    <polygon class="st0" points="142.8,25.9 141.4,25.9 130.6,36.1 130.6,25.9 129.5,25.9 129.5,43.7 130.6,43.7 130.6,37.4 134.1,34 142,43.7
            143.3,43.7 134.9,33.3"/>
    <path class="st0" d="M151.6,25.9h-1.2l-7,17.9h1.1l2.2-5.7h8.3l2.2,5.7h1.1L151.6,25.9z M147.2,37l3.9-10.1h0l3.7,10.1H147.2z"/>
    <polygon class="st0" points="173,42.2 172.9,42.2 162,25.9 160.7,25.9 160.7,43.7 161.7,43.7 161.7,27.2 161.8,27.2 172.8,43.7 174.1,43.7
            174.1,25.9 173,25.9"/>
    <polygon class="st0" points="179.2,42.8 179.2,34.9 189.1,34.9 189.1,34 179.2,34 179.2,26.8 189.7,26.8 189.7,25.9 178.1,25.9 178.1,43.7
            189.8,43.7 189.8,42.8"/>
    <polygon class="st0" points="213.9,23 213.9,42 213.9,42 201.2,23 199.6,23 199.6,43.7 200.9,43.7 200.9,24.6 200.9,24.6 213.7,43.7
        215.2,43.7 215.2,23     "/>
    <polygon class="st0" points="220.6,34.9 230.5,34.9 230.5,34 220.6,34 220.6,26.8 231.1,26.8 231.1,25.9 219.5,25.9 219.5,43.7 231.3,43.7
            231.3,42.8 220.6,42.8"/>
    <polygon class="st0" points="232.2,26.8 238.3,26.8 238.3,43.7 239.3,43.7 239.3,26.8 245.5,26.8 245.5,25.9 232.2,25.9"/>
    <polygon class="st0" points="262.2,42.5 262.2,42.5 257.5,25.9 256.2,25.9 251.6,42.5 251.5,42.5 247,25.9 245.9,25.9 250.9,43.7 252.1,43.7
            256.8,26.8 256.8,26.8 261.6,43.7 262.8,43.7 267.8,25.9 266.6,25.9"/>
    <path class="st0" d="M285.3,31.1c-0.4-1.1-0.9-2.1-1.6-3c-0.7-0.8-1.6-1.5-2.6-2c-1-0.5-2.2-0.7-3.5-0.7c-1.3,0-2.5,0.2-3.5,0.7
                c-1,0.5-1.9,1.1-2.6,2c-0.7,0.8-1.2,1.8-1.6,3s-0.6,2.4-0.6,3.7c0,1.3,0.2,2.5,0.6,3.7c0.4,1.1,0.9,2.1,1.6,3
                c0.7,0.8,1.6,1.5,2.6,2c1,0.5,2.2,0.7,3.5,0.7c1.3,0,2.4-0.2,3.5-0.7c1-0.5,1.9-1.1,2.6-2c0.7-0.8,1.2-1.8,1.6-3
                c0.4-1.1,0.6-2.4,0.6-3.7C285.8,33.5,285.6,32.3,285.3,31.1z M284.3,38c-0.3,1-0.8,1.9-1.4,2.7c-0.6,0.8-1.4,1.4-2.2,1.8
                c-0.9,0.5-1.9,0.7-3,0.7c-1.1,0-2.1-0.2-3-0.7c-0.9-0.4-1.6-1.1-2.3-1.8c-0.6-0.8-1.1-1.6-1.4-2.7s-0.5-2.1-0.5-3.2
                s0.2-2.2,0.5-3.2s0.8-1.9,1.4-2.7c0.6-0.8,1.4-1.4,2.3-1.8c0.9-0.5,1.9-0.7,3-0.7c1.1,0,2.1,0.2,3,0.7c0.9,0.4,1.6,1.1,2.2,1.8
                s1.1,1.6,1.4,2.7c0.3,1,0.5,2.1,0.5,3.2S284.6,37,284.3,38z"/>
    <path class="st0" d="M301.7,43.1c-0.1-0.2-0.1-0.5-0.2-0.8c0-0.3,0-0.6,0-0.9s0-0.7,0-1c0-0.6,0-1.2-0.1-1.8c-0.1-0.6-0.2-1.1-0.4-1.6
                s-0.6-0.9-1-1.2c-0.5-0.3-1.1-0.5-1.9-0.6v0c1.2-0.2,2.1-0.7,2.7-1.5c0.7-0.8,1-1.8,1-3c0-0.9-0.1-1.6-0.4-2.2
                c-0.3-0.6-0.7-1.1-1.2-1.4s-1.1-0.6-1.7-0.8s-1.4-0.2-2.1-0.2h-7.2v17.9h1.1v-8.1h6.2c1,0,1.8,0.1,2.4,0.4s1,0.7,1.2,1.1
                s0.4,1,0.5,1.6c0,0.6,0.1,1.2,0.1,1.8s0,1.2,0,1.7c0,0.6,0.2,1,0.4,1.5h1.2C301.9,43.5,301.8,43.3,301.7,43.1z M296.3,34.6h-6.2
                v-7.8h6.2c0.6,0,1.1,0.1,1.7,0.2c0.5,0.1,1,0.4,1.4,0.7c0.4,0.3,0.7,0.7,1,1.2c0.2,0.5,0.4,1,0.4,1.7c0,0.7-0.1,1.3-0.3,1.8
                c-0.2,0.5-0.5,0.9-0.9,1.3s-0.9,0.6-1.4,0.7C297.5,34.5,296.9,34.6,296.3,34.6z"/>
    <polygon class="st0" points="310.8,33.3 318.7,25.9 317.3,25.9 306.4,36.1 306.4,25.9 305.3,25.9 305.3,43.7 306.4,43.7 306.4,37.4 310,34
            317.8,43.7 319.1,43.7"/>
  </g>

  <g id="logos">
    <g id="color">
      <g>
        <g class="path-a">
          <polygon fill="#f74989" points="0,0 0,66 84,66 84,0"/>
          <polygon fill="url(#arkane-gradient)" points="0,0 0,66 84,66 84,0"/>
        </g>
        <g class="path-dash">
          <polygon fill="#f74989" points="0,0 0,66 84,66 84,0"/>
          <polygon fill="url(#arkane-gradient)" points="0,0 0,66 84,66 84,0"/>
        </g>
      </g>
    </g>
  </g>
</svg>
