<svg xmlns="http://www.w3.org/2000/svg" fill="none" viewBox="0 0 1000 300" height="300" width="1000">
<rect fill="url(#paint0_linear_431_13654)" height="300" width="1000"></rect>
<path fill="black" d="M376.589 240.143H613.432L617.064 209.386L387.268 199.316L376.589 240.143Z" clip-rule="evenodd" fill-rule="evenodd"></path>
<mask height="207" width="431" y="47" x="285" maskUnits="userSpaceOnUse" style="mask-type:alpha" id="mask0_431_13654">
<path fill="white" d="M285.001 47H715.601V254H285.001V47Z" clip-rule="evenodd" fill-rule="evenodd"></path>
</mask>
<g mask="url(#mask0_431_13654)">
<path fill="black" d="M446.41 203.116C445.891 201.849 445.373 200.579 444.857 199.321L442.782 194.25C442.166 192.742 441.563 191.272 441.003 189.903C440.988 189.863 440.962 189.833 440.946 189.795C440.603 188.977 440.19 188.224 439.736 187.511C439.615 187.32 439.492 187.134 439.365 186.952C438.858 186.233 438.312 185.55 437.686 184.94C437.682 184.936 437.677 184.93 437.673 184.924C437.65 184.902 437.62 184.885 437.597 184.864C437.155 184.441 436.692 184.037 436.194 183.665C436.006 183.523 435.788 183.405 435.592 183.271C435.405 183.145 435.215 183.02 435.02 182.899C434.248 182.419 433.438 181.97 432.552 181.59C432.547 181.588 432.543 181.583 432.539 181.581C432.514 181.571 432.486 181.564 432.461 181.554C431.593 181.186 430.656 180.875 429.683 180.593C429.432 180.519 429.178 180.45 428.92 180.382C428.672 180.318 428.442 180.24 428.186 180.181C427.388 179.995 426.557 179.834 425.698 179.699C425.696 179.699 425.692 179.696 425.689 179.696C425.677 179.694 425.66 179.694 425.647 179.692C424.52 179.517 423.324 179.394 422.093 179.299C421.78 179.273 421.465 179.252 421.143 179.233C419.876 179.157 418.575 179.104 417.205 179.104C415.335 179.104 413.38 179.193 411.37 179.366C410.505 179.44 409.625 179.538 408.743 179.641C415.132 177.678 420.536 175.007 424.987 171.609C430.227 167.609 434.145 162.627 436.833 156.67C438.316 153.383 439.387 149.776 440.133 145.91L439.875 151.769L449.109 179.741H447.296L446.41 203.116ZM397.063 194.149L398.861 196.601C397.784 196.901 396.739 197.239 395.766 197.646C395.601 197.715 395.451 197.798 395.29 197.87C391.622 193.085 387.952 188.302 384.283 183.517C387.63 183.358 390.807 183.085 393.843 182.713C393.435 182.832 393.014 182.918 392.608 183.043L397.063 194.149ZM466.324 183.743C465.753 184.157 465.218 184.582 464.708 185.005L464.071 182.327H468.524C467.742 182.78 466.999 183.25 466.324 183.743V183.743ZM715.063 117.301C715.125 116.882 715.19 116.466 715.241 116.038C715.298 115.548 715.338 115.046 715.381 114.549C715.419 114.115 715.463 113.688 715.491 113.248C715.522 112.736 715.535 112.214 715.552 111.691C715.567 111.249 715.588 110.809 715.592 110.361C715.594 110.284 715.598 110.215 715.601 110.141C715.603 109.669 715.584 109.182 715.573 108.704C715.567 108.264 715.567 107.831 715.55 107.386C715.529 106.794 715.484 106.189 715.444 105.588C715.417 105.165 715.4 104.749 715.366 104.319C715.309 103.636 715.228 102.938 715.152 102.24C715.112 101.878 715.084 101.523 715.038 101.157C714.905 100.084 714.75 98.9989 714.57 97.8968C713.128 89.0376 710.545 81.4179 706.729 74.9787C702.951 68.6029 697.95 63.3631 691.627 59.2149C685.344 55.0941 677.735 52.0374 668.686 50.0151C659.666 47.997 649.186 46.9985 637.122 46.9985C634.988 46.9985 632.931 47.0408 630.911 47.1022C630.463 47.117 630.016 47.1297 629.574 47.1466C627.618 47.2185 625.705 47.318 623.854 47.4512C623.571 47.4724 623.3 47.4978 623.019 47.521C621.352 47.6501 619.731 47.8066 618.151 47.9843C617.815 48.0224 617.47 48.0562 617.136 48.0964C615.427 48.3037 613.772 48.5428 612.165 48.8093C612.029 48.8326 611.881 48.8474 611.748 48.8706C611.541 48.9045 611.355 48.9531 611.149 48.9891C609.645 49.2535 608.177 49.5433 606.764 49.8606C606.616 49.8945 606.462 49.9241 606.316 49.958C606.259 49.9706 606.197 49.9812 606.14 49.9939C604.697 50.3324 603.318 50.7089 601.969 51.1024C601.651 51.1955 601.336 51.2906 601.025 51.3858C599.644 51.811 598.298 52.2595 597.019 52.7481C596.902 52.7926 596.794 52.8412 596.678 52.8856C595.487 53.3489 594.347 53.8439 593.243 54.3601C593.09 54.432 592.921 54.4912 592.771 54.5631C592.669 54.6118 592.583 54.6689 592.483 54.7176C591.335 55.2803 590.232 55.8705 589.179 56.4945C588.982 56.6108 588.794 56.7356 588.599 56.8541C587.65 57.438 586.738 58.0472 585.868 58.6818C585.72 58.7897 585.566 58.8933 585.42 59.0012C585.348 59.0562 585.268 59.107 585.194 59.162C584.335 59.8199 583.529 60.5158 582.748 61.2266C582.556 61.4022 582.37 61.582 582.181 61.7597C581.361 62.5424 580.569 63.3483 579.837 64.1966C579.821 64.2156 579.799 64.2326 579.782 64.2537C579.778 64.2579 579.774 64.2643 579.77 64.2685C579.021 65.1422 578.338 66.0603 577.682 67.0016C577.536 67.2153 577.388 67.4268 577.246 67.6404C576.622 68.5839 576.034 69.5528 575.501 70.5639C575.421 70.7141 575.351 70.8706 575.272 71.0229C574.796 71.9558 574.361 72.9183 573.957 73.9083C573.872 74.1156 573.783 74.3208 573.701 74.5324C573.65 74.6614 573.591 74.7862 573.542 74.9174C573.18 75.8883 572.861 76.8931 572.567 77.917C572.539 78.0122 572.501 78.0989 572.474 78.1941C572.072 79.6262 571.535 81.5364 571.131 82.9685C570.936 83.6666 570.674 84.5952 570.479 85.2912C570.096 86.6451 569.588 88.4537 569.208 89.8076C568.84 91.1149 568.351 92.8579 567.983 94.1652C567.803 94.7999 567.566 95.6481 567.386 96.2849C567.037 97.5245 566.574 99.1766 566.225 100.416C564.473 106.644 562.722 112.869 560.972 119.097C560.89 119.389 560.839 119.706 560.765 120.003C560.632 120.519 560.516 121.05 560.401 121.581C560.304 122.035 560.175 122.467 560.09 122.934C560.001 123.423 559.957 123.95 559.881 124.453C559.798 125.008 559.716 125.564 559.65 126.135C559.614 126.444 559.553 126.734 559.523 127.049C559.449 127.819 559.43 128.635 559.386 129.431C559.358 129.949 559.312 130.45 559.297 130.979C559.293 131.14 559.274 131.288 559.27 131.451C559.236 132.968 559.255 134.531 559.327 136.143C559.559 141.469 560.304 146.36 561.601 150.809C562.906 155.289 564.765 159.315 567.215 162.886C569.677 166.478 572.73 169.602 576.408 172.265C580.1 174.939 584.417 177.141 589.386 178.876L607.181 147.72L610.104 141.977C610.312 141.933 610.498 141.873 610.724 141.84C611.323 141.753 611.972 141.7 612.677 141.7C613.121 141.7 613.582 141.719 614.06 141.753C614.538 141.789 615.031 141.844 615.537 141.916C616.042 141.988 616.558 142.077 617.085 142.187C617.612 142.297 618.147 142.423 618.689 142.572C620.138 142.961 621.491 143.452 622.699 144.006C623.907 144.56 624.971 145.178 625.836 145.821C626.704 146.464 627.372 147.134 627.791 147.79C628.212 148.448 628.381 149.093 628.25 149.69C628.214 149.975 628.013 151.549 627.715 153.918C627.417 156.296 627.021 159.478 626.596 162.966C626.169 166.471 625.712 170.292 625.297 173.909C624.887 177.494 624.516 180.873 624.258 183.553C624.248 183.561 624.235 183.57 624.227 183.578C624.189 183.61 624.157 183.65 624.121 183.682C623.969 183.815 623.835 183.968 623.689 184.107C623.376 184.41 623.072 184.718 622.79 185.051C622.735 185.114 622.67 185.167 622.615 185.233L614.972 194.585C614.583 191.68 613.802 189.271 612.685 187.333C611.39 185.093 609.683 183.432 607.727 182.214C605.774 180.998 603.572 180.219 601.294 179.747C599.015 179.273 596.655 179.104 594.385 179.104C592.265 179.104 590.3 179.265 588.47 179.559C586.64 179.851 584.944 180.274 583.368 180.799C581.79 181.323 580.33 181.949 578.974 182.648C577.614 183.346 576.358 184.116 575.186 184.926L574.909 179.741H558.749L554.476 191.082L554.04 179.741H553.071L553.941 177.181L553.55 166.964H537.557L532.607 189.277C532.356 188.488 532.078 187.737 531.744 187.062C530.68 184.911 529.218 183.312 527.547 182.133C525.88 180.957 524 180.2 522.096 179.737C520.194 179.273 518.265 179.104 516.499 179.104C514.043 179.104 511.815 179.305 509.789 179.667C507.762 180.031 505.934 180.553 504.282 181.198C502.628 181.846 501.147 182.614 499.815 183.464C498.48 184.317 497.291 185.252 496.225 186.227C495.434 184.799 494.444 183.638 493.32 182.703C492.201 181.77 490.949 181.057 489.64 180.524C488.732 180.156 487.795 179.898 486.854 179.684L487.065 157.591H545.579L554.457 122.829L554.072 113.284L562.358 79.1418L560.884 48.3651H444.44L442.574 90.6389L432.579 48.3651H391.67L387.418 97.8968C387.183 100.628 386.678 103.306 385.654 105.789C384.626 108.283 383.079 110.581 380.767 112.537C378.449 114.5 375.364 116.119 371.269 117.246C367.709 118.228 363.336 118.809 358.105 118.953L360.853 93.135L335.022 48.3651H294.113L286.044 97.8968C285.863 99.0052 285.708 100.099 285.573 101.176C285.526 101.548 285.499 101.908 285.456 102.276C285.38 102.972 285.3 103.672 285.243 104.355C285.207 104.789 285.188 105.208 285.16 105.635C285.12 106.24 285.076 106.847 285.054 107.439C285.035 107.886 285.035 108.319 285.029 108.757C285.021 109.235 284.999 109.722 285.002 110.191C285.002 110.272 285.008 110.348 285.008 110.426C285.012 110.879 285.033 111.319 285.046 111.763C285.063 112.288 285.076 112.814 285.107 113.329C285.133 113.766 285.177 114.196 285.213 114.627C285.258 115.131 285.298 115.636 285.355 116.129C285.404 116.557 285.469 116.971 285.528 117.39C285.598 117.874 285.666 118.359 285.75 118.833C285.824 119.245 285.911 119.647 285.994 120.051C286.064 120.381 286.119 120.72 286.193 121.045C286.224 121.179 286.264 121.306 286.298 121.437C286.328 121.562 286.349 121.695 286.381 121.82C286.451 122.09 286.537 122.346 286.611 122.613C286.736 123.066 286.863 123.518 287.003 123.96C287.125 124.345 287.257 124.722 287.39 125.101C287.542 125.528 287.697 125.957 287.862 126.376C288.01 126.751 288.168 127.117 288.327 127.483C288.505 127.889 288.684 128.293 288.877 128.69C289.05 129.05 289.234 129.405 289.421 129.757C289.533 129.97 289.63 130.19 289.746 130.4C289.842 130.571 289.954 130.734 290.051 130.903C290.252 131.25 290.461 131.593 290.673 131.931C290.906 132.297 291.143 132.661 291.388 133.018C291.614 133.348 291.847 133.674 292.086 133.998C292.346 134.347 292.615 134.692 292.89 135.032C293.139 135.345 293.395 135.652 293.66 135.957C293.95 136.291 294.25 136.621 294.557 136.947C294.832 137.239 295.109 137.528 295.397 137.814C295.526 137.941 295.642 138.078 295.773 138.203C297.343 139.712 299.01 141.315 300.715 142.954L306.236 148.264C308.368 150.314 310.528 152.389 312.703 154.479L319.167 160.694C321.052 162.505 322.899 164.282 324.688 166.004L329.632 170.755C329.782 170.901 329.951 171.034 330.108 171.178C330.279 171.339 330.44 171.506 330.616 171.66C330.747 171.777 330.891 171.88 331.022 171.994C331.303 172.233 331.591 172.466 331.881 172.699C332.204 172.955 332.532 173.209 332.869 173.456C333.173 173.678 333.482 173.898 333.797 174.114C334.148 174.355 334.504 174.592 334.868 174.823C335.193 175.03 335.523 175.233 335.858 175.432C336.236 175.656 336.623 175.876 337.017 176.092C337.207 176.196 337.385 176.308 337.579 176.411C337.683 176.466 337.797 176.515 337.903 176.57C336.837 177.112 335.813 177.691 334.876 178.349C332.158 180.263 329.977 182.673 328.354 185.596C326.723 188.533 325.651 191.989 325.156 195.985C325.023 197.062 324.949 198.096 324.915 199.101C324.904 199.431 324.923 199.742 324.923 200.066C324.923 200.723 324.929 201.379 324.974 202.005C324.98 202.105 324.972 202.215 324.98 202.314C325.001 202.574 325.061 202.809 325.088 203.065C325.154 203.622 325.224 204.174 325.325 204.702C325.393 205.058 325.477 205.398 325.56 205.741C325.628 206.018 325.672 206.312 325.75 206.583C325.812 206.795 325.9 206.983 325.97 207.19C326.023 207.355 326.055 207.537 326.114 207.698C326.171 207.861 326.258 208.002 326.321 208.161C326.499 208.616 326.698 209.052 326.909 209.479C327.055 209.775 327.201 210.069 327.364 210.353C327.605 210.776 327.876 211.176 328.151 211.571C328.278 211.751 328.378 211.952 328.513 212.127C328.564 212.195 328.629 212.25 328.682 212.318C329.012 212.735 329.376 213.122 329.746 213.505C329.924 213.689 330.085 213.887 330.273 214.065C330.309 214.099 330.336 214.137 330.372 214.171C330.92 214.677 331.506 215.15 332.13 215.592C335.136 217.725 338.498 220.109 341.956 222.561L349.938 228.219C350.447 228.581 350.951 228.938 351.456 229.296L361.282 236.264C361.775 236.613 362.3 236.935 362.848 237.237C363.028 237.337 363.222 237.421 363.408 237.516C363.707 237.667 363.996 237.827 364.309 237.965C364.394 238.003 364.491 238.032 364.578 238.068C364.811 238.168 365.054 238.257 365.295 238.348C365.678 238.494 366.069 238.633 366.471 238.762C366.588 238.798 366.691 238.845 366.808 238.881C366.958 238.925 367.125 238.957 367.277 238.999C367.483 239.056 367.675 239.124 367.884 239.177C368.096 239.23 368.322 239.268 368.536 239.317C368.819 239.38 369.107 239.443 369.397 239.498C369.848 239.587 370.313 239.661 370.78 239.729C371.072 239.773 371.358 239.82 371.656 239.854C371.768 239.869 371.874 239.89 371.986 239.902C372.403 239.947 372.841 239.972 373.27 240.006C373.533 240.025 373.786 240.053 374.053 240.07C374.878 240.114 375.72 240.142 376.589 240.142C378.69 240.142 380.608 239.991 382.36 239.706C384.109 239.418 385.694 238.995 387.13 238.449C388.564 237.903 389.851 237.237 391.006 236.461C391.069 236.418 391.122 236.368 391.185 236.325L394.771 239.562H403.338L403.912 230.959C405.564 232.74 407.218 234.523 408.87 236.304C408.887 236.321 408.906 236.334 408.923 236.351C409.213 236.657 409.524 236.943 409.862 237.207C409.938 237.269 410.025 237.322 410.105 237.381C410.306 237.529 410.503 237.679 410.719 237.815C410.765 237.844 410.823 237.861 410.871 237.889C410.954 237.939 411.021 237.999 411.106 238.045C411.609 238.333 412.155 238.578 412.722 238.802C412.855 238.855 412.995 238.898 413.133 238.948C413.403 239.046 413.666 239.154 413.949 239.238C414.313 239.348 414.696 239.435 415.077 239.522C415.155 239.541 415.22 239.57 415.299 239.589C415.333 239.596 415.368 239.598 415.402 239.604C416.001 239.733 416.619 239.843 417.253 239.924C417.363 239.938 417.482 239.932 417.59 239.945C418.654 240.065 419.745 240.144 420.875 240.144C422.36 240.144 423.849 240.089 425.334 239.947C426.819 239.805 428.296 239.577 429.762 239.226C431.225 238.877 432.674 238.405 434.102 237.779C434.826 237.461 435.545 237.102 436.258 236.702L438.124 239.562H451.84L452.064 232.803L455.26 239.562H468.991L469.385 221.285C470.121 220.589 470.855 219.978 471.593 219.451C472.334 218.926 473.078 218.484 473.84 218.131C474.601 217.776 475.378 217.509 476.179 217.329C476.979 217.152 477.804 217.061 478.663 217.061C479.23 217.061 479.74 217.101 480.218 217.166C480.368 217.187 480.501 217.221 480.645 217.249C480.96 217.308 481.261 217.382 481.538 217.475C481.588 217.492 481.635 217.513 481.684 217.532L481.658 219.527L484.899 239.562H498.63L498.651 221.285C499.368 220.589 500.087 219.978 500.815 219.451C501.541 218.926 502.275 218.484 503.03 218.131C503.781 217.776 504.553 217.509 505.348 217.329C506.146 217.152 506.969 217.061 507.828 217.061C509.065 217.061 510.091 217.213 510.935 217.532C511.777 217.85 512.439 218.334 512.947 218.998C513.455 219.662 513.81 220.507 514.043 221.543C514.275 222.582 514.383 223.815 514.398 225.258L514.538 239.562H528.252L531.975 226.867L532.254 239.562H545.968L549.706 231.767L549.97 239.562H563.703L577.032 219.527L576.92 217.422C577.094 217.462 577.299 217.482 577.462 217.532C578.532 217.85 579.391 218.334 580.07 218.998C580.749 219.662 581.248 220.507 581.6 221.543C581.951 222.582 582.152 223.815 582.234 225.258L583.046 239.562H596.777L603.64 232.784C604.046 233.186 604.469 233.567 604.915 233.92C605.937 234.722 607.079 235.382 608.304 235.934L603.834 240.027L604.632 251.264C605.47 251.484 606.633 251.763 608.065 252.062C609.497 252.36 611.196 252.673 613.1 252.961C615.004 253.248 617.115 253.509 619.363 253.695C621.614 253.883 624.007 253.999 626.475 253.999C627.62 253.999 628.732 253.938 629.826 253.841C629.942 253.83 630.067 253.834 630.184 253.824C630.251 253.817 630.313 253.798 630.38 253.792C631.419 253.682 632.426 253.523 633.399 253.316C633.486 253.299 633.581 253.293 633.665 253.274C633.767 253.253 633.856 253.212 633.957 253.187C634.245 253.122 634.541 253.067 634.82 252.99C635.497 252.804 636.151 252.588 636.786 252.349C636.811 252.339 636.839 252.335 636.86 252.326C636.921 252.303 636.97 252.267 637.031 252.244C637.888 251.907 638.696 251.514 639.46 251.072C639.538 251.027 639.629 251 639.705 250.953C641.488 249.881 643.409 248.724 645.383 247.537L648.111 245.895C650.709 244.332 653.372 242.729 656.031 241.129L660.888 238.206C661.813 237.65 662.718 237.106 663.617 236.564L669.295 233.148C669.348 233.116 669.392 233.076 669.445 233.042C669.991 232.706 670.507 232.338 671.004 231.953C671.114 231.868 671.237 231.796 671.345 231.707C671.357 231.697 671.372 231.688 671.385 231.678C671.962 231.204 672.498 230.69 673.001 230.142C673.026 230.117 673.056 230.096 673.079 230.07C673.202 229.935 673.297 229.774 673.416 229.634C673.765 229.22 674.105 228.795 674.412 228.34C674.571 228.103 674.71 227.847 674.856 227.599C675.106 227.176 675.347 226.747 675.561 226.292C675.618 226.172 675.694 226.066 675.749 225.941C675.823 225.774 675.867 225.579 675.935 225.406C676.032 225.165 676.151 224.942 676.238 224.693C676.316 224.469 676.36 224.217 676.43 223.984C676.525 223.663 676.618 223.339 676.697 223.003C676.821 222.482 676.917 221.941 676.999 221.387C677.035 221.154 677.101 220.944 677.128 220.703C677.141 220.593 677.134 220.466 677.145 220.354C677.209 219.732 677.23 219.079 677.242 218.417C677.249 218.095 677.272 217.79 677.266 217.458C677.249 216.449 677.183 215.402 677.048 214.3L672.781 179.741H656.622L653.656 182.683C652.613 182.036 651.475 181.478 650.254 180.998C650.402 180.962 650.544 180.923 650.69 180.888C651.081 180.79 651.488 180.701 651.87 180.6C652.004 180.564 652.131 180.522 652.264 180.486C652.393 180.45 652.528 180.42 652.655 180.384C652.975 180.295 653.273 180.194 653.586 180.101C654.083 179.953 654.582 179.804 655.067 179.648C655.492 179.51 655.907 179.364 656.319 179.221C656.793 179.053 657.265 178.888 657.722 178.715C658.124 178.561 658.513 178.402 658.904 178.241C659.348 178.059 659.793 177.875 660.224 177.683C660.601 177.516 660.969 177.342 661.335 177.167C661.756 176.966 662.172 176.763 662.576 176.553C662.727 176.477 662.887 176.407 663.035 176.329C663.236 176.221 663.423 176.103 663.621 175.993C664.013 175.775 664.398 175.557 664.774 175.33C665.109 175.132 665.434 174.928 665.756 174.721C666.12 174.488 666.475 174.254 666.824 174.013C667.137 173.797 667.442 173.577 667.744 173.355C668.079 173.105 668.406 172.853 668.728 172.597C669.018 172.365 669.303 172.13 669.583 171.891C669.724 171.768 669.881 171.654 670.02 171.529C670.183 171.385 670.329 171.229 670.488 171.081C670.636 170.945 670.795 170.818 670.936 170.681L677.623 164.25C680.836 161.157 684.189 157.931 687.57 154.68L698.098 144.549C700.425 142.313 702.686 140.135 704.785 138.119C704.926 137.981 705.055 137.833 705.195 137.693C705.485 137.406 705.764 137.114 706.041 136.818C706.344 136.494 706.642 136.166 706.93 135.834C707.192 135.529 707.45 135.221 707.704 134.905C707.975 134.567 708.241 134.222 708.499 133.873C708.738 133.549 708.973 133.224 709.202 132.892C709.445 132.534 709.682 132.172 709.912 131.806C710.126 131.468 710.335 131.125 710.536 130.778C710.627 130.62 710.731 130.469 710.82 130.311C710.943 130.091 711.048 129.858 711.165 129.634C711.351 129.283 711.537 128.927 711.71 128.568C711.901 128.172 712.083 127.768 712.258 127.362C712.419 126.996 712.578 126.632 712.726 126.258C712.891 125.839 713.045 125.412 713.195 124.984C713.329 124.606 713.464 124.229 713.587 123.846C713.726 123.404 713.851 122.953 713.976 122.503C714.052 122.23 714.143 121.966 714.213 121.686C714.245 121.57 714.264 121.447 714.293 121.329C714.323 121.206 714.361 121.09 714.391 120.965C714.469 120.633 714.526 120.286 714.596 119.948C714.68 119.546 714.767 119.144 714.841 118.733C714.926 118.262 714.994 117.781 715.063 117.301V117.301Z" clip-rule="evenodd" fill-rule="evenodd"></path>
</g>
<path fill="white" d="M357.515 172.684C362.205 172.684 366.296 173.075 369.79 173.854C373.287 174.632 376.192 175.802 378.502 177.355C380.816 178.912 382.538 180.858 383.661 183.189C384.791 185.531 385.319 188.262 385.245 191.386H367.199C367.087 190.796 366.799 190.218 366.315 189.685C365.83 189.15 365.149 188.659 364.25 188.243C363.351 187.826 362.232 187.483 360.874 187.244C359.516 187.005 357.919 186.872 356.057 186.872C353.451 186.872 351.359 187.136 349.675 187.619C347.991 188.103 346.718 188.805 345.751 189.679C344.782 190.555 344.12 191.606 343.661 192.782C343.202 193.961 342.946 195.268 342.792 196.658C342.635 198.062 342.597 199.433 342.794 200.698C342.989 201.965 343.418 203.127 344.194 204.112C344.973 205.1 346.1 205.913 347.687 206.477C349.278 207.042 351.327 207.359 353.953 207.359C355.672 207.359 357.229 207.3 358.611 207.163C359.994 207.027 361.204 206.812 362.228 206.498C363.254 206.185 364.094 205.773 364.739 205.244C365.382 204.713 365.833 204.068 366.074 203.283H353.199L354.16 194.016H385.032L382.948 219.529H372.578L371.866 212.692C370.747 213.856 369.49 214.907 368.081 215.829C366.668 216.754 365.099 217.551 363.353 218.201C361.604 218.852 359.679 219.358 357.555 219.701C355.429 220.043 353.104 220.223 350.562 220.223C346.092 220.223 342.138 219.724 338.751 218.715C335.369 217.71 332.56 216.198 330.372 214.171C328.191 212.151 326.634 209.625 325.75 206.583C324.868 203.556 324.654 200.025 325.156 195.987C325.651 191.989 326.723 188.533 328.354 185.598C329.977 182.675 332.156 180.266 334.876 178.351C337.588 176.443 340.839 175.026 344.617 174.087C348.391 173.147 352.694 172.684 357.515 172.684" clip-rule="evenodd" fill-rule="evenodd"></path>
<mask height="49" width="62" y="172" x="324" maskUnits="userSpaceOnUse" style="mask-type:alpha" id="mask1_431_13654">
<path fill="white" d="M344.617 174.087C340.839 175.026 337.588 176.443 334.876 178.351V178.351C332.156 180.266 329.977 182.675 328.354 185.598V185.598C326.723 188.535 325.651 191.989 325.156 195.987V195.987C324.654 200.025 324.868 203.558 325.75 206.585V206.585C326.634 209.625 328.191 212.151 330.372 214.171V214.171C332.56 216.198 335.369 217.708 338.751 218.715V218.715C342.138 219.724 346.092 220.221 350.559 220.221V220.221C353.104 220.221 355.429 220.043 357.555 219.701V219.701C359.679 219.358 361.604 218.852 363.353 218.201V218.201C365.101 217.551 366.668 216.754 368.079 215.829V215.829C369.49 214.905 370.744 213.856 371.866 212.692V212.692L372.578 219.529H382.948L385.032 194.018H354.158L353.199 203.283H366.076C365.83 204.068 365.382 204.715 364.739 205.244V205.244C364.094 205.773 363.254 206.185 362.228 206.498V206.498C361.202 206.812 359.994 207.025 358.613 207.163V207.163C357.227 207.3 355.672 207.359 353.953 207.359V207.359C351.327 207.359 349.278 207.042 347.687 206.475V206.475C346.1 205.913 344.973 205.1 344.196 204.112V204.112C343.42 203.127 342.989 201.965 342.792 200.698V200.698C342.599 199.433 342.635 198.062 342.792 196.658V196.658C342.946 195.268 343.202 193.963 343.661 192.784V192.784C344.12 191.604 344.782 190.555 345.751 189.681V189.681C346.718 188.805 347.991 188.101 349.675 187.619V187.619C351.359 187.136 353.451 186.872 356.059 186.872V186.872C357.919 186.872 359.516 187.005 360.874 187.244V187.244C362.232 187.483 363.351 187.828 364.248 188.243V188.243C365.149 188.659 365.83 189.15 366.315 189.683V189.683C366.799 190.218 367.087 190.796 367.197 191.386V191.386H385.245C385.319 188.262 384.791 185.531 383.663 183.189V183.189C382.538 180.858 380.816 178.912 378.502 177.355V177.355C376.192 175.802 373.289 174.634 369.79 173.854V173.854C366.296 173.078 362.205 172.684 357.515 172.684V172.684C352.694 172.684 348.389 173.147 344.617 174.087" clip-rule="evenodd" fill-rule="evenodd"></path>
</mask>
<g mask="url(#mask1_431_13654)">
<path fill="white" d="M357.515 172.684C362.205 172.684 366.296 173.075 369.79 173.854C373.287 174.632 376.192 175.802 378.502 177.355C380.816 178.912 382.538 180.858 383.661 183.189C384.791 185.531 385.319 188.262 385.245 191.386H367.199C367.087 190.796 366.799 190.218 366.315 189.685C365.83 189.15 365.149 188.659 364.25 188.243C363.351 187.826 362.232 187.483 360.874 187.244C359.516 187.005 357.919 186.872 356.057 186.872C353.451 186.872 351.359 187.136 349.675 187.619C347.991 188.103 346.718 188.805 345.751 189.679C344.782 190.555 344.12 191.606 343.661 192.782C343.202 193.961 342.946 195.268 342.792 196.658C342.635 198.062 342.597 199.433 342.794 200.698C342.989 201.965 343.418 203.127 344.194 204.112C344.973 205.1 346.1 205.913 347.687 206.477C349.278 207.042 351.327 207.359 353.953 207.359C355.672 207.359 357.229 207.3 358.611 207.163C359.994 207.027 361.204 206.812 362.228 206.498C363.254 206.185 364.094 205.773 364.739 205.244C365.382 204.713 365.833 204.068 366.074 203.283H353.199L354.16 194.016H385.032L382.948 219.529H372.578L371.866 212.692C370.747 213.856 369.49 214.907 368.081 215.829C366.668 216.754 365.099 217.551 363.353 218.201C361.604 218.852 359.679 219.358 357.555 219.701C355.429 220.043 353.104 220.223 350.562 220.223C346.092 220.223 342.138 219.724 338.751 218.715C335.369 217.71 332.56 216.198 330.372 214.171C328.191 212.151 326.634 209.625 325.75 206.583C324.868 203.556 324.654 200.025 325.156 195.987C325.651 191.989 326.723 188.533 328.354 185.598C329.977 182.675 332.156 180.266 334.876 178.351C337.588 176.443 340.839 175.026 344.617 174.087C348.391 173.147 352.694 172.684 357.515 172.684" clip-rule="evenodd" fill-rule="evenodd"></path>
</g>
<path fill="white" d="M425.743 206.289L425.83 204.62C425.189 204.455 424.484 204.309 423.714 204.184C422.946 204.059 422.113 203.953 421.214 203.869C420.315 203.784 419.348 203.721 418.312 203.676C417.275 203.634 416.171 203.613 414.992 203.613C413.089 203.613 411.456 203.655 410.07 203.757C408.687 203.86 407.551 204.025 406.649 204.269C405.748 204.512 405.078 204.835 404.623 205.256C404.168 205.677 403.927 206.196 403.885 206.832C403.847 207.382 403.937 207.818 404.16 208.159C404.382 208.501 404.735 208.753 405.226 208.935C405.717 209.117 406.343 209.229 407.108 209.297C407.876 209.364 408.784 209.386 409.837 209.386C411.229 209.386 412.655 209.301 414.079 209.149C415.502 208.994 416.922 208.77 418.299 208.493C419.676 208.216 421.011 207.884 422.263 207.511C423.517 207.139 424.689 206.727 425.743 206.289M417.205 179.106C421.341 179.106 425.013 179.442 428.186 180.181C431.363 180.919 434.046 182.059 436.195 183.667C438.35 185.277 439.975 187.356 441.033 189.973C442.092 192.6 442.583 195.771 442.463 199.557L441.648 219.529H425.049L425.309 214.577C423.64 215.727 421.935 216.656 420.202 217.401C418.468 218.147 416.708 218.71 414.933 219.127C413.156 219.546 411.362 219.819 409.564 219.988C407.766 220.157 405.964 220.223 404.164 220.223C401.79 220.223 399.506 220.013 397.424 219.561C395.342 219.108 393.466 218.414 391.907 217.443C390.352 216.474 389.115 215.23 388.311 213.68C387.509 212.133 387.137 210.285 387.31 208.099C387.518 205.487 388.457 203.365 389.931 201.65C391.404 199.938 393.411 198.631 395.766 197.647C398.116 196.666 400.813 196.006 403.667 195.591C406.518 195.179 409.528 195.009 412.507 195.009C413.932 195.009 415.274 195.054 416.539 195.141C417.806 195.227 418.997 195.358 420.124 195.53C421.252 195.699 422.316 195.913 423.329 196.164C424.342 196.416 425.305 196.71 426.227 197.04C426.288 195.851 426.013 194.95 425.478 194.265C424.945 193.582 424.154 193.114 423.185 192.795C422.216 192.475 421.07 192.304 419.826 192.213C418.582 192.12 417.241 192.109 415.881 192.109C414.573 192.109 413.22 192.137 411.804 192.204C410.389 192.272 408.911 192.378 407.36 192.534C405.809 192.691 404.185 192.896 402.473 193.163C400.762 193.427 398.962 193.753 397.062 194.151L392.607 183.043C394.676 182.414 396.783 181.852 398.892 181.365C401.003 180.879 403.117 180.464 405.207 180.13C407.297 179.796 409.361 179.54 411.371 179.366C413.38 179.195 415.335 179.106 417.205 179.106" clip-rule="evenodd" fill-rule="evenodd"></path>
<mask height="42" width="56" y="179" x="387" maskUnits="userSpaceOnUse" style="mask-type:alpha" id="mask2_431_13654">
<path fill="white" d="M411.37 179.366C409.36 179.54 407.294 179.796 405.206 180.13V180.13C403.116 180.466 401 180.879 398.891 181.365V181.365C396.782 181.854 394.675 182.412 392.604 183.043V183.043L397.061 194.151C398.961 193.755 400.761 193.429 402.473 193.163V193.163C404.184 192.898 405.806 192.691 407.359 192.534V192.534C408.912 192.38 410.386 192.272 411.804 192.204V192.204C413.217 192.137 414.573 192.109 415.878 192.109V192.109C417.238 192.109 418.581 192.12 419.825 192.211V192.211C421.069 192.304 422.215 192.477 423.184 192.795V192.795C424.153 193.114 424.942 193.582 425.477 194.267V194.267C426.01 194.95 426.288 195.851 426.226 197.04V197.04C425.304 196.71 424.341 196.418 423.328 196.164V196.164C422.315 195.913 421.249 195.699 420.123 195.528V195.528C418.996 195.358 417.803 195.227 416.538 195.143V195.143C415.271 195.054 413.932 195.009 412.506 195.009V195.009C409.527 195.009 406.517 195.179 403.666 195.593V195.593C400.812 196.006 398.115 196.666 395.765 197.647V197.647C393.41 198.631 391.401 199.94 389.931 201.65V201.65C388.454 203.365 387.515 205.487 387.31 208.099V208.099C387.136 210.282 387.506 212.133 388.31 213.682V213.682C389.112 215.23 390.349 216.474 391.906 217.443V217.443C393.465 218.414 395.342 219.108 397.423 219.561V219.561C399.505 220.011 401.789 220.221 404.163 220.221V220.221C405.961 220.221 407.765 220.159 409.563 219.988V219.988C411.361 219.819 413.155 219.546 414.93 219.129V219.129C416.707 218.71 418.467 218.147 420.2 217.401V217.401C421.932 216.656 423.639 215.727 425.306 214.577V214.577L425.048 219.529H441.647L442.462 199.557C442.582 195.771 442.092 192.6 441.03 189.973V189.973C439.974 187.356 438.35 185.277 436.192 183.665V183.665C434.043 182.061 431.362 180.921 428.185 180.181V180.181C425.012 179.442 421.34 179.106 417.204 179.106V179.106C415.334 179.106 413.38 179.193 411.37 179.366M407.107 209.297C406.34 209.229 405.713 209.117 405.223 208.935V208.935C404.734 208.753 404.379 208.504 404.157 208.161V208.161C403.937 207.818 403.846 207.384 403.884 206.832V206.832C403.924 206.198 404.167 205.677 404.622 205.254V205.254C405.077 204.833 405.747 204.512 406.646 204.269V204.269C407.55 204.025 408.683 203.862 410.069 203.757V203.757C411.452 203.653 413.088 203.613 414.989 203.613V203.613C416.168 203.613 417.274 203.634 418.311 203.676V203.676C419.345 203.721 420.314 203.784 421.211 203.869V203.869C422.112 203.953 422.943 204.059 423.713 204.184V204.184C424.483 204.309 425.188 204.455 425.829 204.62V204.62L425.742 206.289C424.688 206.727 423.514 207.137 422.262 207.511V207.511C421.008 207.882 419.673 208.216 418.298 208.493V208.493C416.921 208.772 415.499 208.994 414.078 209.149V209.149C412.654 209.301 411.228 209.386 409.836 209.386V209.386C408.783 209.386 407.875 209.364 407.107 209.297" clip-rule="evenodd" fill-rule="evenodd"></path>
</mask>
<g mask="url(#mask2_431_13654)">
<path fill="white" d="M425.742 206.289L425.829 204.62C425.188 204.455 424.483 204.309 423.713 204.184C422.945 204.059 422.112 203.953 421.213 203.869C420.314 203.784 419.347 203.721 418.311 203.676C417.274 203.634 416.17 203.613 414.992 203.613C413.088 203.613 411.455 203.655 410.069 203.757C408.686 203.86 407.55 204.025 406.648 204.269C405.747 204.512 405.077 204.835 404.622 205.256C404.167 205.677 403.926 206.196 403.884 206.832C403.846 207.382 403.937 207.818 404.159 208.159C404.381 208.501 404.734 208.753 405.225 208.935C405.716 209.117 406.342 209.229 407.107 209.297C407.875 209.364 408.783 209.386 409.836 209.386C411.228 209.386 412.654 209.301 414.078 209.149C415.501 208.994 416.921 208.77 418.298 208.493C419.675 208.216 421.01 207.884 422.262 207.511C423.517 207.139 424.688 206.727 425.742 206.289M417.204 179.106C421.34 179.106 425.012 179.442 428.185 180.181C431.362 180.919 434.045 182.059 436.194 183.667C438.349 185.277 439.974 187.356 441.032 189.973C442.091 192.6 442.582 195.771 442.462 199.557L441.647 219.529H425.048L425.308 214.577C423.639 215.727 421.934 216.656 420.202 217.401C418.467 218.147 416.707 218.71 414.932 219.127C413.155 219.546 411.361 219.819 409.563 219.988C407.765 220.157 405.963 220.223 404.163 220.223C401.789 220.223 399.505 220.013 397.423 219.561C395.342 219.108 393.465 218.414 391.906 217.443C390.351 216.474 389.114 215.23 388.31 213.68C387.508 212.133 387.136 210.285 387.309 208.099C387.517 205.487 388.456 203.365 389.93 201.65C391.403 199.938 393.41 198.631 395.765 197.647C398.115 196.666 400.812 196.006 403.666 195.591C406.517 195.179 409.527 195.009 412.506 195.009C413.932 195.009 415.273 195.054 416.538 195.141C417.805 195.227 418.996 195.358 420.123 195.53C421.251 195.699 422.315 195.913 423.328 196.164C424.341 196.416 425.304 196.71 426.226 197.04C426.287 195.851 426.012 194.95 425.477 194.265C424.944 193.582 424.153 193.114 423.184 192.795C422.215 192.475 421.069 192.304 419.825 192.213C418.581 192.12 417.24 192.109 415.88 192.109C414.572 192.109 413.219 192.137 411.803 192.204C410.388 192.272 408.91 192.378 407.359 192.534C405.808 192.691 404.184 192.896 402.472 193.163C400.761 193.427 398.961 193.753 397.061 194.151L392.606 183.043C394.675 182.414 396.782 181.852 398.891 181.365C401.002 180.879 403.116 180.464 405.206 180.13C407.296 179.796 409.36 179.54 411.37 179.366C413.379 179.195 415.334 179.106 417.204 179.106" clip-rule="evenodd" fill-rule="evenodd"></path>
</g>
<path fill="white" d="M516.498 179.105C518.266 179.105 520.194 179.274 522.097 179.737C524.001 180.201 525.88 180.958 527.547 182.134C529.218 183.312 530.68 184.912 531.744 187.063C532.81 189.219 533.478 191.933 533.559 195.334L534.128 219.528H517.528L517.325 202.491C517.304 200.777 517.171 199.311 516.887 198.078C516.606 196.845 516.174 195.844 515.559 195.055C514.945 194.268 514.146 193.693 513.128 193.316C512.111 192.937 510.873 192.756 509.38 192.756C508.343 192.756 507.351 192.863 506.389 193.075C505.428 193.289 504.5 193.606 503.592 194.025C502.682 194.446 501.796 194.968 500.918 195.594C500.04 196.218 499.175 196.944 498.308 197.769L498.278 219.528H481.658L481.88 202.491C481.901 200.777 481.806 199.311 481.556 198.078C481.307 196.845 480.902 195.844 480.31 195.055C479.718 194.268 478.935 193.693 477.928 193.316C476.921 192.937 475.69 192.756 474.197 192.756C473.16 192.756 472.166 192.863 471.199 193.075C470.232 193.289 469.293 193.606 468.375 194.025C467.455 194.446 466.552 194.968 465.657 195.594C464.762 196.218 463.872 196.944 462.981 197.769L462.406 219.528H445.787L447.297 179.742H463.457L463.286 186.227C464.204 185.415 465.198 184.565 466.325 183.744C467.451 182.923 468.709 182.134 470.161 181.447C471.61 180.759 473.251 180.173 475.144 179.761C477.036 179.346 479.181 179.105 481.637 179.105C482.899 179.105 484.247 179.194 485.605 179.416C486.963 179.638 488.332 179.993 489.639 180.524C490.951 181.057 492.201 181.77 493.322 182.703C494.443 183.638 495.435 184.8 496.224 186.227C497.29 185.25 498.479 184.317 499.814 183.465C501.149 182.614 502.627 181.847 504.282 181.199C505.936 180.554 507.761 180.032 509.788 179.668C511.815 179.306 514.042 179.105 516.498 179.105" clip-rule="evenodd" fill-rule="evenodd"></path>
<mask height="41" width="90" y="179" x="445" maskUnits="userSpaceOnUse" style="mask-type:alpha" id="mask3_431_13654">
<path fill="white" d="M509.789 179.669C507.761 180.03 505.935 180.555 504.283 181.2V181.2C502.629 181.847 501.148 182.615 499.815 183.466V183.466C498.481 184.316 497.292 185.251 496.224 186.228V186.228C495.435 184.798 494.442 183.639 493.321 182.704V182.704C492.202 181.769 490.95 181.058 489.64 180.525V180.525C488.331 179.992 486.962 179.639 485.604 179.417V179.417C484.246 179.193 482.901 179.106 481.638 179.106V179.106C479.182 179.106 477.037 179.347 475.146 179.76V179.76C473.253 180.174 471.609 180.76 470.16 181.448V181.448C468.711 182.135 467.452 182.922 466.325 183.743V183.743C465.197 184.564 464.203 185.416 463.287 186.228V186.228L463.456 179.741H447.297L445.789 219.529H462.407L462.982 197.77C463.873 196.945 464.761 196.219 465.658 195.593V195.593C466.553 194.969 467.454 194.447 468.375 194.026V194.026C469.295 193.605 470.234 193.287 471.199 193.076V193.076C472.165 192.864 473.162 192.757 474.196 192.757V192.757C475.69 192.757 476.923 192.936 477.928 193.317V193.317C478.935 193.694 479.717 194.267 480.31 195.056V195.056C480.902 195.845 481.306 196.846 481.555 198.077V198.077C481.807 199.312 481.902 200.778 481.881 202.492V202.492L481.657 219.529H498.28L498.309 197.77C499.175 196.945 500.042 196.219 500.92 195.593V195.593C501.795 194.969 502.682 194.447 503.591 194.026V194.026C504.501 193.605 505.43 193.287 506.39 193.076V193.076C507.35 192.864 508.345 192.757 509.379 192.757V192.757C510.873 192.757 512.112 192.936 513.128 193.317V193.317C514.147 193.694 514.945 194.267 515.56 195.056V195.056C516.176 195.845 516.605 196.846 516.889 198.077V198.077C517.17 199.312 517.305 200.778 517.324 202.492V202.492L517.53 219.529H534.129L533.558 195.335C533.48 191.932 532.811 189.22 531.745 187.062V187.062C530.681 184.913 529.219 183.313 527.548 182.135V182.135C525.881 180.959 524.001 180.2 522.097 179.738V179.738C520.193 179.275 518.266 179.106 516.499 179.106V179.106C514.044 179.106 511.814 179.305 509.789 179.669" clip-rule="evenodd" fill-rule="evenodd"></path>
</mask>
<g mask="url(#mask3_431_13654)">
<path fill="white" d="M516.498 179.106C518.266 179.106 520.194 179.275 522.097 179.738C524.001 180.202 525.88 180.959 527.547 182.135C529.218 183.313 530.68 184.913 531.744 187.064C532.81 189.22 533.478 191.934 533.559 195.335L534.128 219.529H517.528L517.325 202.492C517.304 200.778 517.171 199.312 516.887 198.079C516.606 196.846 516.174 195.845 515.559 195.056C514.945 194.269 514.146 193.694 513.128 193.317C512.111 192.938 510.873 192.757 509.38 192.757C508.343 192.757 507.351 192.864 506.389 193.076C505.428 193.29 504.5 193.607 503.592 194.026C502.682 194.447 501.796 194.969 500.918 195.595C500.04 196.219 499.175 196.945 498.308 197.77L498.278 219.529H481.658L481.88 202.492C481.901 200.778 481.806 199.312 481.556 198.079C481.307 196.846 480.902 195.845 480.31 195.056C479.718 194.269 478.935 193.694 477.928 193.317C476.921 192.938 475.69 192.757 474.197 192.757C473.16 192.757 472.166 192.864 471.199 193.076C470.232 193.29 469.293 193.607 468.375 194.026C467.455 194.447 466.552 194.969 465.657 195.595C464.762 196.219 463.872 196.945 462.981 197.77L462.406 219.529H445.787L447.297 179.743H463.457L463.286 186.228C464.204 185.416 465.198 184.566 466.325 183.745C467.451 182.924 468.709 182.135 470.161 181.448C471.61 180.76 473.251 180.174 475.144 179.762C477.036 179.347 479.181 179.106 481.637 179.106C482.899 179.106 484.247 179.195 485.605 179.417C486.963 179.639 488.332 179.994 489.639 180.525C490.951 181.058 492.201 181.771 493.322 182.704C494.443 183.639 495.435 184.801 496.224 186.228C497.29 185.251 498.479 184.318 499.814 183.466C501.149 182.615 502.627 181.847 504.282 181.2C505.936 180.555 507.761 180.032 509.788 179.669C511.815 179.307 514.042 179.106 516.498 179.106" clip-rule="evenodd" fill-rule="evenodd"></path>
</g>
<path fill="white" d="M594.385 179.105C596.655 179.105 599.016 179.274 601.294 179.748C603.572 180.22 605.774 180.998 607.727 182.215C609.682 183.431 611.391 185.092 612.683 187.334C613.98 189.582 614.86 192.417 615.15 195.986L617.064 219.528H600.444L599.257 202.491C599.139 200.777 598.876 199.311 598.438 198.078C598 196.845 597.385 195.844 596.556 195.055C595.729 194.268 594.686 193.693 593.391 193.316C592.096 192.937 590.552 192.756 588.718 192.756C587.514 192.756 586.302 192.885 585.109 193.122C583.918 193.358 582.749 193.707 581.634 194.147C580.519 194.587 579.459 195.121 578.488 195.73C577.515 196.341 576.633 197.027 575.871 197.769L577.033 219.528H560.414L558.75 179.742H574.909L575.186 184.927C576.358 184.116 577.615 183.346 578.973 182.648C580.331 181.95 581.79 181.324 583.368 180.799C584.944 180.275 586.641 179.852 588.471 179.558C590.3 179.266 592.266 179.105 594.385 179.105" clip-rule="evenodd" fill-rule="evenodd"></path>
<mask height="41" width="60" y="179" x="558" maskUnits="userSpaceOnUse" style="mask-type:alpha" id="mask4_431_13654">
<path fill="white" d="M588.47 179.559C586.638 179.853 584.944 180.276 583.368 180.8V180.8C581.79 181.323 580.33 181.949 578.972 182.649V182.649C577.614 183.345 576.355 184.117 575.186 184.925V184.925L574.908 179.741H558.749L560.414 219.529H577.032L575.871 197.77C576.632 197.027 577.517 196.342 578.488 195.731V195.731C579.459 195.124 580.518 194.588 581.633 194.148V194.148C582.748 193.706 583.918 193.359 585.111 193.122V193.122C586.3 192.883 587.514 192.757 588.718 192.757V192.757C590.552 192.757 592.098 192.936 593.391 193.317V193.317C594.685 193.694 595.728 194.267 596.555 195.056V195.056C597.384 195.845 598 196.846 598.438 198.077V198.077C598.876 199.312 599.138 200.778 599.257 202.492V202.492L600.443 219.529H617.062L615.151 195.987C614.86 192.42 613.98 189.583 612.683 187.335V187.335C611.39 185.092 609.681 183.434 607.726 182.216V182.216C605.772 180.999 603.572 180.221 601.294 179.747V179.747C599.013 179.275 596.655 179.106 594.385 179.106V179.106C592.265 179.106 590.3 179.267 588.47 179.559" clip-rule="evenodd" fill-rule="evenodd"></path>
</mask>
<g mask="url(#mask4_431_13654)">
<path fill="white" d="M594.385 179.106C596.655 179.106 599.015 179.275 601.294 179.749C603.572 180.221 605.774 180.999 607.726 182.216C609.681 183.432 611.39 185.092 612.683 187.335C613.98 189.583 614.86 192.418 615.149 195.987L617.064 219.529H600.443L599.257 202.492C599.138 200.778 598.876 199.312 598.438 198.079C598 196.846 597.384 195.845 596.555 195.056C595.728 194.269 594.685 193.694 593.391 193.317C592.096 192.938 590.552 192.757 588.718 192.757C587.514 192.757 586.302 192.886 585.109 193.122C583.918 193.359 582.748 193.708 581.633 194.148C580.518 194.588 579.459 195.122 578.488 195.731C577.515 196.342 576.632 197.027 575.871 197.77L577.032 219.529H560.414L558.749 179.743H574.908L575.186 184.927C576.357 184.117 577.614 183.347 578.972 182.649C580.33 181.951 581.79 181.325 583.368 180.8C584.944 180.276 586.64 179.853 588.47 179.559C590.3 179.267 592.265 179.106 594.385 179.106" clip-rule="evenodd" fill-rule="evenodd"></path>
</g>
<path fill="white" d="M647.828 204.019C650.005 204.019 651.803 203.928 653.267 203.719C654.732 203.51 655.862 203.184 656.704 202.718C657.546 202.251 658.1 201.644 658.413 200.872C658.724 200.1 658.794 199.165 658.669 198.039C658.542 196.916 658.265 195.985 657.783 195.217C657.301 194.454 656.617 193.853 655.678 193.392C654.739 192.931 653.548 192.611 652.05 192.406C650.552 192.201 648.75 192.11 646.592 192.11C644.439 192.11 642.658 192.201 641.205 192.406C639.751 192.611 638.624 192.931 637.78 193.392C636.936 193.853 636.373 194.454 636.049 195.217C635.726 195.985 635.639 196.916 635.747 198.039C635.853 199.165 636.119 200.1 636.593 200.872C637.067 201.644 637.748 202.251 638.689 202.718C639.629 203.184 640.828 203.51 642.334 203.719C643.842 203.928 645.655 204.019 647.828 204.019V204.019ZM656.621 179.741H672.781L677.048 214.302C677.549 218.376 677.229 221.82 676.237 224.695C675.241 227.58 673.572 229.886 671.385 231.68C669.193 233.478 666.483 234.757 663.42 235.587C660.353 236.418 656.934 236.799 653.324 236.799C650.33 236.799 647.426 236.659 644.693 236.433C641.96 236.209 639.398 235.898 637.082 235.553C634.767 235.208 632.701 234.832 630.96 234.476C629.219 234.121 627.801 233.784 626.784 233.522L625.612 220.083C626.822 220.305 628.313 220.597 630.01 220.908C631.709 221.221 633.612 221.551 635.647 221.856C637.682 222.16 639.849 222.437 642.072 222.636C644.293 222.837 646.571 222.962 648.826 222.962C650.857 222.962 652.638 222.842 654.155 222.499C655.672 222.154 656.922 221.589 657.884 220.701C658.849 219.812 659.526 218.602 659.898 216.969C660.27 215.342 660.34 213.295 660.089 210.733C659.312 211.795 658.381 212.749 657.29 213.58C656.196 214.414 654.944 215.127 653.525 215.706C652.105 216.286 650.523 216.732 648.771 217.035C647.018 217.335 645.097 217.492 643.005 217.492C639.81 217.492 636.802 217.119 634.071 216.345C631.345 215.571 628.895 214.397 626.809 212.8C624.73 211.205 623.014 209.191 621.749 206.731C620.489 204.279 619.676 201.389 619.395 198.039C619.114 194.705 619.439 191.853 620.277 189.452C621.11 187.06 622.458 185.112 624.224 183.58C625.991 182.051 628.176 180.932 630.7 180.195C633.219 179.459 636.077 179.106 639.189 179.106C641.224 179.106 643.123 179.254 644.89 179.54C646.658 179.827 648.291 180.25 649.793 180.802C651.297 181.355 652.672 182.034 653.916 182.831C655.164 183.629 656.281 184.545 657.273 185.568L656.621 179.741Z" clip-rule="evenodd" fill-rule="evenodd"></path>
<mask height="58" width="59" y="179" x="619" maskUnits="userSpaceOnUse" style="mask-type:alpha" id="mask5_431_13654">
<path fill="white" d="M630.7 180.195C628.176 180.932 625.989 182.048 624.225 183.58V183.58C622.456 185.112 621.111 187.06 620.275 189.452V189.452C619.438 191.851 619.114 194.705 619.395 198.039V198.039C619.677 201.387 620.489 204.279 621.75 206.731V206.731C623.015 209.191 624.73 211.207 626.81 212.8V212.8C628.895 214.397 631.343 215.571 634.072 216.345V216.345C636.803 217.117 639.811 217.494 643.005 217.494V217.494C645.097 217.494 647.018 217.335 648.772 217.035V217.035C650.523 216.732 652.107 216.286 653.525 215.704V215.704C654.944 215.127 656.197 214.414 657.288 213.58V213.58C658.382 212.749 659.312 211.795 660.087 210.735V210.735C660.341 213.295 660.271 215.342 659.898 216.969V216.969C659.526 218.6 658.849 219.812 657.885 220.701V220.701C656.922 221.589 655.67 222.156 654.155 222.499V222.499C652.638 222.842 650.855 222.96 648.827 222.96V222.96C646.569 222.96 644.293 222.837 642.072 222.636V222.636C639.849 222.437 637.683 222.16 635.646 221.856V221.856C633.613 221.551 631.709 221.221 630.01 220.908V220.908C628.314 220.599 626.822 220.307 625.612 220.085V220.085L626.784 233.522C627.8 233.784 629.219 234.119 630.958 234.476V234.476C632.701 234.832 634.768 235.208 637.082 235.553V235.553C639.396 235.898 641.96 236.209 644.693 236.435V236.435C647.426 236.659 650.331 236.799 653.324 236.799V236.799C656.935 236.799 660.353 236.42 663.421 235.587V235.587C666.484 234.757 669.191 233.478 671.385 231.677V231.677C673.57 229.886 675.241 227.58 676.238 224.692V224.692C677.228 221.82 677.549 218.376 677.048 214.302V214.302L672.781 179.741H656.62L657.273 185.568C656.281 184.545 655.162 183.629 653.916 182.831V182.831C652.672 182.034 651.297 181.355 649.793 180.802V180.802C648.291 180.25 646.658 179.825 644.89 179.54V179.54C643.123 179.254 641.224 179.106 639.187 179.106V179.106C636.077 179.106 633.219 179.459 630.7 180.195V180.195ZM642.334 203.719C640.828 203.51 639.628 203.184 638.687 202.718V202.718C637.748 202.251 637.067 201.644 636.591 200.872V200.872C636.117 200.1 635.852 199.162 635.744 198.039V198.039C635.639 196.916 635.723 195.983 636.049 195.219V195.219C636.373 194.454 636.933 193.851 637.779 193.392V193.392C638.624 192.933 639.751 192.611 641.202 192.404V192.404C642.658 192.199 644.437 192.11 646.59 192.11V192.11C648.75 192.11 650.552 192.199 652.05 192.404V192.404C653.545 192.611 654.739 192.933 655.678 193.392V193.392C656.617 193.851 657.3 194.454 657.783 195.219V195.219C658.263 195.983 658.544 196.916 658.669 198.039V198.039C658.794 199.162 658.724 200.1 658.411 200.872V200.872C658.1 201.644 657.546 202.251 656.704 202.718V202.718C655.86 203.184 654.732 203.51 653.266 203.719V203.719C651.802 203.926 650.004 204.019 647.825 204.019V204.019C645.655 204.019 643.842 203.926 642.334 203.719V203.719Z" clip-rule="evenodd" fill-rule="evenodd"></path>
</mask>
<g mask="url(#mask5_431_13654)">
<path fill="white" d="M647.828 204.019C650.005 204.019 651.803 203.928 653.267 203.719C654.732 203.51 655.862 203.184 656.704 202.718C657.546 202.251 658.1 201.644 658.413 200.872C658.724 200.1 658.794 199.165 658.669 198.039C658.542 196.916 658.265 195.985 657.783 195.217C657.301 194.454 656.617 193.853 655.678 193.392C654.739 192.931 653.548 192.611 652.05 192.406C650.552 192.201 648.75 192.11 646.592 192.11C644.439 192.11 642.658 192.201 641.205 192.406C639.751 192.611 638.624 192.931 637.78 193.392C636.936 193.853 636.373 194.454 636.049 195.217C635.726 195.985 635.639 196.916 635.747 198.039C635.853 199.165 636.119 200.1 636.593 200.872C637.067 201.644 637.748 202.251 638.689 202.718C639.629 203.184 640.828 203.51 642.334 203.719C643.842 203.928 645.655 204.019 647.828 204.019V204.019ZM656.621 179.741H672.781L677.048 214.302C677.549 218.376 677.229 221.82 676.237 224.695C675.241 227.58 673.572 229.886 671.385 231.68C669.193 233.478 666.483 234.757 663.42 235.587C660.353 236.418 656.934 236.799 653.324 236.799C650.33 236.799 647.426 236.659 644.693 236.433C641.96 236.209 639.398 235.898 637.082 235.553C634.767 235.208 632.701 234.832 630.96 234.476C629.219 234.121 627.801 233.784 626.784 233.522L625.612 220.083C626.822 220.305 628.313 220.597 630.01 220.908C631.709 221.221 633.612 221.551 635.647 221.856C637.682 222.16 639.849 222.437 642.072 222.636C644.293 222.837 646.571 222.962 648.826 222.962C650.857 222.962 652.638 222.842 654.155 222.499C655.672 222.154 656.922 221.589 657.884 220.701C658.849 219.812 659.526 218.602 659.898 216.969C660.27 215.342 660.34 213.295 660.089 210.733C659.312 211.795 658.381 212.749 657.29 213.58C656.196 214.414 654.944 215.127 653.525 215.706C652.105 216.286 650.523 216.732 648.771 217.035C647.018 217.335 645.097 217.492 643.005 217.492C639.81 217.492 636.802 217.119 634.071 216.345C631.345 215.571 628.895 214.397 626.809 212.8C624.73 211.205 623.014 209.191 621.749 206.731C620.489 204.279 619.676 201.389 619.395 198.039C619.114 194.705 619.439 191.853 620.277 189.452C621.11 187.06 622.458 185.112 624.224 183.58C625.991 182.051 628.176 180.932 630.7 180.195C633.219 179.459 636.077 179.106 639.189 179.106C641.224 179.106 643.123 179.254 644.89 179.54C646.658 179.827 648.291 180.25 649.793 180.802C651.297 181.355 652.672 182.034 653.916 182.831C655.164 183.629 656.281 184.545 657.273 185.568L656.621 179.741Z" clip-rule="evenodd" fill-rule="evenodd"></path>
</g>
<path fill="white" d="M432.578 48.3647L429.928 97.8986C429.446 106.916 427.643 114.877 424.394 121.756C421.111 128.705 416.364 134.526 410.033 139.206C403.659 143.919 395.705 147.458 386.067 149.821C376.396 152.192 365.064 153.372 351.984 153.372C338.863 153.372 327.761 152.203 318.593 149.844C309.457 147.492 302.271 143.97 296.927 139.265C291.62 134.596 288.146 128.779 286.382 121.821C284.635 114.934 284.569 106.955 286.044 97.8986L294.112 48.3647H335.021L328.554 97.8986C328.193 100.665 328.117 103.363 328.603 105.855C329.09 108.355 330.139 110.648 332.03 112.594C333.923 114.549 336.661 116.152 340.515 117.269C344.373 118.388 349.347 119.016 355.701 119.016C362.056 119.016 367.167 118.378 371.268 117.248C375.364 116.118 378.448 114.5 380.768 112.537C383.078 110.58 384.627 108.283 385.653 105.789C386.677 103.305 387.182 100.627 387.417 97.8986L391.669 48.3647H432.578Z" clip-rule="evenodd" fill-rule="evenodd"></path>
<mask height="106" width="148" y="48" x="285" maskUnits="userSpaceOnUse" style="mask-type:alpha" id="mask6_431_13654">
<path fill="white" d="M391.668 48.3657L387.416 97.8995C387.184 100.631 386.676 103.306 385.654 105.792V105.792C384.626 108.286 383.078 110.581 380.768 112.538V112.538C378.449 114.501 375.365 116.119 371.27 117.249V117.249C367.166 118.381 362.057 119.017 355.7 119.017V119.017C349.346 119.017 344.372 118.389 340.514 117.27V117.27C336.66 116.153 333.925 114.55 332.029 112.595V112.595C330.14 110.649 329.089 108.356 328.602 105.853V105.853C328.118 103.364 328.192 100.666 328.554 97.8995V97.8995L335.022 48.3657H294.111L286.043 97.8995C284.571 106.958 284.634 114.935 286.381 121.822V121.822C288.146 128.78 291.619 134.597 296.929 139.268V139.268C302.272 143.968 309.458 147.493 318.594 149.845V149.845C327.762 152.204 338.862 153.373 351.986 153.373V153.373C365.065 153.373 376.395 152.193 386.067 149.822V149.822C395.704 147.459 403.66 143.92 410.034 139.209V139.209C416.363 134.527 421.112 128.706 424.393 121.757V121.757C427.644 114.878 429.447 106.92 429.929 97.8995V97.8995L432.578 48.3657H391.668Z" clip-rule="evenodd" fill-rule="evenodd"></path>
</mask>
<g mask="url(#mask6_431_13654)">
<path fill="white" d="M432.578 48.3657L429.928 97.8995C429.446 106.917 427.643 114.878 424.394 121.757C421.111 128.706 416.364 134.527 410.033 139.207C403.659 143.92 395.705 147.459 386.067 149.822C376.396 152.193 365.064 153.373 351.984 153.373C338.863 153.373 327.761 152.204 318.593 149.845C309.457 147.493 302.271 143.97 296.927 139.266C291.62 134.597 288.146 128.78 286.382 121.822C284.635 114.935 284.569 106.955 286.044 97.8995L294.112 48.3657H335.021L328.554 97.8995C328.193 100.666 328.117 103.364 328.603 105.856C329.09 108.356 330.139 110.649 332.03 112.595C333.923 114.55 336.661 116.153 340.515 117.27C344.373 118.389 349.347 119.017 355.701 119.017C362.056 119.017 367.167 118.379 371.268 117.249C375.364 116.119 378.448 114.501 380.768 112.538C383.078 110.581 384.627 108.284 385.653 105.79C386.677 103.306 387.182 100.628 387.417 97.8995L391.669 48.3657H432.578Z" clip-rule="evenodd" fill-rule="evenodd"></path>
</g>
<path fill="white" d="M560.884 48.3647L562.357 79.1436H484.984L484.857 89.9828H553.132L554.458 122.828H484.468L484.128 151.771H439.876L444.439 48.3647H560.884Z" clip-rule="evenodd" fill-rule="evenodd"></path>
<mask height="104" width="124" y="48" x="439" maskUnits="userSpaceOnUse" style="mask-type:alpha" id="mask7_431_13654">
<path fill="white" d="M444.439 48.3657L439.876 151.772H484.128L484.471 122.829H554.458L553.13 89.9859H484.858L484.987 79.1446H562.357L560.885 48.3657H444.439Z" clip-rule="evenodd" fill-rule="evenodd"></path>
</mask>
<g mask="url(#mask7_431_13654)">
<path fill="white" d="M560.885 48.3657L562.357 79.1446H484.985L484.858 89.9838H553.132L554.458 122.829H484.469L484.128 151.772H439.876L444.439 48.3657H560.885Z" clip-rule="evenodd" fill-rule="evenodd"></path>
</g>
<mask height="107" width="146" y="47" x="570" maskUnits="userSpaceOnUse" style="mask-type:alpha" id="mask8_431_13654">
<path fill="white" d="M570.564 47H715.601V153.354H570.564V47Z" clip-rule="evenodd" fill-rule="evenodd"></path>
</mask>
<g mask="url(#mask8_431_13654)">
<path fill="white" d="M633.178 78.918C633.064 78.9899 632.992 79.0872 632.96 79.193C632.928 79.2966 632.937 79.4109 632.977 79.5166C633.017 79.6224 633.089 79.7197 633.191 79.7959C633.292 79.8699 633.421 79.9228 633.571 79.9334C634.671 80.0434 635.771 80.1724 636.871 80.3205C637.971 80.4707 639.069 80.6399 640.167 80.8303C641.263 81.0207 642.361 81.2301 643.454 81.4607C644.548 81.6913 645.64 81.943 646.729 82.2138C647.804 82.4761 648.876 82.7595 649.944 83.0599C651.013 83.3624 652.077 83.6839 653.134 84.0245C654.194 84.3672 655.25 84.7268 656.297 85.1076C657.346 85.4884 658.389 85.8882 659.426 86.307C659.449 86.3176 659.474 86.3261 659.5 86.3324C659.523 86.3409 659.548 86.3451 659.572 86.3514C659.597 86.3557 659.62 86.3599 659.646 86.362C659.669 86.3641 659.692 86.3641 659.715 86.3641C659.823 86.3641 659.925 86.3387 660.009 86.2964C660.094 86.252 660.164 86.1886 660.213 86.1124C660.261 86.0362 660.289 85.9495 660.287 85.8543C660.284 85.7591 660.255 85.6576 660.189 85.5582C659.584 84.6337 658.878 83.7136 658.065 82.8293C657.255 81.9451 656.339 81.0989 655.311 80.3205C654.285 79.5441 653.149 78.8376 651.899 78.2326C650.649 77.6297 649.284 77.1284 647.797 76.7624C647.376 76.6566 646.96 76.5678 646.547 76.4916C646.135 76.4155 645.726 76.352 645.324 76.3034C644.92 76.2547 644.523 76.2188 644.129 76.1934C643.736 76.1701 643.349 76.1595 642.964 76.1595C641.997 76.1595 641.064 76.2314 640.167 76.3668C639.268 76.5022 638.409 76.6989 637.589 76.9443C636.768 77.1918 635.987 77.488 635.251 77.8201C634.515 78.1522 633.823 78.5224 633.178 78.918M679.9 109.207C680.255 107.181 679.549 104.998 677.973 102.789C676.403 100.585 673.968 98.3554 670.857 96.2231C667.758 94.0971 663.984 92.0663 659.723 90.2577C655.473 88.4554 650.737 86.8688 645.692 85.6229C643.879 85.1744 642.092 84.7873 640.332 84.4552C638.574 84.1252 636.848 83.8502 635.162 83.6323C633.476 83.4144 631.83 83.2536 630.233 83.1458C628.636 83.0379 627.089 82.985 625.6 82.985C622.941 82.985 620.47 83.1542 618.238 83.4863C616.005 83.8184 614.012 84.3134 612.311 84.9671C610.613 85.6186 609.206 86.4288 608.15 87.3892C607.093 88.3496 606.384 89.4623 606.086 90.7209C605.747 92.1552 605.963 93.6761 606.665 95.2394C607.368 96.8048 608.558 98.4125 610.17 100.012C611.789 101.615 613.828 103.21 616.223 104.75C618.621 106.292 621.378 107.779 624.422 109.157C624.445 109.167 624.468 109.178 624.489 109.186C624.513 109.195 624.536 109.201 624.559 109.205C624.583 109.212 624.606 109.216 624.627 109.218C624.65 109.22 624.673 109.222 624.695 109.222C624.781 109.222 624.864 109.203 624.938 109.169C625.01 109.135 625.073 109.087 625.124 109.027C625.173 108.968 625.207 108.901 625.221 108.824C625.236 108.748 625.232 108.666 625.202 108.583C625.039 108.128 624.904 107.684 624.796 107.259C624.688 106.836 624.608 106.428 624.555 106.047C624.504 105.664 624.479 105.307 624.483 104.981C624.487 104.653 624.517 104.357 624.576 104.097C624.701 103.536 625.008 103.039 625.473 102.607C625.938 102.178 626.56 101.814 627.318 101.522C628.073 101.23 628.961 101.006 629.96 100.858C630.956 100.708 632.063 100.632 633.253 100.632C633.926 100.632 634.624 100.655 635.348 100.706C636.069 100.754 636.814 100.828 637.575 100.93C638.339 101.029 639.119 101.154 639.913 101.306C640.708 101.459 641.516 101.636 642.335 101.842C644.596 102.413 646.72 103.134 648.62 103.951C650.521 104.769 652.203 105.681 653.578 106.635C654.957 107.589 656.032 108.583 656.719 109.563C657.407 110.544 657.705 111.511 657.532 112.404C657.483 112.662 657.398 112.941 657.276 113.233C657.153 113.525 656.997 113.832 656.804 114.147C656.612 114.462 656.385 114.788 656.125 115.116C655.865 115.446 655.573 115.778 655.247 116.11C655.165 116.197 655.122 116.298 655.114 116.404C655.108 116.51 655.133 116.62 655.188 116.721C655.241 116.821 655.321 116.912 655.421 116.979C655.522 117.047 655.641 117.091 655.772 117.1C656.161 117.125 656.546 117.148 656.929 117.167C657.31 117.187 657.688 117.201 658.065 117.214C658.441 117.227 658.814 117.237 659.184 117.244C659.552 117.25 659.918 117.252 660.282 117.252C663.013 117.252 665.549 117.074 667.832 116.723C670.112 116.374 672.138 115.854 673.85 115.171C675.561 114.487 676.959 113.643 677.985 112.647C679.013 111.648 679.669 110.5 679.9 109.207M637.121 46.9985C649.185 46.9985 659.664 47.997 668.686 50.0151C677.736 52.0395 685.345 55.0962 691.628 59.217C697.951 63.3631 702.949 68.6029 706.727 74.9787C710.543 81.4179 713.126 89.0376 714.569 97.8968C716.035 106.887 715.959 114.824 714.214 121.686C712.449 128.621 708.987 134.434 703.709 139.111C698.393 143.822 691.255 147.365 682.191 149.743C673.097 152.127 662.097 153.326 649.106 153.354C649.36 150.187 649.737 146.159 650.16 141.899C650.579 137.662 651.044 133.196 651.48 129.101C651.914 125.029 652.318 121.318 652.624 118.549C652.929 115.791 653.134 113.959 653.172 113.627C653.316 112.935 653.098 112.184 652.582 111.418C652.066 110.655 651.254 109.878 650.204 109.129C649.157 108.383 647.875 107.666 646.42 107.02C644.967 106.377 643.34 105.808 641.603 105.356C640.954 105.184 640.313 105.036 639.682 104.909C639.052 104.782 638.432 104.677 637.827 104.594C637.224 104.509 636.634 104.448 636.063 104.406C635.492 104.366 634.94 104.344 634.411 104.344C633.524 104.344 632.699 104.402 631.955 104.514C631.21 104.628 630.548 104.795 629.983 105.017C629.419 105.237 628.951 105.512 628.602 105.838C628.253 106.164 628.018 106.54 627.921 106.968L607.182 147.72C601.193 145.688 595.987 143.105 591.524 139.974C587.083 136.858 583.386 133.2 580.397 129.008C577.427 124.838 575.159 120.144 573.551 114.93C571.956 109.756 571.017 104.076 570.685 97.8968C570.209 89.0016 571.133 81.3629 573.541 74.9174C575.927 68.5374 579.779 63.3018 585.194 59.1641C590.576 55.0518 597.521 52.0078 606.139 49.996C614.731 47.9885 625.016 46.9985 637.121 46.9985" clip-rule="evenodd" fill-rule="evenodd"></path>
</g>
<mask height="107" width="146" y="47" x="570" maskUnits="userSpaceOnUse" style="mask-type:alpha" id="mask9_431_13654">
<path fill="white" d="M637.122 47C625.016 47 614.733 47.99 606.14 49.9954V49.9954C597.52 52.0092 590.575 55.0511 585.194 59.1635V59.1635C579.778 63.3033 575.928 68.5367 573.542 74.9167V74.9167C571.133 81.3644 570.208 89.0031 570.684 97.8982V97.8982C571.017 104.077 571.956 109.755 573.551 114.931V114.931C575.158 120.146 577.426 124.838 580.396 129.007V129.007C583.387 133.202 587.083 136.857 591.525 139.973V139.973C595.986 143.106 601.195 145.687 607.181 147.72V147.72L627.92 106.967C628.02 106.54 628.252 106.163 628.601 105.837V105.837C628.953 105.512 629.418 105.239 629.983 105.017V105.017C630.548 104.794 631.21 104.627 631.954 104.515V104.515C632.699 104.403 633.524 104.346 634.41 104.346V104.346C634.941 104.346 635.493 104.365 636.062 104.407V104.407C636.634 104.447 637.224 104.511 637.829 104.593V104.593C638.434 104.676 639.051 104.782 639.682 104.909V104.909C640.312 105.033 640.953 105.186 641.603 105.355V105.355C643.339 105.808 644.966 106.379 646.419 107.02V107.02C647.875 107.665 649.157 108.384 650.206 109.129V109.129C651.251 109.878 652.067 110.656 652.581 111.42V111.42C653.098 112.183 653.316 112.934 653.172 113.626V113.626C653.136 113.96 652.926 115.792 652.624 118.551V118.551C652.317 121.318 651.913 125.028 651.479 129.1V129.1C651.044 133.196 650.58 137.663 650.159 141.898V141.898C649.736 146.161 649.362 150.186 649.108 153.353V153.353C662.096 153.328 673.096 152.126 682.19 149.742V149.742C691.255 147.366 698.392 143.821 703.708 139.112V139.112C708.988 134.433 712.449 128.622 714.213 121.688V121.688C715.121 118.128 715.575 114.278 715.601 110.142V110.142V109.429C715.578 105.801 715.231 101.958 714.571 97.8982V97.8982C713.126 89.039 710.543 81.4173 706.729 74.9781V74.9781C702.951 68.6044 697.95 63.3625 691.627 59.2163V59.2163C685.345 55.0956 677.733 52.0388 668.686 50.0144V50.0144M659.644 86.3606C659.621 86.3584 659.596 86.3563 659.57 86.35V86.35C659.549 86.3458 659.524 86.3394 659.498 86.3331V86.3331C659.475 86.3246 659.45 86.3183 659.424 86.3056V86.3056C658.39 85.8867 657.345 85.4869 656.296 85.1061V85.1061C655.249 84.7254 654.195 84.3658 653.135 84.0252V84.0252C652.076 83.6846 651.012 83.3631 649.943 83.0606V83.0606C648.875 82.7581 647.805 82.4746 646.728 82.2123V82.2123C645.638 81.9394 644.549 81.6919 643.453 81.4613V81.4613C642.36 81.2308 641.264 81.0192 640.166 80.8288V80.8288C639.068 80.6406 637.97 80.4713 636.87 80.3211V80.3211C635.772 80.1709 634.67 80.0419 633.57 79.934V79.934C633.42 79.9213 633.293 79.8684 633.189 79.7944V79.7944C633.088 79.7204 633.016 79.6209 632.974 79.5152V79.5152C632.936 79.4094 632.929 79.2952 632.959 79.1915V79.1915C632.993 79.0858 633.062 78.9906 633.177 78.9165V78.9165C633.822 78.5231 634.514 78.1508 635.25 77.8186V77.8186C635.986 77.4865 636.767 77.1904 637.587 76.945V76.945C638.408 76.6996 639.269 76.5008 640.166 76.3654V76.3654C641.063 76.23 641.998 76.1581 642.965 76.1581V76.1581C643.347 76.1581 643.735 76.1708 644.13 76.1919V76.1919C644.522 76.2173 644.919 76.2533 645.323 76.304V76.304C645.727 76.3527 646.133 76.414 646.548 76.4902V76.4902C646.958 76.5684 647.375 76.6573 647.798 76.7609V76.7609C649.283 77.1269 650.648 77.6283 651.898 78.2311V78.2311C653.15 78.8361 654.284 79.5427 655.31 80.3211V80.3211C656.338 81.0996 657.254 81.9458 658.066 82.83V82.83C658.879 83.7121 659.585 84.6344 660.188 85.5567V85.5567C660.254 85.6583 660.283 85.7598 660.285 85.8529V85.8529C660.287 85.9481 660.26 86.0348 660.213 86.1109V86.1109C660.163 86.1871 660.093 86.2506 660.008 86.295V86.295C659.924 86.3394 659.822 86.3648 659.714 86.3648V86.3648C659.691 86.3648 659.668 86.3627 659.644 86.3606M624.629 109.22C624.606 109.216 624.583 109.212 624.561 109.205V109.205C624.538 109.203 624.515 109.195 624.492 109.186V109.186C624.468 109.178 624.445 109.167 624.424 109.157V109.157C621.38 107.779 618.621 106.292 616.223 104.75V104.75C613.828 103.212 611.789 101.615 610.173 100.012V100.012C608.561 98.4125 607.37 96.8069 606.665 95.2394V95.2394C605.963 93.6761 605.749 92.1552 606.086 90.7209V90.7209C606.386 89.4623 607.093 88.3517 608.148 87.3892V87.3892C609.206 86.4309 610.613 85.6186 612.313 84.9671V84.9671C614.012 84.3156 616.007 83.8206 618.239 83.4863V83.4863C620.47 83.1563 622.943 82.985 625.6 82.985V82.985C627.089 82.985 628.636 83.0379 630.233 83.1458V83.1458C631.83 83.2536 633.476 83.4165 635.164 83.6344V83.6344C636.85 83.8502 638.574 84.1252 640.334 84.4552V84.4552C642.092 84.7873 643.881 85.1765 645.692 85.6229V85.6229C650.739 86.8709 655.476 88.4554 659.725 90.2598V90.2598C663.986 92.0684 667.758 94.0971 670.859 96.2231V96.2231C673.968 98.3554 676.403 100.585 677.975 102.789V102.789C679.551 105 680.255 107.183 679.9 109.207V109.207C679.669 110.5 679.011 111.651 677.988 112.647V112.647C676.959 113.643 675.563 114.489 673.85 115.171V115.171C672.136 115.854 670.112 116.374 667.834 116.723V116.723C665.549 117.074 663.015 117.254 660.282 117.254V117.254C659.92 117.254 659.552 117.25 659.184 117.244V117.244C658.814 117.237 658.441 117.229 658.067 117.216V117.216C657.688 117.201 657.31 117.187 656.929 117.167V117.167C656.546 117.148 656.163 117.125 655.774 117.102V117.102C655.643 117.091 655.522 117.047 655.421 116.979V116.979C655.323 116.914 655.241 116.821 655.188 116.721V116.721C655.135 116.622 655.108 116.512 655.116 116.404V116.404C655.122 116.3 655.165 116.197 655.249 116.112V116.112C655.573 115.778 655.865 115.446 656.125 115.118V115.118C656.385 114.788 656.614 114.462 656.806 114.147V114.147C656.997 113.832 657.153 113.527 657.276 113.233V113.233C657.398 112.941 657.483 112.664 657.534 112.404V112.404C657.705 111.511 657.407 110.546 656.717 109.565V109.565C656.032 108.585 654.959 107.589 653.58 106.635V106.635C652.203 105.681 650.524 104.767 648.62 103.951V103.951C646.72 103.134 644.598 102.413 642.335 101.842V101.842C641.518 101.636 640.708 101.459 639.915 101.306V101.306C639.119 101.154 638.339 101.029 637.577 100.93V100.93C636.814 100.828 636.069 100.754 635.348 100.706V100.706C634.626 100.655 633.926 100.634 633.254 100.634V100.634C632.063 100.634 630.958 100.71 629.96 100.858V100.858C628.964 101.008 628.075 101.23 627.32 101.522V101.522C626.56 101.816 625.939 102.178 625.473 102.609V102.609C625.008 103.039 624.701 103.536 624.578 104.099V104.099C624.519 104.357 624.487 104.655 624.483 104.981V104.981C624.481 105.307 624.504 105.664 624.557 106.047V106.047C624.608 106.43 624.688 106.836 624.796 107.261V107.261C624.904 107.684 625.039 108.128 625.202 108.583V108.583C625.232 108.668 625.238 108.748 625.224 108.824V108.824C625.209 108.901 625.173 108.97 625.124 109.03V109.03C625.073 109.089 625.012 109.135 624.938 109.169V109.169C624.864 109.203 624.784 109.222 624.695 109.222V109.222C624.676 109.222 624.652 109.222 624.629 109.22" clip-rule="evenodd" fill-rule="evenodd"></path>
</mask>
<g mask="url(#mask9_431_13654)">
<path fill="white" d="M633.177 78.918C633.063 78.9899 632.991 79.0872 632.96 79.193C632.928 79.2966 632.936 79.4109 632.976 79.5166C633.017 79.6224 633.089 79.7197 633.19 79.7959C633.292 79.8699 633.421 79.9228 633.571 79.9334C634.671 80.0434 635.771 80.1724 636.871 80.3205C637.971 80.4707 639.069 80.6399 640.167 80.8303C641.262 81.0207 642.36 81.2301 643.454 81.4607C644.548 81.6913 645.639 81.943 646.729 82.2138C647.803 82.4761 648.876 82.7595 649.944 83.0599C651.012 83.3624 652.076 83.6839 653.134 84.0245C654.194 84.3672 655.249 84.7268 656.296 85.1076C657.346 85.4884 658.389 85.8882 659.425 86.307C659.448 86.3176 659.474 86.3261 659.499 86.3324C659.522 86.3409 659.548 86.3451 659.571 86.3514C659.596 86.3557 659.62 86.3599 659.645 86.362C659.668 86.3641 659.692 86.3641 659.715 86.3641C659.823 86.3641 659.924 86.3387 660.009 86.2964C660.094 86.252 660.163 86.1886 660.212 86.1124C660.261 86.0362 660.288 85.9495 660.286 85.8543C660.284 85.7591 660.254 85.6576 660.189 85.5582C659.584 84.6337 658.877 83.7136 658.065 82.8293C657.255 81.9451 656.339 81.0989 655.311 80.3205C654.285 79.5441 653.149 78.8376 651.899 78.2326C650.648 77.6297 649.284 77.1284 647.797 76.7624C647.376 76.6566 646.959 76.5678 646.547 76.4916C646.134 76.4155 645.726 76.352 645.324 76.3034C644.92 76.2547 644.522 76.2188 644.129 76.1934C643.735 76.1701 643.348 76.1595 642.963 76.1595C641.996 76.1595 641.064 76.2314 640.167 76.3668C639.268 76.5022 638.409 76.6989 637.588 76.9443C636.767 77.1918 635.987 77.488 635.251 77.8201C634.514 78.1522 633.823 78.5224 633.177 78.918M679.899 109.207C680.255 107.181 679.548 104.998 677.972 102.789C676.403 100.585 673.968 98.3554 670.856 96.2231C667.757 94.0971 663.983 92.0663 659.723 90.2577C655.473 88.4554 650.737 86.8688 645.691 85.6229C643.879 85.1744 642.091 84.7873 640.331 84.4552C638.573 84.1252 636.847 83.8502 635.161 83.6323C633.475 83.4144 631.829 83.2536 630.232 83.1458C628.635 83.0379 627.089 82.985 625.6 82.985C622.94 82.985 620.47 83.1542 618.238 83.4863C616.004 83.8184 614.011 84.3134 612.311 84.9671C610.612 85.6186 609.205 86.4288 608.15 87.3892C607.092 88.3496 606.383 89.4623 606.085 90.7209C605.747 92.1552 605.962 93.6761 606.665 95.2394C607.367 96.8048 608.558 98.4125 610.17 100.012C611.788 101.615 613.827 103.21 616.222 104.75C618.621 106.292 621.377 107.779 624.421 109.157C624.445 109.167 624.468 109.178 624.489 109.186C624.512 109.195 624.535 109.201 624.559 109.205C624.582 109.212 624.605 109.216 624.626 109.218C624.65 109.22 624.673 109.222 624.694 109.222C624.781 109.222 624.863 109.203 624.937 109.169C625.009 109.135 625.073 109.087 625.124 109.027C625.172 108.968 625.206 108.901 625.221 108.824C625.236 108.748 625.231 108.666 625.202 108.583C625.039 108.128 624.904 107.684 624.796 107.259C624.688 106.836 624.607 106.428 624.555 106.047C624.504 105.664 624.478 105.307 624.483 104.981C624.487 104.653 624.516 104.357 624.576 104.097C624.7 103.536 625.007 103.039 625.473 102.607C625.938 102.178 626.56 101.814 627.317 101.522C628.072 101.23 628.961 101.006 629.959 100.858C630.956 100.708 632.062 100.632 633.253 100.632C633.926 100.632 634.624 100.655 635.347 100.706C636.069 100.754 636.813 100.828 637.575 100.93C638.338 101.029 639.119 101.154 639.912 101.306C640.708 101.459 641.516 101.636 642.334 101.842C644.596 102.413 646.72 103.134 648.619 103.951C650.521 104.769 652.203 105.681 653.578 106.635C654.957 107.589 656.031 108.583 656.719 109.563C657.406 110.544 657.705 111.511 657.531 112.404C657.483 112.662 657.398 112.941 657.275 113.233C657.153 113.525 656.996 113.832 656.804 114.147C656.611 114.462 656.385 114.788 656.125 115.116C655.864 115.446 655.572 115.778 655.247 116.11C655.164 116.197 655.122 116.298 655.113 116.404C655.107 116.51 655.132 116.62 655.187 116.721C655.24 116.821 655.321 116.912 655.42 116.979C655.522 117.047 655.64 117.091 655.771 117.1C656.16 117.125 656.545 117.148 656.928 117.167C657.309 117.187 657.688 117.201 658.064 117.214C658.441 117.227 658.813 117.237 659.183 117.244C659.551 117.25 659.917 117.252 660.281 117.252C663.012 117.252 665.549 117.074 667.831 116.723C670.111 116.374 672.138 115.854 673.849 115.171C675.561 114.487 676.959 113.643 677.985 112.647C679.013 111.648 679.669 110.5 679.899 109.207M637.12 46.9985C649.184 46.9985 659.664 47.997 668.686 50.0151C677.736 52.0395 685.345 55.0962 691.627 59.217C697.95 63.3631 702.949 68.6029 706.727 74.9787C710.543 81.4179 713.126 89.0376 714.569 97.8968C716.035 106.887 715.958 114.824 714.213 121.686C712.449 128.621 708.986 134.434 703.708 139.111C698.392 143.822 691.255 147.365 682.191 149.743C673.096 152.127 662.096 153.326 649.106 153.354C649.36 150.187 649.736 146.159 650.159 141.899C650.578 137.662 651.044 133.196 651.479 129.101C651.913 125.029 652.317 121.318 652.624 118.549C652.928 115.791 653.134 113.959 653.172 113.627C653.316 112.935 653.098 112.184 652.581 111.418C652.065 110.655 651.253 109.878 650.204 109.129C649.157 108.383 647.875 107.666 646.419 107.02C644.966 106.377 643.339 105.808 641.603 105.356C640.953 105.184 640.312 105.036 639.682 104.909C639.051 104.782 638.432 104.677 637.827 104.594C637.224 104.509 636.634 104.448 636.062 104.406C635.491 104.366 634.939 104.344 634.41 104.344C633.524 104.344 632.699 104.402 631.954 104.514C631.21 104.628 630.548 104.795 629.983 105.017C629.418 105.237 628.951 105.512 628.601 105.838C628.252 106.164 628.018 106.54 627.92 106.968L607.181 147.72C601.192 145.688 595.987 143.105 591.523 139.974C587.083 136.858 583.385 133.2 580.396 129.008C577.426 124.838 575.158 120.144 573.551 114.93C571.956 109.756 571.017 104.076 570.684 97.8968C570.208 89.0016 571.133 81.3629 573.54 74.9174C575.926 68.5374 579.778 63.3018 585.194 59.1641C590.575 55.0518 597.52 52.0078 606.138 49.996C614.731 47.9885 625.016 46.9985 637.12 46.9985" clip-rule="evenodd" fill-rule="evenodd"></path>
</g>
<path fill="white" d="M537.536 166.963H553.547L553.941 177.181H537.811L537.536 166.963Z" clip-rule="evenodd" fill-rule="evenodd"></path>
<mask height="12" width="17" y="166" x="537" maskUnits="userSpaceOnUse" style="mask-type:alpha" id="mask10_431_13654">
<path fill="white" d="M537.536 166.967L537.811 177.184H553.941L553.547 166.967H537.536Z" clip-rule="evenodd" fill-rule="evenodd"></path>
</mask>
<g mask="url(#mask10_431_13654)">
<path fill="white" d="M537.536 166.965H553.547L553.941 177.183H537.811L537.536 166.965Z" clip-rule="evenodd" fill-rule="evenodd"></path>
</g>
<path fill="white" d="M538.95 219.528L537.88 179.74H554.039L555.569 219.528H538.95Z" clip-rule="evenodd" fill-rule="evenodd"></path>
<mask height="41" width="19" y="179" x="537" maskUnits="userSpaceOnUse" style="mask-type:alpha" id="mask11_431_13654">
<path fill="white" d="M537.878 179.74L538.949 219.528H555.569L554.04 179.74H537.878Z" clip-rule="evenodd" fill-rule="evenodd"></path>
</mask>
<g mask="url(#mask11_431_13654)">
<path fill="white" d="M538.95 219.528L537.88 179.74H554.039L555.569 219.528H538.95Z" clip-rule="evenodd" fill-rule="evenodd"></path>
</g>
<defs>
<linearGradient gradientUnits="userSpaceOnUse" y2="300" x2="0" y1="0" x1="0" id="paint0_linear_431_13654">
<stop stop-color="#FA937D"></stop>
<stop stop-color="#8924F4" offset="1"></stop>
</linearGradient>
</defs>
</svg>
